{
.formatVersion = 3;
axes = (
{
name = Weight;
tag = wght;
}
);
classes = (
{
code = "g i s gbreve Scedilla scedilla Decyr Elcyr becyr vecyr gecyr decyr zhecyr zecyr icyr ishortcyr kacyr elcyr pecyr tecyr tsecyr shacyr shchacyr hardcyr ylongcyr softcyr yucyr";
name = aalt;
},
{
code = "g.ss01 i.loclTRK longs gbreve.ss01 Scommaaccent scommaaccent Decyr.loclBGR Elcyr.loclBGR becyr.loclSRB vecyr.loclBGR gecyr.loclBGR decyr.loclBGR zhecyr.loclBGR zecyr.loclBGR icyr.loclBGR ishortcyr.loclBGR kacyr.loclBGR elcyr.loclBGR pecyr.loclBGR tecyr.loclBGR tsecyr.loclBGR shacyr.loclBGR shchacyr.loclBGR hardcyr.loclBGR ylongcyr.loclBGR softcyr.loclBGR yucyr.loclBGR";
name = aalt2;
},
{

glyphs = (
{
glyphname = .notdef;
layers = (
{
layerId = "D814EF8B-E2E2-4B9A-99BD-8962E8BCF366";
shapes = (
{
closed = 1;
nodes = (
(100,0,l),
(1552,0,l),
(1552,1448,l),
(100,1448,l)
);
},
{
closed = 1;
nodes = (
(876,1334,l),
(1381,1334,l),
(1381,590,l),
(876,590,l)
);
},
{
closed = 1;
nodes = (
(775,1334,l),
(775,590,l),
(627,590,l),
(627,731,l),
(417,1044,l),
(417,590,l),
(270,590,l),
(270,1334,l),
(417,1334,l),
(627,1017,l),
(627,1334,l)
);
},
{
closed = 1;
nodes = (
(270,445,l),
(495,445,l),
(495,380,l),
(335,380,l),
(335,179,l),
(429,179,l),
(429,246,l),
(384,246,l),
(384,313,l),
(495,313,l),
(495,114,l),
(270,114,l)
);
},
{
closed = 1;
nodes = (
(543,445,l),
(609,445,l),
(609,179,l),
(743,179,l),
(743,114,l),
(543,114,l)
);
},
{
closed = 1;
nodes = (
(657,445,l),
(723,445,l),
(723,313,l),
(797,313,l),
(797,445,l),
(862,445,l),
(862,114,l),
(797,114,l),
(797,246,l),
(657,246,l)
);
},
{
closed = 1;
nodes = (
(916,445,l),
(1123,445,l),
(1123,246,l),
(981,246,l),
(981,114,l),
(916,114,l)
);
},
{
closed = 1;
nodes = (
(1177,445,l),
(1242,445,l),
(1242,313,l),
(1316,313,l),
(1316,445,l),
(1381,445,l),
(1381,114,l),
(1316,114,l),
(1316,246,l),
(1242,246,l),
(1242,114,l),
(1177,114,l)
);
},
{
closed = 1;
nodes = (
(1025,1186,l),
(1025,737,l),
(1235,737,l),
(1235,1186,l)
);
},
{
closed = 1;
nodes = (
(981,380,l),
(981,313,l),
(1056,313,l),
(1056,380,l)
);
}
);
width = 1652;
},
{
layerId = "85042BCA-33BD-4676-BF6E-DA82D0F79E7B";
shapes = (
{
closed = 1;
nodes = (
(100,0,l),
(1552,0,l),
(1552,1448,l),
(100,1448,l)
);
},
{
closed = 1;
nodes = (
(876,1334,l),
(1381,1334,l),
(1381,590,l),
(876,590,l)
);
},
{
closed = 1;
nodes = (
(775,1334,l),
(775,590,l),
(627,590,l),
(627,731,l),
(417,1044,l),
(417,590,l),
(270,590,l),
(270,1334,l),
(417,1334,l),
(627,1017,l),
(627,1334,l)
);
},
{
closed = 1;
nodes = (
(270,445,l),
(495,445,l),
(495,380,l),
(335,380,l),
(335,179,l),
(429,179,l),
(429,246,l),
(384,246,l),
(384,313,l),
(495,313,l),
(495,114,l),
(270,114,l)
);
},
{
closed = 1;
nodes = (
(543,445,l),
(609,445,l),
(609,179,l),
(743,179,l),
(743,114,l),
(543,114,l)
);
},
{
closed = 1;
nodes = (
(657,445,l),
(723,445,l),
(723,313,l),
(797,313,l),
(797,445,l),
(862,445,l),
(862,114,l),
(797,114,l),
(797,246,l),
(657,246,l)
);
},
{
closed = 1;
nodes = (
(916,445,l),
(1123,445,l),
(1123,246,l),
(981,246,l),
(981,114,l),
(916,114,l)
);
},
{
closed = 1;
nodes = (
(1177,445,l),
(1242,445,l),
(1242,313,l),
(1316,313,l),
(1316,445,l),
(1381,445,l),
(1381,114,l),
(1316,114,l),
(1316,246,l),
(1242,246,l),
(1242,114,l),
(1177,114,l)
);
},
{
closed = 1;
nodes = (
(1025,1186,l),
(1025,737,l),
(1235,737,l),
(1235,1186,l)
);
},
{
closed = 1;
nodes = (
(981,380,l),
(981,313,l),
(1056,313,l),
(1056,380,l)
);
}
);
width = 1652;
}
);
},
{
glyphname = exclam;
layers = (
{
layerId = "3C56E2CD-C7AD-4ED1-8DD7-75F0C604B46D";
shapes = (
{
closed = 1;
nodes = (
(432,454,l),
(461,1467,l),
(191,1467,l),
(220,454,l)
);
},
{
closed = 1;
nodes = (
(474,0,l),
(474,293,l),
(178,293,l),
(178,0,l)
);
}
);
width = 651;
},
{
layerId = "9D1D4149-D6AF-44E4-BA66-2DBC1F9ACF8F";
shapes = (
{
closed = 1;
nodes = (
(420,438,l),
(449,1468,l),
(202,1468,l),
(230,438,l)
);
},
{
closed = 1;
nodes = (
(462,0,l),
(462,270,l),
(188,270,l),
(188,0,l)
);
}
);
width = 650;
},
{
layerId = "D814EF8B-E2E2-4B9A-99BD-8962E8BCF366";
shapes = (
{
closed = 1;
nodes = (
(391,405,l),
(420,1469,l),
(225,1469,l),
(253,405,l)
);
},
{
closed = 1;
nodes = (
(433,0,l),
(433,219,l),
(211,219,l),
(211,0,l)
);
}
);
width = 646;
},
{
layerId = "85042BCA-33BD-4676-BF6E-DA82D0F79E7B";
shapes = (
{
closed = 1;
nodes = (
(363,369,l),
(392,1469,l),
(254,1469,l),
(282,369,l)
);
},
{
closed = 1;
nodes = (
(405,0,l),
(405,162,l),
(240,162,l),
(240,0,l)
);
}
);
width = 645;
}
);
unicode = 33;
},
{
glyphname = quotedbl;
layers = (
{
layerId = "3C56E2CD-C7AD-4ED1-8DD7-75F0C604B46D";
shapes = (
{
closed = 1;
nodes = (
(430,849,l),
(430,1447,l),
(198,1447,l),
(198,849,l)
);
},
{
closed = 1;
nodes = (
(801,849,l),
(801,1447,l),
(569,1447,l),
(569,849,l)
);
}
);
width = 997;
},
{
layerId = "9D1D4149-D6AF-44E4-BA66-2DBC1F9ACF8F";
shapes = (
{
closed = 1;
nodes = (
(418,887,l),
(418,1447,l),
(208,1447,l),
(208,887,l)
);
},
{
closed = 1;
nodes = (
(774,887,l),
(774,1447,l),
(564,1447,l),
(564,887,l)
);
}
);
width = 981;
},
{
layerId = "D814EF8B-E2E2-4B9A-99BD-8962E8BCF366";
shapes = (
{
closed = 1;
nodes = (
(384,972,l),
(384,1447,l),
(226,1447,l),
(226,972,l)
);
},
{
closed = 1;
nodes = (
(709,972,l),
(709,1447,l),
(549,1447,l),
(549,972,l)
);
}
);
width = 936;
},
{
layerId = "85042BCA-33BD-4676-BF6E-DA82D0F79E7B";
shapes = (
{
closed = 1;
nodes = (
(363,1065,l),
(363,1447,l),
(262,1447,l),
(262,1065,l)
);
},
{
closed = 1;
nodes = (
(652,1065,l),
(652,1447,l),
(548,1447,l),
(548,1065,l)
);
}
);
width = 914;
}
);
unicode = 34;
},
{
glyphname = numbersign;
layers = (
{
layerId = "3C56E2CD-C7AD-4ED1-8DD7-75F0C604B46D";
shapes = (
{
closed = 1;
nodes = (
(882,0,l),
(976,404,l),
(1264,404,l),
(1264,611,l),
(1018,611,l),
(1067,857,l),
(1348,857,l),
(1348,1053,l),
(1110,1053,l),
(1206,1468,l),
(987,1468,l),
(893,1021,l),
(659,1021,l),
(758,1468,l),
(538,1468,l),
(441,1064,l),
(155,1064,l),
(155,857,l),
(399,857,l),
(349,611,l),
(71,611,l),
(71,416,l),
(307,416,l),
(215,0,l),
(433,0,l),
(525,446,l),
(759,446,l),
(663,0,l)
);
},
{
closed = 1;
nodes = (
(800,611,l),
(567,611,l),
(616,857,l),
(851,857,l)
);
}
);
width = 1419;
},
{
layerId = "9D1D4149-D6AF-44E4-BA66-2DBC1F9ACF8F";
shapes = (
{
closed = 1;
nodes = (
(870,0,l),
(965,416,l),
(1250,416,l),
(1250,600,l),
(1002,600,l),
(1057,868,l),
(1334,868,l),
(1334,1044,l),
(1095,1044,l),
(1191,1468,l),
(994,1468,l),
(900,1021,l),
(644,1021,l),
(742,1468,l),
(545,1468,l),
(449,1053,l),
(164,1053,l),
(164,868,l),
(411,868,l),
(356,600,l),
(80,600,l),
(80,424,l),
(318,424,l),
(226,0,l),
(422,0,l),
(514,446,l),
(770,446,l),
(675,0,l)
);
},
{
closed = 1;
nodes = (
(807,600,l),
(552,600,l),
(606,868,l),
(862,868,l)
);
}
);
width = 1415;
},
{
layerId = "D814EF8B-E2E2-4B9A-99BD-8962E8BCF366";
shapes = (
{
closed = 1;
nodes = (
(845,0,l),
(940,442,l),
(1220,442,l),
(1220,574,l),
(968,574,l),
(1033,894,l),
(1304,894,l),
(1304,1026,l),
(1061,1026,l),
(1155,1468,l),
(1011,1468,l),
(917,1020,l),
(609,1020,l),
(707,1468,l),
(561,1468,l),
(465,1028,l),
(185,1028,l),
(185,894,l),
(437,894,l),
(373,574,l),
(101,574,l),
(101,442,l),
(345,442,l),
(252,0,l),
(396,0,l),
(488,447,l),
(797,447,l),
(702,0,l)
);
},
{
closed = 1;
nodes = (
(824,574,l),
(517,574,l),
(581,894,l),
(889,894,l)
);
}
);
width = 1405;
},
{
layerId = "85042BCA-33BD-4676-BF6E-DA82D0F79E7B";
shapes = (
{
closed = 1;
nodes = (
(820,0,l),
(916,471,l),
(1190,471,l),
(1190,546,l),
(932,546,l),
(1009,924,l),
(1274,924,l),
(1274,1007,l),
(1025,1007,l),
(1118,1468,l),
(1032,1468,l),
(938,1020,l),
(572,1020,l),
(670,1468,l),
(582,1468,l),
(486,1001,l),
(211,1001,l),
(211,924,l),
(469,924,l),
(394,546,l),
(127,546,l),
(127,462,l),
(377,462,l),
(284,0,l),
(371,0,l),
(463,447,l),
(829,447,l),
(735,0,l)
);
},
{
closed = 1;
nodes = (
(847,546,l),
(480,546,l),
(557,924,l),
(921,924,l)
);
}
);
width = 1399;
}
);
unicode = 35;
},
{
glyphname = dollar;
layers = (
{
layerId = "3C56E2CD-C7AD-4ED1-8DD7-75F0C604B46D";
shapes = (
{
closed = 1;
nodes = (
(67,400,l),
(81,315,o),
(159,177,o),
(274,73,o),
(418,4,o),
(497,-12,q),
(497,-252,l),
(732,-252,l),
(732,-17,l),
(816,-6,o),
(967,66,o),
(1081,178,o),
(1147,328,o),
(1147,417,qs),
(1147,524,o),
(1084,667,o),
(972,768,o),
(819,842,o),
(728,879,qs),
(673,901,ls),
(615,925,o),
(531,963,o),
(477,1002,o),
(451,1050,o),
(451,1083,qs),
(451,1117,o),
(482,1167,o),
(531,1201,o),
(591,1218,o),
(621,1218,qs),
(694,1218,o),
(804,1154,o),
(841,1089,q),
(1076,1226,l),
(1021,1326,o),
(850,1444,o),
(732,1466,q),
(732,1699,l),
(497,1699,l),
(497,1460,l),
(427,1443,o),
(305,1375,o),
(215,1276,o),
(163,1149,o),
(163,1074,qs),
(163,978,o),
(229,845,o),
(337,750,o),
(478,681,o),
(553,648,qs),
(615,621,ls),
(647,607,o),
(732,567,o),
(807,515,o),
(859,454,o),
(859,419,qs),
(859,374,o),
(833,307,o),
(779,263,o),
(694,241,o),
(634,241,qs),
(574,241,o),
(475,269,o),
(402,324,o),
(356,405,o),
(348,458,q)
);
}
);
width = 1229;
},
{
layerId = "9D1D4149-D6AF-44E4-BA66-2DBC1F9ACF8F";
shapes = (
{
closed = 1;
nodes = (
(82,394,l),
(98,309,o),
(173,172,o),
(285,70,o),
(428,3,o),
(512,-12,q),
(512,-252,l),
(718,-252,l),
(718,-16,l),
(807,-6,o),
(959,65,o),
(1070,178,o),
(1133,329,o),
(1133,420,qs),
(1133,516,o),
(1068,653,o),
(959,754,o),
(815,828,o),
(737,860,qs),
(680,884,ls),
(644,899,o),
(558,940,o),
(485,993,o),
(436,1055,o),
(436,1091,qs),
(436,1129,o),
(468,1186,o),
(521,1224,o),
(587,1243,o),
(621,1243,qs),
(692,1243,o),
(814,1177,o),
(854,1105,q),
(1064,1229,l),
(1008,1329,o),
(836,1446,o),
(718,1466,q),
(718,1699,l),
(512,1699,l),
(512,1461,l),
(443,1446,o),
(321,1381,o),
(231,1283,o),
(178,1156,o),
(178,1080,qs),
(178,987,o),
(246,855,o),
(357,759,o),
(498,689,o),
(571,658,qs),
(628,634,ls),
(667,617,o),
(754,573,o),
(827,517,o),
(875,451,o),
(875,413,qs),
(875,364,o),
(845,290,o),
(785,241,o),
(694,216,o),
(634,216,qs),
(577,216,o),
(475,244,o),
(396,301,o),
(343,389,o),
(334,449,q)
);
}
);
width = 1229;
},
{
layerId = "D814EF8B-E2E2-4B9A-99BD-8962E8BCF366";
shapes = (
{
closed = 1;
nodes = (
(114,380,l),
(130,296,o),
(205,160,o),
(317,60,o),
(461,-2,o),
(545,-12,q),
(545,-253,l),
(682,-253,l),
(682,-15,l),
(773,-8,o),
(925,58,o),
(1036,167,o),
(1098,316,o),
(1098,407,qs),
(1098,497,o),
(1035,627,o),
(931,724,o),
(797,796,o),
(726,827,qs),
(669,852,ls),
(621,873,o),
(525,923,o),
(448,984,o),
(401,1060,o),
(401,1108,qs),
(401,1153,o),
(438,1224,o),
(498,1274,o),
(577,1301,o),
(619,1301,qs),
(704,1301,o),
(839,1219,o),
(883,1141,q),
(1034,1236,l),
(976,1340,o),
(802,1452,o),
(682,1466,q),
(682,1699,l),
(545,1699,l),
(545,1463,l),
(474,1451,o),
(351,1389,o),
(261,1295,o),
(210,1169,o),
(210,1093,qs),
(210,1014,o),
(273,893,o),
(378,798,o),
(515,722,o),
(590,688,qs),
(646,662,ls),
(696,639,o),
(791,587,o),
(864,524,o),
(908,447,o),
(908,397,qs),
(908,336,o),
(869,247,o),
(797,188,o),
(695,159,o),
(632,159,qs),
(568,159,o),
(454,193,o),
(365,260,o),
(307,360,o),
(298,427,q)
);
}
);
width = 1229;
},
{
layerId = "85042BCA-33BD-4676-BF6E-DA82D0F79E7B";
shapes = (
{
closed = 1;
nodes = (
(150,365,l),
(165,281,o),
(241,147,o),
(352,50,o),
(497,-7,o),
(581,-12,q),
(581,-253,l),
(643,-253,l),
(643,-15,l),
(736,-10,o),
(889,49,o),
(999,154,o),
(1059,301,o),
(1059,394,qs),
(1059,476,o),
(999,597,o),
(901,690,o),
(778,759,o),
(714,790,q),
(656,816,ls),
(594,845,o),
(488,904,o),
(409,975,o),
(362,1065,o),
(362,1126,qs),
(362,1179,o),
(404,1266,o),
(474,1328,o),
(565,1364,o),
(616,1364,qs),
(718,1364,o),
(868,1264,o),
(915,1182,q),
(1000,1245,l),
(940,1352,o),
(765,1460,o),
(643,1466,q),
(643,1699,l),
(581,1699,l),
(581,1465,l),
(507,1456,o),
(384,1398,o),
(296,1307,o),
(246,1184,o),
(246,1108,qs),
(246,1044,o),
(303,935,o),
(402,840,o),
(535,758,o),
(611,721,qs),
(666,694,ls),
(729,663,o),
(830,604,o),
(905,533,o),
(944,443,o),
(944,381,qs),
(944,308,o),
(896,199,o),
(811,130,o),
(697,96,o),
(629,96,qs),
(556,96,o),
(430,136,o),
(332,214,o),
(267,327,o),
(258,402,q)
);
}
);
width = 1229;
}
);
unicode = 36;
},
{
glyphname = percent;
layers = (
{
layerId = "3C56E2CD-C7AD-4ED1-8DD7-75F0C604B46D";
shapes = (
{
closed = 1;
nodes = (
(1282,-19,o),
(1392,32,o),
(1471,125,o),
(1514,256,o),
(1514,335,qs),
(1514,406,o),
(1468,531,o),
(1387,623,o),
(1278,676,o),
(1215,676,qs),
(1150,676,o),
(1041,625,o),
(962,533,o),
(918,405,o),
(918,329,qs),
(918,253,o),
(962,125,o),
(1041,33,o),
(1150,-19,o),
(1215,-19,qs)
);
},
{
closed = 1;
nodes = (
(1195,180,o),
(1160,202,o),
(1135,242,o),
(1121,297,o),
(1121,329,qs),
(1121,362,o),
(1135,415,o),
(1159,454,o),
(1194,475,o),
(1215,475,qs),
(1237,475,o),
(1272,455,o),
(1296,417,o),
(1309,362,o),
(1309,328,qs),
(1309,298,o),
(1294,244,o),
(1268,203,o),
(1234,180,o),
(1215,180,qs)
);
},
{
closed = 1;
nodes = (
(254,-28,l),
(494,-28,l),
(1317,1504,l),
(1076,1504,l)
);
},
{
closed = 1;
nodes = (
(434,773,o),
(544,824,o),
(623,917,o),
(666,1048,o),
(666,1127,qs),
(666,1198,o),
(620,1323,o),
(539,1415,o),
(430,1468,o),
(367,1468,qs),
(302,1468,o),
(193,1417,o),
(114,1325,o),
(70,1197,o),
(70,1121,qs),
(70,1045,o),
(114,917,o),
(193,825,o),
(302,773,o),
(367,773,qs)
);
},
{
closed = 1;
nodes = (
(347,972,o),
(312,994,o),
(287,1034,o),
(273,1089,o),
(273,1121,qs),
(273,1154,o),
(287,1207,o),
(311,1246,o),
(346,1267,o),
(367,1267,qs),
(389,1267,o),
(424,1247,o),
(448,1209,o),
(461,1154,o),
(461,1120,qs),
(461,1090,o),
(446,1036,o),
(420,995,o),
(386,972,o),
(367,972,qs)
);
}
);
width = 1584;
},
{
layerId = "9D1D4149-D6AF-44E4-BA66-2DBC1F9ACF8F";
shapes = (
{
closed = 1;
nodes = (
(1284,-20,o),
(1388,31,o),
(1463,121,o),
(1505,246,o),
(1505,321,qs),
(1505,395,o),
(1462,522,o),
(1385,613,o),
(1278,664,o),
(1215,664,qs),
(1151,664,o),
(1047,615,o),
(972,525,o),
(931,399,o),
(931,322,qs),
(931,246,o),
(973,120,o),
(1050,30,o),
(1157,-20,o),
(1222,-20,qs)
);
},
{
closed = 1;
nodes = (
(1195,157,o),
(1156,181,o),
(1127,225,o),
(1111,286,o),
(1111,322,qs),
(1111,357,o),
(1127,417,o),
(1154,461,o),
(1193,486,o),
(1215,486,qs),
(1238,486,o),
(1277,461,o),
(1305,418,o),
(1321,358,o),
(1321,322,qs),
(1321,287,o),
(1305,227,o),
(1277,182,o),
(1240,157,o),
(1218,157,qs)
);
},
{
closed = 1;
nodes = (
(274,-20,l),
(490,-20,l),
(1300,1489,l),
(1084,1489,l)
);
},
{
closed = 1;
nodes = (
(437,784,o),
(541,835,o),
(616,925,o),
(658,1050,o),
(658,1125,qs),
(658,1199,o),
(615,1326,o),
(538,1417,o),
(431,1468,o),
(368,1468,qs),
(304,1468,o),
(200,1419,o),
(125,1329,o),
(84,1203,o),
(84,1126,qs),
(84,1050,o),
(126,924,o),
(203,834,o),
(310,784,o),
(375,784,qs)
);
},
{
closed = 1;
nodes = (
(348,961,o),
(309,985,o),
(280,1029,o),
(264,1090,o),
(264,1126,qs),
(264,1161,o),
(280,1221,o),
(307,1265,o),
(346,1290,o),
(368,1290,qs),
(391,1290,o),
(430,1265,o),
(458,1222,o),
(474,1162,o),
(474,1126,qs),
(474,1091,o),
(458,1031,o),
(430,986,o),
(393,961,o),
(371,961,qs)
);
}
);
width = 1589;
},
{
layerId = "D814EF8B-E2E2-4B9A-99BD-8962E8BCF366";
shapes = (
{
closed = 1;
nodes = (
(1287,-20,o),
(1382,28,o),
(1451,115,o),
(1489,234,o),
(1489,306,qs),
(1489,378,o),
(1449,500,o),
(1379,588,o),
(1281,637,o),
(1224,637,qs),
(1166,637,o),
(1070,589,o),
(1002,502,o),
(965,381,o),
(965,307,qs),
(965,234,o),
(1004,114,o),
(1074,28,o),
(1171,-20,o),
(1230,-20,qs)
);
},
{
closed = 1;
nodes = (
(1197,103,o),
(1148,133,o),
(1113,187,o),
(1094,262,o),
(1094,307,qs),
(1094,352,o),
(1113,427,o),
(1148,481,o),
(1196,511,o),
(1224,511,qs),
(1252,511,o),
(1300,480,o),
(1335,426,o),
(1355,352,o),
(1355,308,qs),
(1355,264,o),
(1336,189,o),
(1301,134,o),
(1254,103,o),
(1227,103,qs)
);
},
{
closed = 1;
nodes = (
(325,-5,l),
(483,-5,l),
(1266,1456,l),
(1108,1456,l)
);
},
{
closed = 1;
nodes = (
(439,811,o),
(534,859,o),
(603,946,o),
(641,1065,o),
(641,1137,qs),
(641,1209,o),
(601,1331,o),
(531,1419,o),
(433,1468,o),
(376,1468,qs),
(318,1468,o),
(222,1420,o),
(154,1333,o),
(117,1212,o),
(117,1138,qs),
(117,1065,o),
(156,945,o),
(226,859,o),
(323,811,o),
(382,811,qs)
);
},
{
closed = 1;
nodes = (
(349,934,o),
(300,964,o),
(265,1018,o),
(246,1093,o),
(246,1138,qs),
(246,1183,o),
(265,1258,o),
(300,1312,o),
(348,1342,o),
(376,1342,qs),
(404,1342,o),
(452,1311,o),
(487,1257,o),
(507,1183,o),
(507,1139,qs),
(507,1095,o),
(488,1020,o),
(453,965,o),
(406,934,o),
(379,934,qs)
);
}
);
width = 1605;
},
{
layerId = "85042BCA-33BD-4676-BF6E-DA82D0F79E7B";
shapes = (
{
closed = 1;
nodes = (
(1286,-20,o),
(1370,25,o),
(1432,108,o),
(1465,222,o),
(1465,291,qs),
(1465,360,o),
(1430,476,o),
(1366,560,o),
(1280,607,o),
(1229,607,qs),
(1177,607,o),
(1093,561,o),
(1031,478,o),
(997,362,o),
(997,291,qs),
(997,222,o),
(1031,108,o),
(1094,25,o),
(1182,-20,o),
(1235,-20,qs)
);
},
{
closed = 1;
nodes = (
(1197,43,o),
(1136,79,o),
(1094,144,o),
(1070,235,o),
(1070,291,qs),
(1070,345,o),
(1094,436,o),
(1135,502,o),
(1193,540,o),
(1229,540,qs),
(1263,540,o),
(1320,503,o),
(1362,437,o),
(1387,346,o),
(1387,293,qs),
(1387,239,o),
(1363,147,o),
(1324,80,o),
(1268,43,o),
(1233,43,qs)
);
},
{
closed = 1;
nodes = (
(376,12,l),
(470,12,l),
(1223,1419,l),
(1128,1419,l)
);
},
{
closed = 1;
nodes = (
(436,841,o),
(521,886,o),
(582,969,o),
(616,1083,o),
(616,1152,qs),
(616,1221,o),
(580,1337,o),
(516,1421,o),
(430,1468,o),
(379,1468,qs),
(327,1468,o),
(243,1422,o),
(181,1339,o),
(147,1223,o),
(147,1152,qs),
(147,1083,o),
(182,969,o),
(244,886,o),
(332,841,o),
(385,841,qs)
);
},
{
closed = 1;
nodes = (
(348,904,o),
(287,940,o),
(244,1005,o),
(221,1096,o),
(221,1152,qs),
(221,1206,o),
(244,1297,o),
(285,1363,o),
(344,1401,o),
(379,1401,qs),
(413,1401,o),
(470,1364,o),
(513,1298,o),
(537,1207,o),
(537,1154,qs),
(537,1100,o),
(514,1008,o),
(474,941,o),
(418,904,o),
(384,904,qs)
);
}
);
width = 1613;
}
);
unicode = 37;
},
{
glyphname = ampersand;
layers = (
{
layerId = "3C56E2CD-C7AD-4ED1-8DD7-75F0C604B46D";
shapes = (
{
closed = 1;
nodes = (
(67,263,o),
(135,128,o),
(261,32,o),
(439,-20,o),
(548,-20,qs),
(680,-20,o),
(898,52,o),
(990,127,q),
(1178,-85,l),
(1377,94,l),
(1164,331,l),
(1212,409,o),
(1266,585,o),
(1271,686,q),
(993,714,l),
(993,660,o),
(983,584,o),
(971,546,q),
(797,736,l),
(862,780,o),
(956,869,o),
(1019,964,o),
(1049,1064,o),
(1049,1119,qs),
(1049,1197,o),
(992,1326,o),
(888,1418,o),
(743,1468,o),
(654,1468,qs),
(560,1468,o),
(404,1417,o),
(292,1324,o),
(230,1194,o),
(230,1116,qs),
(230,1025,o),
(312,860,o),
(394,783,q),
(309,735,o),
(185,636,o),
(105,530,o),
(67,413,o),
(67,347,qs)
);
},
{
closed = 1;
nodes = (
(558,971,o),
(505,1073,o),
(505,1112,qs),
(505,1176,o),
(582,1251,o),
(648,1251,qs),
(680,1251,o),
(731,1233,o),
(766,1198,o),
(784,1147,o),
(784,1114,qs),
(784,1059,o),
(700,958,o),
(612,908,q)
);
},
{
closed = 1;
nodes = (
(341,394,o),
(365,446,o),
(420,500,o),
(509,561,o),
(573,600,q),
(825,315,l),
(764,262,o),
(628,211,o),
(551,211,qs),
(504,211,o),
(427,233,o),
(371,274,o),
(341,330,o),
(341,364,qs)
);
}
);
width = 1417;
},
{
layerId = "9D1D4149-D6AF-44E4-BA66-2DBC1F9ACF8F";
shapes = (
{
closed = 1;
nodes = (
(82,258,o),
(150,126,o),
(275,32,o),
(450,-20,o),
(556,-20,qs),
(683,-20,o),
(902,61,o),
(992,140,q),
(1183,-78,l),
(1359,80,l),
(1144,322,l),
(1193,407,o),
(1247,588,o),
(1252,688,q),
(1009,713,l),
(1009,661,o),
(991,561,o),
(974,512,q),
(769,741,l),
(837,787,o),
(935,878,o),
(999,973,o),
(1030,1072,o),
(1030,1126,qs),
(1030,1202,o),
(974,1328,o),
(872,1418,o),
(731,1468,o),
(646,1468,qs),
(558,1468,o),
(410,1417,o),
(305,1326,o),
(246,1200,o),
(246,1124,qs),
(246,1039,o),
(331,869,o),
(417,783,q),
(329,731,o),
(203,627,o),
(121,519,o),
(82,403,o),
(82,338,qs)
);
},
{
closed = 1;
nodes = (
(547,965,o),
(486,1078,o),
(486,1120,qs),
(486,1193,o),
(570,1273,o),
(648,1273,qs),
(685,1273,o),
(741,1253,o),
(779,1215,o),
(799,1159,o),
(799,1122,qs),
(799,1061,o),
(708,953,o),
(608,894,q)
);
},
{
closed = 1;
nodes = (
(323,372,o),
(354,447,o),
(416,519,o),
(510,588,o),
(572,621,q),
(846,308,l),
(784,248,o),
(638,188,o),
(550,188,qs),
(498,188,o),
(413,208,o),
(355,246,o),
(323,300,o),
(323,334,qs)
);
}
);
width = 1415;
},
{
layerId = "D814EF8B-E2E2-4B9A-99BD-8962E8BCF366";
shapes = (
{
closed = 1;
nodes = (
(115,240,o),
(176,116,o),
(289,28,o),
(449,-20,o),
(548,-20,qs),
(685,-20,o),
(908,74,o),
(996,169,q),
(1195,-62,l),
(1318,47,l),
(1097,302,l),
(1146,387,o),
(1203,580,o),
(1211,690,q),
(1044,708,l),
(1038,630,o),
(1006,494,o),
(980,434,q),
(706,753,l),
(781,803,o),
(888,897,o),
(955,992,o),
(987,1089,o),
(987,1143,qs),
(987,1215,o),
(937,1335,o),
(847,1421,o),
(721,1468,o),
(644,1468,qs),
(563,1468,o),
(429,1421,o),
(333,1335,o),
(280,1217,o),
(280,1145,qs),
(280,1058,o),
(372,880,o),
(467,782,q),
(373,723,o),
(239,612,o),
(154,499,o),
(115,382,o),
(115,317,qs)
);
},
{
closed = 1;
nodes = (
(524,942,o),
(444,1085,o),
(444,1139,qs),
(444,1226,o),
(550,1322,o),
(646,1322,qs),
(689,1322,o),
(757,1297,o),
(805,1250,o),
(831,1183,o),
(831,1141,qs),
(831,1069,o),
(720,936,o),
(598,862,q)
);
},
{
closed = 1;
nodes = (
(281,363,o),
(315,449,o),
(385,535,o),
(494,621,o),
(570,666,q),
(892,291,l),
(827,213,o),
(656,135,o),
(547,135,qs),
(486,135,o),
(387,161,o),
(318,208,o),
(281,276,o),
(281,318,qs)
);
}
);
width = 1412;
},
{
layerId = "85042BCA-33BD-4676-BF6E-DA82D0F79E7B";
shapes = (
{
closed = 1;
nodes = (
(154,221,o),
(208,104,o),
(307,24,o),
(451,-20,o),
(541,-20,qs),
(691,-20,o),
(916,89,o),
(1002,202,q),
(1212,-46,l),
(1275,10,l),
(1048,280,l),
(1097,366,o),
(1157,571,o),
(1168,693,q),
(1085,704,l),
(1071,594,o),
(1026,422,o),
(991,349,q),
(640,765,l),
(723,821,o),
(839,918,o),
(910,1013,o),
(942,1109,o),
(942,1161,qs),
(942,1230,o),
(900,1343,o),
(822,1424,o),
(712,1468,o),
(646,1468,qs),
(574,1468,o),
(453,1424,o),
(368,1346,o),
(319,1235,o),
(319,1168,qs),
(319,1079,o),
(419,892,o),
(524,782,q),
(423,714,o),
(283,594,o),
(195,478,o),
(154,361,o),
(154,295,qs)
);
},
{
closed = 1;
nodes = (
(500,917,o),
(401,1093,o),
(401,1160,qs),
(401,1262,o),
(532,1376,o),
(648,1376,qs),
(697,1376,o),
(778,1345,o),
(838,1288,o),
(870,1209,o),
(870,1162,qs),
(870,1078,o),
(734,917,o),
(589,828,q)
);
},
{
closed = 1;
nodes = (
(236,354,o),
(272,454,o),
(352,553,o),
(479,657,o),
(570,717,q),
(946,272,l),
(878,174,o),
(679,77,o),
(546,77,qs),
(476,77,o),
(360,109,o),
(281,166,o),
(236,249,o),
(236,300,qs)
);
}
);
width = 1411;
}
);
unicode = 38;
},
{
glyphname = quotesingle;
layers = (
{
layerId = "3C56E2CD-C7AD-4ED1-8DD7-75F0C604B46D";
shapes = (
{
closed = 1;
nodes = (
(430,879,l),
(430,1477,l),
(198,1477,l),
(198,879,l)
);
}
);
width = 626;
},
{
layerId = "9D1D4149-D6AF-44E4-BA66-2DBC1F9ACF8F";
shapes = (
{
closed = 1;
nodes = (
(418,916,l),
(418,1477,l),
(208,1477,l),
(208,916,l)
);
}
);
width = 625;
},
{
layerId = "D814EF8B-E2E2-4B9A-99BD-8962E8BCF366";
shapes = (
{
closed = 1;
nodes = (
(389,1001,l),
(389,1477,l),
(231,1477,l),
(231,1001,l)
);
}
);
width = 621;
},
{
layerId = "85042BCA-33BD-4676-BF6E-DA82D0F79E7B";
shapes = (
{
closed = 1;
nodes = (
(361,1096,l),
(361,1477,l),
(260,1477,l),
(260,1096,l)
);
}
);
width = 620;
}
);
unicode = 39;
},
{
glyphname = parenleft;
layers = (
{
layerId = "3C56E2CD-C7AD-4ED1-8DD7-75F0C604B46D";
shapes = (
{
closed = 1;
nodes = (
(60,592,o),
(101,346,o),
(181,123,o),
(300,-75,o),
(377,-158,q),
(632,-158,l),
(553,-52,o),
(438,152,o),
(365,364,o),
(330,593,o),
(330,724,qs),
(330,856,o),
(365,1084,o),
(438,1296,o),
(553,1499,o),
(632,1606,q),
(377,1606,l),
(299,1523,o),
(181,1327,o),
(101,1105,o),
(60,858,o),
(60,724,qs)
);
}
);
width = 632;
},
{
layerId = "9D1D4149-D6AF-44E4-BA66-2DBC1F9ACF8F";
shapes = (
{
closed = 1;
nodes = (
(80,609,o),
(120,379,o),
(197,160,o),
(308,-41,o),
(380,-128,q),
(601,-128,l),
(532,-28,o),
(426,175,o),
(355,385,o),
(318,606,o),
(318,724,qs),
(318,842,o),
(355,1063,o),
(427,1273,o),
(532,1476,o),
(601,1576,q),
(380,1576,l),
(308,1489,o),
(197,1298,o),
(120,1087,o),
(80,854,o),
(80,724,qs)
);
}
);
width = 601;
},
{
layerId = "D814EF8B-E2E2-4B9A-99BD-8962E8BCF366";
shapes = (
{
closed = 1;
nodes = (
(92,618,o),
(130,398,o),
(200,191,o),
(298,6,o),
(359,-66,q),
(515,-66,l),
(453,18,o),
(356,206,o),
(290,407,o),
(255,618,o),
(255,724,qs),
(255,831,o),
(289,1038,o),
(355,1236,o),
(452,1425,o),
(515,1514,q),
(359,1514,l),
(296,1436,o),
(197,1254,o),
(128,1053,o),
(92,837,o),
(92,724,qs)
);
}
);
width = 504;
},
{
layerId = "85042BCA-33BD-4676-BF6E-DA82D0F79E7B";
shapes = (
{
closed = 1;
nodes = (
(134,627,o),
(169,419,o),
(232,224,o),
(316,57,o),
(365,3,q),
(449,3,l),
(395,69,o),
(308,242,o),
(247,431,o),
(215,630,o),
(215,724,qs),
(215,819,o),
(246,1010,o),
(304,1196,o),
(392,1368,o),
(449,1445,q),
(365,1445,l),
(311,1376,o),
(226,1205,o),
(166,1014,o),
(134,818,o),
(134,724,qs)
);
}
);
width = 455;
}
);
unicode = 40;
},
{
glyphname = parenright;
layers = (
{
layerId = "3C56E2CD-C7AD-4ED1-8DD7-75F0C604B46D";
shapes = (
{
closed = 1;
nodes = (
(572,856,o),
(531,1102,o),
(451,1325,o),
(332,1523,o),
(255,1606,q),
(0,1606,l),
(80,1500,o),
(194,1296,o),
(267,1084,o),
(302,855,o),
(302,724,qs),
(302,592,o),
(267,364,o),
(194,153,o),
(80,-51,o),
(0,-158,q),
(255,-158,l),
(333,-75,o),
(451,121,o),
(531,343,o),
(572,590,o),
(572,724,qs)
);
}
);
width = 632;
},
{
layerId = "9D1D4149-D6AF-44E4-BA66-2DBC1F9ACF8F";
shapes = (
{
closed = 1;
nodes = (
(521,840,o),
(481,1069,o),
(404,1288,o),
(293,1489,o),
(221,1576,q),
(0,1576,l),
(69,1476,o),
(175,1273,o),
(246,1063,o),
(283,842,o),
(283,724,qs),
(283,606,o),
(246,385,o),
(174,175,o),
(69,-28,o),
(0,-128,q),
(221,-128,l),
(293,-41,o),
(404,150,o),
(481,361,o),
(521,594,o),
(521,724,qs)
);
}
);
width = 601;
},
{
layerId = "D814EF8B-E2E2-4B9A-99BD-8962E8BCF366";
shapes = (
{
closed = 1;
nodes = (
(412,831,o),
(374,1050,o),
(304,1257,o),
(206,1442,o),
(145,1514,q),
(-11,1514,l),
(51,1430,o),
(148,1242,o),
(214,1041,o),
(249,831,o),
(249,724,qs),
(249,617,o),
(215,410,o),
(149,212,o),
(52,23,o),
(-11,-66,q),
(145,-66,l),
(208,12,o),
(307,194,o),
(376,395,o),
(412,612,o),
(412,724,qs)
);
}
);
width = 504;
},
{
layerId = "85042BCA-33BD-4676-BF6E-DA82D0F79E7B";
shapes = (
{
closed = 1;
nodes = (
(321,821,o),
(286,1029,o),
(223,1224,o),
(139,1391,o),
(90,1445,q),
(6,1445,l),
(60,1379,o),
(147,1206,o),
(208,1017,o),
(240,818,o),
(240,724,qs),
(240,629,o),
(211,439,o),
(151,253,o),
(63,80,o),
(6,3,q),
(90,3,l),
(144,72,o),
(229,244,o),
(289,434,o),
(321,630,o),
(321,724,qs)
);
}
);
width = 455;
}
);
unicode = 41;
},
{
glyphname = asterisk;
layers = (
{
layerId = "3C56E2CD-C7AD-4ED1-8DD7-75F0C604B46D";
shapes = (
{
closed = 1;
nodes = (
(575,849,l),
(758,965,l),
(601,1116,l),
(826,1144,l),
(759,1333,l),
(552,1255,l),
(581,1447,l),
(355,1447,l),
(384,1255,l),
(177,1333,l),
(106,1144,l),
(332,1116,l),
(175,965,l),
(357,849,l),
(468,1054,l)
);
}
);
width = 933;
},
{
layerId = "9D1D4149-D6AF-44E4-BA66-2DBC1F9ACF8F";
shapes = (
{
closed = 1;
nodes = (
(574,854,l),
(736,958,l),
(574,1122,l),
(807,1153,l),
(746,1325,l),
(532,1241,l),
(562,1447,l),
(362,1447,l),
(392,1241,l),
(178,1325,l),
(116,1153,l),
(348,1122,l),
(186,958,l),
(348,854,l),
(462,1067,l)
);
}
);
width = 923;
},
{
layerId = "D814EF8B-E2E2-4B9A-99BD-8962E8BCF366";
shapes = (
{
closed = 1;
nodes = (
(568,867,l),
(683,945,l),
(509,1137,l),
(759,1175,l),
(714,1306,l),
(485,1209,l),
(515,1447,l),
(376,1447,l),
(408,1209,l),
(177,1306,l),
(134,1175,l),
(383,1137,l),
(209,945,l),
(323,867,l),
(445,1097,l)
);
}
);
width = 894;
},
{
layerId = "85042BCA-33BD-4676-BF6E-DA82D0F79E7B";
shapes = (
{
closed = 1;
nodes = (
(571,881,l),
(634,932,l),
(448,1154,l),
(716,1201,l),
(690,1285,l),
(443,1173,l),
(475,1447,l),
(402,1447,l),
(435,1173,l),
(186,1285,l),
(166,1201,l),
(431,1154,l),
(245,932,l),
(305,881,l),
(438,1132,l)
);
}
);
width = 879;
}
);
unicode = 42;
},
{
glyphname = plus;
layers = (
{
layerId = "3C56E2CD-C7AD-4ED1-8DD7-75F0C604B46D";
shapes = (
{
closed = 1;
nodes = (
(745,109,l),
(745,532,l),
(1213,532,l),
(1213,745,l),
(745,745,l),
(745,1170,l),
(535,1170,l),
(535,745,l),
(67,745,l),
(67,532,l),
(535,532,l),
(535,109,l)
);
}
);
width = 1279;
},
{
layerId = "9D1D4149-D6AF-44E4-BA66-2DBC1F9ACF8F";
shapes = (
{
closed = 1;
nodes = (
(736,109,l),
(736,545,l),
(1204,545,l),
(1204,734,l),
(736,734,l),
(736,1170,l),
(548,1170,l),
(548,734,l),
(80,734,l),
(80,545,l),
(548,545,l),
(548,109,l)
);
}
);
width = 1283;
},
{
layerId = "D814EF8B-E2E2-4B9A-99BD-8962E8BCF366";
shapes = (
{
closed = 1;
nodes = (
(716,109,l),
(716,572,l),
(1184,572,l),
(1184,709,l),
(716,709,l),
(716,1169,l),
(579,1169,l),
(579,709,l),
(111,709,l),
(111,572,l),
(579,572,l),
(579,109,l)
);
}
);
width = 1296;
},
{
layerId = "85042BCA-33BD-4676-BF6E-DA82D0F79E7B";
shapes = (
{
closed = 1;
nodes = (
(691,109,l),
(691,602,l),
(1160,602,l),
(1160,681,l),
(691,681,l),
(691,1169,l),
(611,1169,l),
(611,681,l),
(143,681,l),
(143,602,l),
(611,602,l),
(611,109,l)
);
}
);
width = 1302;
}
);
unicode = 43;
},
{
glyphname = comma;
layers = (
{
layerId = "3C56E2CD-C7AD-4ED1-8DD7-75F0C604B46D";
shapes = (
{
closed = 1;
nodes = (
(301,-304,l),
(565,270,l),
(250,270,l),
(113,-304,l)
);
}
);
width = 652;
},
{
layerId = "9D1D4149-D6AF-44E4-BA66-2DBC1F9ACF8F";
shapes = (
{
closed = 1;
nodes = (
(269,-311,l),
(530,270,l),
(243,270,l),
(103,-311,l)
);
}
);
width = 614;
},
{
layerId = "D814EF8B-E2E2-4B9A-99BD-8962E8BCF366";
shapes = (
{
closed = 1;
nodes = (
(247,-327,l),
(501,268,l),
(277,268,l),
(133,-327,l)
);
}
);
width = 614;
},
{
layerId = "85042BCA-33BD-4676-BF6E-DA82D0F79E7B";
shapes = (
{
closed = 1;
nodes = (
(223,-345,l),
(468,267,l),
(315,267,l),
(166,-345,l)
);
}
);
width = 614;
}
);
unicode = 44;
},
{
glyphname = hyphen;
layers = (
{
layerId = "3C56E2CD-C7AD-4ED1-8DD7-75F0C604B46D";
shapes = (
{
closed = 1;
nodes = (
(759,498,l),
(759,709,l),
(138,709,l),
(138,498,l)
);
}
);
width = 897;
},
{
layerId = "9D1D4149-D6AF-44E4-BA66-2DBC1F9ACF8F";
shapes = (
{
closed = 1;
nodes = (
(742,520,l),
(742,709,l),
(144,709,l),
(144,520,l)
);
}
);
width = 887;
},
{
layerId = "D814EF8B-E2E2-4B9A-99BD-8962E8BCF366";
shapes = (
{
closed = 1;
nodes = (
(702,571,l),
(702,708,l),
(156,708,l),
(156,571,l)
);
}
);
width = 859;
},
{
layerId = "85042BCA-33BD-4676-BF6E-DA82D0F79E7B";
shapes = (
{
closed = 1;
nodes = (
(669,627,l),
(669,707,l),
(179,707,l),
(179,627,l)
);
}
);
width = 846;
}
);
unicode = 45;
},
{
glyphname = period;
layers = (
{
layerId = "3C56E2CD-C7AD-4ED1-8DD7-75F0C604B46D";
shapes = (
{
closed = 1;
nodes = (
(462,0,l),
(462,293,l),
(196,293,l),
(196,0,l)
);
}
);
width = 657;
},
{
layerId = "9D1D4149-D6AF-44E4-BA66-2DBC1F9ACF8F";
shapes = (
{
closed = 1;
nodes = (
(432,0,l),
(432,270,l),
(181,270,l),
(181,0,l)
);
}
);
width = 614;
},
{
layerId = "D814EF8B-E2E2-4B9A-99BD-8962E8BCF366";
shapes = (
{
closed = 1;
nodes = (
(434,0,l),
(434,219,l),
(218,219,l),
(218,0,l)
);
}
);
width = 614;
},
{
layerId = "85042BCA-33BD-4676-BF6E-DA82D0F79E7B";
shapes = (
{
closed = 1;
nodes = (
(437,0,l),
(437,162,l),
(260,162,l),
(260,0,l)
);
}
);
width = 614;
}
);
unicode = 46;
},
{
glyphname = slash;
layers = (
{
layerId = "3C56E2CD-C7AD-4ED1-8DD7-75F0C604B46D";
shapes = (
{
closed = 1;
nodes = (
(203,-440,l),
(1012,1552,l),
(754,1552,l),
(-53,-440,l)
);
}
);
width = 958;
},
{
layerId = "9D1D4149-D6AF-44E4-BA66-2DBC1F9ACF8F";
shapes = (
{
closed = 1;
nodes = (
(195,-440,l),
(994,1552,l),
(761,1552,l),
(-38,-440,l)
);
}
);
width = 956;
},
{
layerId = "D814EF8B-E2E2-4B9A-99BD-8962E8BCF366";
shapes = (
{
closed = 1;
nodes = (
(175,-441,l),
(954,1552,l),
(777,1552,l),
(-4,-441,l)
);
}
);
width = 951;
},
{
layerId = "85042BCA-33BD-4676-BF6E-DA82D0F79E7B";
shapes = (
{
closed = 1;
nodes = (
(156,-441,l),
(914,1552,l),
(797,1552,l),
(37,-441,l)
);
}
);
width = 948;
}
);
unicode = 47;
},
{
glyphname = zero;
layers = (
{
layerId = "3C56E2CD-C7AD-4ED1-8DD7-75F0C604B46D";
shapes = (
{
closed = 1;
nodes = (
(724,-20,o),
(888,40,o),
(1018,145,o),
(1115,288,o),
(1178,453,o),
(1210,633,o),
(1210,723,qs),
(1210,813,o),
(1177,993,o),
(1111,1159,o),
(1011,1303,o),
(877,1409,o),
(710,1470,o),
(609,1470,qs),
(508,1470,o),
(342,1410,o),
(211,1306,o),
(115,1163,o),
(53,998,o),
(22,816,o),
(22,724,qs),
(22,632,o),
(54,450,o),
(118,284,o),
(217,143,o),
(350,39,o),
(520,-20,o),
(624,-20,qs)
);
},
{
closed = 1;
nodes = (
(562,255,o),
(473,298,o),
(405,369,o),
(355,462,o),
(323,563,o),
(308,665,o),
(308,710,qs),
(308,755,o),
(319,861,o),
(346,967,o),
(389,1067,o),
(455,1144,o),
(545,1190,o),
(604,1190,qs),
(660,1190,o),
(749,1148,o),
(817,1078,o),
(865,986,o),
(896,885,o),
(910,783,o),
(910,738,qs),
(910,692,o),
(899,584,o),
(872,477,o),
(829,377,o),
(764,301,o),
(675,255,o),
(617,255,qs)
);
}
);
width = 1229;
},
{
layerId = "9D1D4149-D6AF-44E4-BA66-2DBC1F9ACF8F";
shapes = (
{
closed = 1;
nodes = (
(716,-20,o),
(868,45,o),
(985,155,o),
(1070,302,o),
(1125,467,o),
(1151,640,o),
(1151,722,qs),
(1151,808,o),
(1122,986,o),
(1064,1152,o),
(975,1298,o),
(854,1407,o),
(701,1470,o),
(608,1470,qs),
(509,1470,o),
(352,1404,o),
(234,1292,o),
(152,1143,o),
(100,977,o),
(77,804,o),
(77,724,qs),
(77,638,o),
(103,460,o),
(159,295,o),
(246,150,o),
(367,42,o),
(524,-20,o),
(621,-20,qs)
);
},
{
closed = 1;
nodes = (
(558,226,o),
(470,273,o),
(406,352,o),
(361,453,o),
(335,561,o),
(323,668,o),
(323,712,qs),
(323,760,o),
(334,873,o),
(360,986,o),
(402,1090,o),
(465,1171,o),
(549,1219,o),
(604,1219,qs),
(659,1219,o),
(744,1174,o),
(808,1098,o),
(852,1000,o),
(880,894,o),
(892,788,o),
(892,742,qs),
(892,700,o),
(883,590,o),
(860,476,o),
(820,365,o),
(758,279,o),
(672,226,o),
(615,226,qs)
);
}
);
width = 1229;
},
{
layerId = "D814EF8B-E2E2-4B9A-99BD-8962E8BCF366";
shapes = (
{
closed = 1;
nodes = (
(706,-20,o),
(856,46,o),
(972,159,o),
(1057,308,o),
(1111,473,o),
(1137,644,o),
(1137,722,qs),
(1137,804,o),
(1111,978,o),
(1056,1144,o),
(971,1293,o),
(853,1405,o),
(701,1470,o),
(607,1470,qs),
(510,1470,o),
(357,1403,o),
(242,1290,o),
(162,1141,o),
(112,975,o),
(90,802,o),
(90,723,qs),
(90,640,o),
(113,465,o),
(164,300,o),
(246,153,o),
(362,44,o),
(515,-20,o),
(613,-20,qs)
);
},
{
closed = 1;
nodes = (
(542,155,o),
(439,209,o),
(364,298,o),
(313,414,o),
(283,539,o),
(271,664,o),
(271,718,qs),
(271,771,o),
(284,897,o),
(314,1025,o),
(364,1143,o),
(439,1235,o),
(539,1290,o),
(605,1290,qs),
(671,1290,o),
(772,1236,o),
(847,1147,o),
(898,1031,o),
(930,907,o),
(944,783,o),
(944,731,qs),
(944,681,o),
(932,556,o),
(902,428,o),
(852,307,o),
(778,212,o),
(677,155,o),
(610,155,qs)
);
}
);
width = 1229;
},
{
layerId = "85042BCA-33BD-4676-BF6E-DA82D0F79E7B";
shapes = (
{
closed = 1;
nodes = (
(696,-20,o),
(844,49,o),
(959,164,o),
(1042,316,o),
(1096,479,o),
(1122,647,o),
(1122,722,qs),
(1122,800,o),
(1099,969,o),
(1049,1137,o),
(967,1287,o),
(853,1402,o),
(703,1470,o),
(607,1470,qs),
(512,1470,o),
(363,1403,o),
(253,1289,o),
(174,1138,o),
(127,971,o),
(105,801,o),
(105,722,qs),
(105,642,o),
(125,470,o),
(170,305,o),
(245,158,o),
(356,46,o),
(506,-20,o),
(604,-20,qs)
);
},
{
closed = 1;
nodes = (
(526,76,o),
(403,136,o),
(316,238,o),
(259,371,o),
(226,515,o),
(213,661,o),
(213,724,qs),
(213,783,o),
(227,926,o),
(263,1067,o),
(322,1202,o),
(409,1306,o),
(529,1368,o),
(607,1368,qs),
(685,1368,o),
(802,1305,o),
(891,1201,o),
(951,1066,o),
(986,921,o),
(1001,777,o),
(1001,718,qs),
(1001,659,o),
(985,517,o),
(949,374,o),
(888,241,o),
(801,137,o),
(682,76,o),
(606,76,qs)
);
}
);
width = 1229;
}
);
unicode = 48;
},
{
glyphname = one;
layers = (
{
layerId = "3C56E2CD-C7AD-4ED1-8DD7-75F0C604B46D";
shapes = (
{
closed = 1;
nodes = (
(561,0,l),
(847,0,l),
(847,1447,l),
(570,1447,l),
(570,1403,ls),
(570,1334,o),
(499,1256,o),
(423,1256,qs),
(179,1256,l),
(179,1036,l),
(561,1036,l)
);
}
);
width = 1229;
},
{
layerId = "9D1D4149-D6AF-44E4-BA66-2DBC1F9ACF8F";
shapes = (
{
closed = 1;
nodes = (
(574,0,l),
(830,0,l),
(830,1447,l),
(585,1447,l),
(585,1407,ls),
(585,1333,o),
(505,1252,o),
(430,1252,qs),
(191,1252,l),
(191,1055,l),
(574,1055,l)
);
}
);
width = 1229;
},
{
layerId = "D814EF8B-E2E2-4B9A-99BD-8962E8BCF366";
shapes = (
{
closed = 1;
nodes = (
(605,0,l),
(794,0,l),
(794,1447,l),
(618,1447,l),
(618,1424,ls),
(618,1336,o),
(530,1243,o),
(445,1243,qs),
(219,1243,l),
(219,1096,l),
(605,1096,l)
);
}
);
width = 1229;
},
{
layerId = "85042BCA-33BD-4676-BF6E-DA82D0F79E7B";
shapes = (
{
closed = 1;
nodes = (
(640,0,l),
(754,0,l),
(754,1447,l),
(654,1447,l),
(654,1444,ls),
(654,1341,o),
(557,1234,o),
(462,1234,qs),
(249,1234,l),
(249,1141,l),
(640,1141,l)
);
}
);
width = 1229;
}
);
unicode = 49;
},
{
glyphname = two;
layers = (
{
layerId = "3C56E2CD-C7AD-4ED1-8DD7-75F0C604B46D";
shapes = (
{
closed = 1;
nodes = (
(37,0,l),
(1164,0,l),
(1164,264,l),
(529,264,l),
(630,332,o),
(793,460,o),
(918,584,o),
(1008,706,o),
(1067,832,o),
(1094,963,o),
(1094,1033,qs),
(1094,1127,o),
(1015,1286,o),
(884,1401,o),
(714,1466,o),
(624,1466,qs),
(507,1466,o),
(311,1374,o),
(171,1222,o),
(93,1026,o),
(93,921,q),
(377,904,l),
(377,963,o),
(402,1071,o),
(459,1155,o),
(550,1205,o),
(616,1205,qs),
(661,1205,o),
(731,1179,o),
(780,1130,o),
(805,1059,o),
(805,1015,qs),
(805,947,o),
(720,788,o),
(584,626,o),
(413,470,o),
(240,339,o),
(83,241,o),
(29,219,q),
(37,224,l)
);
}
);
width = 1229;
},
{
layerId = "9D1D4149-D6AF-44E4-BA66-2DBC1F9ACF8F";
shapes = (
{
closed = 1;
nodes = (
(53,0,l),
(1150,0,l),
(1150,234,l),
(481,234,l),
(544,273,o),
(682,379,o),
(815,507,o),
(935,652,o),
(1026,805,o),
(1079,962,o),
(1079,1038,qs),
(1079,1137,o),
(1003,1295,o),
(875,1406,o),
(706,1466,o),
(613,1466,qs),
(505,1466,o),
(325,1388,o),
(194,1254,o),
(117,1074,o),
(111,972,q),
(365,948,l),
(368,1004,o),
(399,1107,o),
(459,1186,o),
(551,1233,o),
(615,1233,qs),
(668,1233,o),
(745,1201,o),
(795,1144,o),
(819,1068,o),
(819,1023,qs),
(819,951,o),
(751,803,o),
(640,658,o),
(496,520,o),
(345,398,o),
(198,296,o),
(138,258,qs),
(53,206,l)
);
}
);
width = 1229;
},
{
layerId = "D814EF8B-E2E2-4B9A-99BD-8962E8BCF366";
shapes = (
{
closed = 1;
nodes = (
(89,0,l),
(1118,0,l),
(1118,166,l),
(372,166,l),
(441,213,o),
(594,331,o),
(744,468,o),
(881,622,o),
(985,787,o),
(1047,961,o),
(1047,1049,qs),
(1047,1146,o),
(981,1300,o),
(864,1408,o),
(703,1466,o),
(609,1466,qs),
(504,1466,o),
(337,1391,o),
(219,1262,o),
(155,1088,o),
(152,988,q),
(336,970,l),
(337,1033,o),
(371,1151,o),
(438,1241,o),
(542,1296,o),
(613,1296,qs),
(673,1296,o),
(763,1257,o),
(824,1189,o),
(854,1096,o),
(854,1041,qs),
(854,962,o),
(785,798,o),
(671,638,o),
(524,487,o),
(367,353,o),
(213,242,o),
(150,201,q),
(89,163,l)
);
}
);
width = 1229;
},
{
layerId = "85042BCA-33BD-4676-BF6E-DA82D0F79E7B";
shapes = (
{
closed = 1;
nodes = (
(128,0,l),
(1082,0,l),
(1082,90,l),
(251,90,l),
(326,146,o),
(495,277,o),
(665,425,o),
(821,589,o),
(940,768,o),
(1011,960,o),
(1011,1061,qs),
(1011,1155,o),
(956,1306,o),
(849,1411,o),
(700,1466,o),
(605,1466,qs),
(503,1466,o),
(349,1396,o),
(246,1271,o),
(196,1103,o),
(197,1006,q),
(303,994,l),
(303,1066,o),
(338,1199,o),
(414,1304,o),
(532,1367,o),
(612,1367,qs),
(679,1367,o),
(784,1322,o),
(856,1240,o),
(893,1128,o),
(893,1062,qs),
(893,974,o),
(823,792,o),
(706,617,o),
(554,451,o),
(391,304,o),
(231,182,o),
(162,138,q),
(128,115,l)
);
}
);
width = 1229;
}
);
unicode = 50;
},
{
glyphname = three;
layers = (
{
layerId = "3C56E2CD-C7AD-4ED1-8DD7-75F0C604B46D";
shapes = (
{
closed = 1;
nodes = (
(44,472,l),
(44,348,o),
(137,164,o),
(294,41,o),
(499,-20,o),
(611,-20,qs),
(710,-20,o),
(903,40,o),
(1056,156,o),
(1150,327,o),
(1150,438,qs),
(1150,556,o),
(1053,729,o),
(959,788,q),
(1012,843,o),
(1071,988,o),
(1071,1068,qs),
(1071,1159,o),
(992,1307,o),
(860,1411,o),
(691,1468,o),
(601,1468,qs),
(503,1468,o),
(326,1407,o),
(193,1292,o),
(114,1127,o),
(114,1023,q),
(389,1005,l),
(389,1055,o),
(423,1127,o),
(480,1173,o),
(556,1196,o),
(598,1196,qs),
(644,1196,o),
(716,1175,o),
(765,1133,o),
(791,1072,o),
(791,1032,qs),
(791,1001,o),
(774,949,o),
(738,911,o),
(681,889,o),
(641,889,qs),
(454,889,l),
(454,646,l),
(641,646,ls),
(688,646,o),
(771,625,o),
(833,580,o),
(870,507,o),
(870,456,qs),
(870,405,o),
(827,327,o),
(753,275,o),
(656,249,o),
(602,249,qs),
(541,249,o),
(438,282,o),
(364,344,o),
(323,432,o),
(323,487,q)
);
}
);
width = 1229;
},
{
layerId = "9D1D4149-D6AF-44E4-BA66-2DBC1F9ACF8F";
shapes = (
{
closed = 1;
nodes = (
(58,457,l),
(58,337,o),
(145,157,o),
(293,39,o),
(489,-20,o),
(598,-20,qs),
(705,-20,o),
(899,37,o),
(1046,150,o),
(1133,319,o),
(1133,432,qs),
(1133,544,o),
(1034,726,o),
(929,786,q),
(988,839,o),
(1055,985,o),
(1055,1074,qs),
(1055,1170,o),
(975,1318,o),
(844,1417,o),
(678,1468,o),
(591,1468,qs),
(492,1468,o),
(323,1408,o),
(198,1297,o),
(128,1137,o),
(128,1038,q),
(373,1021,l),
(375,1071,o),
(409,1147,o),
(467,1200,o),
(547,1227,o),
(596,1227,qs),
(640,1227,o),
(717,1204,o),
(773,1158,o),
(805,1089,o),
(805,1042,qs),
(805,1002,o),
(782,940,o),
(738,898,o),
(675,877,o),
(635,877,qs),
(468,877,l),
(468,658,l),
(635,658,ls),
(694,658,o),
(787,629,o),
(851,574,o),
(885,495,o),
(885,446,qs),
(885,385,o),
(835,298,o),
(755,243,o),
(653,218,o),
(600,218,qs),
(537,218,o),
(429,252,o),
(351,317,o),
(306,411,o),
(306,472,q)
);
}
);
width = 1229;
},
{
layerId = "D814EF8B-E2E2-4B9A-99BD-8962E8BCF366";
shapes = (
{
closed = 1;
nodes = (
(90,422,l),
(90,310,o),
(171,144,o),
(309,34,o),
(492,-20,o),
(594,-20,qs),
(697,-20,o),
(879,35,o),
(1016,145,o),
(1095,309,o),
(1095,418,qs),
(1095,543,o),
(978,731,o),
(859,781,q),
(937,835,o),
(1017,991,o),
(1017,1091,qs),
(1017,1181,o),
(945,1321,o),
(826,1417,o),
(672,1468,o),
(589,1468,qs),
(499,1468,o),
(342,1414,o),
(226,1313,o),
(159,1167,o),
(159,1074,q),
(334,1057,l),
(335,1113,o),
(376,1201,o),
(445,1263,o),
(537,1296,o),
(591,1296,qs),
(643,1296,o),
(733,1264,o),
(799,1204,o),
(837,1118,o),
(837,1064,qs),
(837,1014,o),
(807,934,o),
(752,879,o),
(673,849,o),
(624,849,qs),
(499,849,l),
(499,686,l),
(609,686,ls),
(675,686,o),
(788,654,o),
(870,589,o),
(917,490,o),
(917,422,qs),
(917,355,o),
(862,252,o),
(772,183,o),
(656,148,o),
(595,148,qs),
(529,148,o),
(410,186,o),
(320,260,o),
(267,367,o),
(267,436,q)
);
}
);
width = 1229;
},
{
layerId = "85042BCA-33BD-4676-BF6E-DA82D0F79E7B";
shapes = (
{
closed = 1;
nodes = (
(126,383,l),
(126,280,o),
(200,129,o),
(326,30,o),
(495,-20,o),
(590,-20,qs),
(688,-20,o),
(857,34,o),
(982,139,o),
(1053,297,o),
(1053,402,qs),
(1053,543,o),
(917,737,o),
(781,777,q),
(883,831,o),
(975,1000,o),
(975,1111,qs),
(975,1193,o),
(914,1326,o),
(807,1419,o),
(665,1468,o),
(586,1468,qs),
(507,1468,o),
(365,1422,o),
(256,1331,o),
(194,1199,o),
(194,1115,q),
(292,1098,l),
(292,1160,o),
(339,1261,o),
(420,1334,o),
(528,1373,o),
(587,1373,qs),
(648,1373,o),
(753,1330,o),
(829,1254,o),
(873,1151,o),
(873,1090,qs),
(873,1029,o),
(836,930,o),
(766,857,o),
(670,818,o),
(611,818,qs),
(534,818,l),
(534,718,l),
(579,718,ls),
(653,718,o),
(788,684,o),
(891,607,o),
(953,484,o),
(953,395,qs),
(953,321,o),
(894,201,o),
(792,117,o),
(662,72,o),
(591,72,qs),
(520,72,o),
(388,114,o),
(286,197,o),
(225,319,o),
(225,397,q)
);
}
);
width = 1229;
}
);
unicode = 51;
},
{
glyphname = four;
layers = (
{
layerId = "3C56E2CD-C7AD-4ED1-8DD7-75F0C604B46D";
shapes = (
{
closed = 1;
nodes = (
(-2,325,l),
(668,325,l),
(668,0,l),
(953,0,l),
(953,325,l),
(1185,325,l),
(1185,592,l),
(953,592,l),
(953,1447,l),
(712,1447,l),
(-2,493,l)
);
},
{
closed = 1;
nodes = (
(376,592,l),
(668,1000,l),
(668,592,l)
);
}
);
width = 1229;
},
{
layerId = "9D1D4149-D6AF-44E4-BA66-2DBC1F9ACF8F";
shapes = (
{
closed = 1;
nodes = (
(40,339,l),
(683,339,l),
(683,0,l),
(939,0,l),
(939,339,l),
(1161,339,l),
(1161,578,l),
(939,578,l),
(939,1447,l),
(719,1447,l),
(40,488,l)
);
},
{
closed = 1;
nodes = (
(371,578,l),
(683,1030,l),
(683,578,l)
);
}
);
width = 1229;
},
{
layerId = "D814EF8B-E2E2-4B9A-99BD-8962E8BCF366";
shapes = (
{
closed = 1;
nodes = (
(64,375,l),
(720,375,l),
(720,0,l),
(907,0,l),
(907,375,l),
(1132,375,l),
(1132,542,l),
(907,542,l),
(907,1447,l),
(740,1447,l),
(64,483,l)
);
},
{
closed = 1;
nodes = (
(294,542,l),
(720,1150,l),
(720,542,l)
);
}
);
width = 1229;
},
{
layerId = "85042BCA-33BD-4676-BF6E-DA82D0F79E7B";
shapes = (
{
closed = 1;
nodes = (
(90,414,l),
(762,414,l),
(762,0,l),
(871,0,l),
(871,414,l),
(1101,414,l),
(1101,503,l),
(871,503,l),
(871,1447,l),
(763,1447,l),
(90,477,l)
);
},
{
closed = 1;
nodes = (
(209,503,l),
(762,1282,l),
(762,503,l)
);
}
);
width = 1229;
}
);
unicode = 52;
},
{
glyphname = five;
layers = (
{
layerId = "3C56E2CD-C7AD-4ED1-8DD7-75F0C604B46D";
shapes = (
{
closed = 1;
nodes = (
(67,432,l),
(88,328,o),
(183,160,o),
(323,43,o),
(501,-20,o),
(604,-20,qs),
(724,-20,o),
(924,58,o),
(1069,199,o),
(1150,394,o),
(1150,510,qs),
(1150,621,o),
(1079,805,o),
(949,937,o),
(767,1010,o),
(656,1010,qs),
(605,1010,o),
(504,990,o),
(438,968,q),
(482,1178,l),
(1085,1178,l),
(1085,1447,l),
(251,1447,l),
(106,676,l),
(371,618,l),
(387,645,o),
(438,691,o),
(499,725,o),
(568,744,o),
(601,744,qs),
(658,744,o),
(751,709,o),
(818,644,o),
(855,555,o),
(855,501,qs),
(855,443,o),
(820,348,o),
(756,281,o),
(667,245,o),
(612,245,qs),
(560,245,o),
(471,281,o),
(400,348,o),
(350,444,o),
(338,504,q)
);
}
);
width = 1229;
},
{
layerId = "9D1D4149-D6AF-44E4-BA66-2DBC1F9ACF8F";
shapes = (
{
closed = 1;
nodes = (
(84,420,l),
(106,323,o),
(204,161,o),
(342,44,o),
(512,-20,o),
(606,-20,qs),
(714,-20,o),
(907,62,o),
(1052,202,o),
(1137,388,o),
(1137,493,qs),
(1137,597,o),
(1059,779,o),
(925,915,o),
(746,994,o),
(644,994,qs),
(586,994,o),
(474,966,o),
(420,937,q),
(472,1208,l),
(1072,1208,l),
(1072,1447,l),
(266,1447,l),
(126,686,l),
(360,627,l),
(380,658,o),
(434,707,o),
(498,742,o),
(569,761,o),
(606,761,qs),
(665,761,o),
(762,722,o),
(833,651,o),
(872,554,o),
(872,495,qs),
(872,438,o),
(830,335,o),
(757,259,o),
(660,214,o),
(606,214,qs),
(552,214,o),
(462,249,o),
(391,318,o),
(340,420,o),
(325,486,q)
);
}
);
width = 1229;
},
{
layerId = "D814EF8B-E2E2-4B9A-99BD-8962E8BCF366";
shapes = (
{
closed = 1;
nodes = (
(122,392,l),
(143,299,o),
(234,147,o),
(361,39,o),
(519,-20,o),
(609,-20,qs),
(712,-20,o),
(894,58,o),
(1029,194,o),
(1107,376,o),
(1107,479,qs),
(1107,580,o),
(1036,756,o),
(911,886,o),
(743,960,o),
(646,960,qs),
(564,960,o),
(433,914,o),
(377,866,q),
(448,1277,l),
(1042,1277,l),
(1042,1447,l),
(300,1447,l),
(169,708,l),
(336,645,l),
(359,680,o),
(419,736,o),
(492,774,o),
(574,794,o),
(619,794,qs),
(685,794,o),
(794,748,o),
(872,665,o),
(915,549,o),
(915,479,qs),
(915,408,o),
(868,287,o),
(786,198,o),
(673,147,o),
(607,147,qs),
(546,147,o),
(444,186,o),
(365,261,o),
(310,373,o),
(295,445,q)
);
}
);
width = 1229;
},
{
layerId = "85042BCA-33BD-4676-BF6E-DA82D0F79E7B";
shapes = (
{
closed = 1;
nodes = (
(164,361,l),
(185,272,o),
(266,131,o),
(382,32,o),
(528,-20,o),
(612,-20,qs),
(709,-20,o),
(878,55,o),
(1002,185,o),
(1074,361,o),
(1074,463,qs),
(1074,561,o),
(1009,729,o),
(896,852,o),
(739,921,o),
(648,921,qs),
(539,921,o),
(387,857,o),
(329,787,q),
(421,1354,l),
(1009,1354,l),
(1009,1447,l),
(338,1447,l),
(217,734,l),
(309,666,l),
(335,707,o),
(403,768,o),
(485,810,o),
(580,832,o),
(634,832,qs),
(708,832,o),
(827,778,o),
(914,680,o),
(962,545,o),
(962,463,qs),
(962,377,o),
(910,233,o),
(816,131,o),
(687,74,o),
(609,74,qs),
(539,74,o),
(425,116,o),
(337,200,o),
(276,321,o),
(261,400,q)
);
}
);
width = 1229;
}
);
unicode = 53;
},
{
glyphname = six;
layers = (
{
layerId = "3C56E2CD-C7AD-4ED1-8DD7-75F0C604B46D";
shapes = (
{
closed = 1;
nodes = (
(729,-20,o),
(920,58,o),
(1069,193,o),
(1158,377,o),
(1158,482,qs),
(1158,592,o),
(1073,776,o),
(929,911,o),
(738,986,o),
(631,986,qs),
(629,986,o),
(618,986,o),
(616,986,q),
(927,1447,l),
(591,1447,l),
(153,741,l),
(111,675,o),
(73,549,o),
(73,471,qs),
(73,360,o),
(169,179,o),
(325,50,o),
(524,-20,o),
(627,-20,qs)
);
},
{
closed = 1;
nodes = (
(577,253,o),
(481,286,o),
(405,347,o),
(357,433,o),
(357,485,qs),
(357,536,o),
(398,625,o),
(467,692,o),
(558,730,o),
(609,730,qs),
(662,730,o),
(758,695,o),
(831,631,o),
(874,541,o),
(874,485,qs),
(874,437,o),
(831,353,o),
(761,290,o),
(672,253,o),
(625,253,qs)
);
}
);
width = 1229;
},
{
layerId = "9D1D4149-D6AF-44E4-BA66-2DBC1F9ACF8F";
shapes = (
{
closed = 1;
nodes = (
(721,-20,o),
(913,56,o),
(1058,191,o),
(1144,376,o),
(1144,486,qs),
(1144,594,o),
(1058,773,o),
(913,901,o),
(722,971,o),
(617,971,qs),
(614,971,o),
(591,971,o),
(587,971,q),
(899,1447,l),
(601,1447,l),
(167,734,ls),
(131,674,o),
(89,549,o),
(89,478,qs),
(89,370,o),
(174,188,o),
(318,55,o),
(509,-20,o),
(615,-20,qs)
);
},
{
closed = 1;
nodes = (
(562,222,o),
(463,262,o),
(388,333,o),
(343,429,o),
(343,484,qs),
(343,541,o),
(388,637,o),
(463,707,o),
(562,746,o),
(617,746,qs),
(672,746,o),
(772,706,o),
(847,635,o),
(891,540,o),
(891,484,qs),
(891,427,o),
(846,331,o),
(771,261,o),
(671,222,o),
(617,222,qs)
);
}
);
width = 1229;
},
{
layerId = "D814EF8B-E2E2-4B9A-99BD-8962E8BCF366";
shapes = (
{
closed = 1;
nodes = (
(714,-20,o),
(896,56,o),
(1030,189,o),
(1107,370,o),
(1107,475,qs),
(1107,578,o),
(1029,748,o),
(895,870,o),
(717,937,o),
(617,937,qs),
(594,937,o),
(539,932,o),
(515,927,q),
(831,1447,l),
(620,1447,l),
(193,717,ls),
(158,657,o),
(121,533,o),
(121,462,qs),
(121,362,o),
(198,186,o),
(332,55,o),
(510,-20,o),
(610,-20,qs)
);
},
{
closed = 1;
nodes = (
(553,153,o),
(440,203,o),
(355,288,o),
(306,401,o),
(306,465,qs),
(306,531,o),
(352,645,o),
(435,729,o),
(548,776,o),
(614,776,qs),
(679,776,o),
(792,729,o),
(876,647,o),
(924,536,o),
(924,471,qs),
(924,407,o),
(877,292,o),
(794,205,o),
(682,153,o),
(617,153,qs)
);
}
);
width = 1229;
},
{
layerId = "85042BCA-33BD-4676-BF6E-DA82D0F79E7B";
shapes = (
{
closed = 1;
nodes = (
(707,-20,o),
(877,56,o),
(999,186,o),
(1067,361,o),
(1067,462,qs),
(1067,560,o),
(996,721,o),
(876,836,o),
(711,900,o),
(617,900,qs),
(572,900,o),
(482,889,o),
(436,879,q),
(755,1447,l),
(641,1447,l),
(222,699,ls),
(187,636,o),
(157,517,o),
(157,446,qs),
(157,353,o),
(227,185,o),
(346,57,o),
(510,-20,o),
(604,-20,qs)
);
},
{
closed = 1;
nodes = (
(543,77,o),
(415,136,o),
(319,237,o),
(266,371,o),
(266,444,qs),
(266,522,o),
(315,656,o),
(404,753,o),
(532,811,o),
(611,811,qs),
(687,811,o),
(815,756,o),
(908,661,o),
(962,530,o),
(962,456,qs),
(962,385,o),
(912,249,o),
(820,141,o),
(693,77,o),
(617,77,qs)
);
}
);
width = 1229;
}
);
unicode = 54;
},
{
glyphname = seven;
layers = (
{
layerId = "3C56E2CD-C7AD-4ED1-8DD7-75F0C604B46D";
shapes = (
{
closed = 1;
nodes = (
(191,0,l),
(512,0,l),
(1160,1298,l),
(1160,1447,l),
(89,1447,l),
(89,1181,l),
(806,1181,l)
);
}
);
width = 1229;
},
{
layerId = "9D1D4149-D6AF-44E4-BA66-2DBC1F9ACF8F";
shapes = (
{
closed = 1;
nodes = (
(215,0,l),
(502,0,l),
(1144,1315,l),
(1144,1447,l),
(99,1447,l),
(99,1210,l),
(829,1210,l)
);
}
);
width = 1229;
},
{
layerId = "D814EF8B-E2E2-4B9A-99BD-8962E8BCF366";
shapes = (
{
closed = 1;
nodes = (
(267,0,l),
(478,0,l),
(1108,1352,l),
(1108,1447,l),
(121,1447,l),
(121,1277,l),
(884,1277,l)
);
}
);
width = 1229;
},
{
layerId = "85042BCA-33BD-4676-BF6E-DA82D0F79E7B";
shapes = (
{
closed = 1;
nodes = (
(326,0,l),
(451,0,l),
(1068,1393,l),
(1068,1447,l),
(145,1447,l),
(145,1352,l),
(944,1352,l)
);
}
);
width = 1229;
}
);
unicode = 55;
},
{
glyphname = eight;
layers = (
{
layerId = "3C56E2CD-C7AD-4ED1-8DD7-75F0C604B46D";
shapes = (
{
closed = 1;
nodes = (
(726,-20,o),
(931,46,o),
(1080,165,o),
(1164,328,o),
(1164,424,qs),
(1164,540,o),
(1067,718,o),
(968,782,q),
(1029,841,o),
(1092,987,o),
(1092,1070,qs),
(1092,1153,o),
(1017,1298,o),
(887,1406,o),
(712,1468,o),
(613,1468,qs),
(516,1468,o),
(342,1404,o),
(213,1295,o),
(137,1149,o),
(137,1067,qs),
(137,983,o),
(198,842,o),
(261,782,q),
(165,718,o),
(65,533,o),
(65,421,qs),
(65,327,o),
(147,166,o),
(292,48,o),
(489,-20,o),
(604,-20,qs)
);
},
{
closed = 1;
nodes = (
(574,894,o),
(503,918,o),
(452,963,o),
(424,1025,o),
(424,1062,qs),
(424,1101,o),
(450,1162,o),
(498,1204,o),
(568,1227,o),
(611,1227,qs),
(658,1227,o),
(733,1204,o),
(785,1162,o),
(813,1100,o),
(813,1061,qs),
(813,1023,o),
(785,961,o),
(734,918,o),
(662,894,o),
(617,894,qs)
);
},
{
closed = 1;
nodes = (
(551,229,o),
(454,258,o),
(386,312,o),
(349,388,o),
(349,436,qs),
(349,483,o),
(386,559,o),
(454,613,o),
(551,642,o),
(611,642,qs),
(672,642,o),
(770,613,o),
(839,559,o),
(876,481,o),
(876,433,qs),
(876,386,o),
(839,311,o),
(770,258,o),
(672,229,o),
(611,229,qs)
);
}
);
width = 1229;
},
{
layerId = "9D1D4149-D6AF-44E4-BA66-2DBC1F9ACF8F";
shapes = (
{
closed = 1;
nodes = (
(733,-20,o),
(930,43,o),
(1071,159,o),
(1149,320,o),
(1149,418,qs),
(1149,536,o),
(1042,722,o),
(939,782,q),
(1006,839,o),
(1076,989,o),
(1076,1076,qs),
(1076,1160,o),
(1006,1304,o),
(882,1409,o),
(713,1468,o),
(614,1468,qs),
(514,1468,o),
(345,1409,o),
(222,1304,o),
(153,1160,o),
(153,1074,qs),
(153,986,o),
(222,839,o),
(290,782,q),
(187,722,o),
(80,534,o),
(80,416,qs),
(80,320,o),
(158,159,o),
(299,44,o),
(496,-20,o),
(614,-20,qs)
);
},
{
closed = 1;
nodes = (
(570,879,o),
(493,906,o),
(439,956,o),
(409,1026,o),
(409,1069,qs),
(409,1111,o),
(438,1178,o),
(493,1226,o),
(570,1252,o),
(618,1252,qs),
(667,1252,o),
(745,1226,o),
(799,1178,o),
(828,1109,o),
(828,1065,qs),
(828,1023,o),
(798,954,o),
(744,905,o),
(666,879,o),
(618,879,qs)
);
},
{
closed = 1;
nodes = (
(548,202,o),
(445,234,o),
(373,294,o),
(334,378,o),
(334,430,qs),
(334,483,o),
(373,567,o),
(445,626,o),
(548,658,o),
(612,658,qs),
(676,658,o),
(779,626,o),
(852,566,o),
(891,481,o),
(891,428,qs),
(891,376,o),
(852,292,o),
(779,234,o),
(676,202,o),
(612,202,qs)
);
}
);
width = 1229;
},
{
layerId = "D814EF8B-E2E2-4B9A-99BD-8962E8BCF366";
shapes = (
{
closed = 1;
nodes = (
(727,-20,o),
(911,40,o),
(1043,151,o),
(1115,306,o),
(1115,401,qs),
(1115,533,o),
(993,724,o),
(874,781,q),
(956,834,o),
(1042,992,o),
(1042,1090,qs),
(1042,1172,o),
(978,1311,o),
(864,1411,o),
(708,1468,o),
(615,1468,qs),
(521,1468,o),
(364,1412,o),
(250,1312,o),
(186,1174,o),
(186,1092,qs),
(186,992,o),
(271,835,o),
(356,781,q),
(235,722,o),
(113,533,o),
(113,403,qs),
(113,308,o),
(185,152,o),
(317,41,o),
(502,-20,o),
(614,-20,qs)
);
},
{
closed = 1;
nodes = (
(564,845,o),
(473,879,o),
(409,942,o),
(374,1030,o),
(374,1085,qs),
(374,1134,o),
(410,1217,o),
(475,1277,o),
(564,1310,o),
(618,1310,qs),
(673,1310,o),
(763,1276,o),
(828,1214,o),
(863,1127,o),
(863,1075,qs),
(863,1024,o),
(827,939,o),
(763,879,o),
(674,845,o),
(620,845,qs)
);
},
{
closed = 1;
nodes = (
(542,138,o),
(426,178,o),
(343,252,o),
(298,354,o),
(298,417,qs),
(298,479,o),
(344,581,o),
(426,654,o),
(543,694,o),
(613,694,qs),
(682,694,o),
(797,654,o),
(880,580,o),
(925,478,o),
(925,416,qs),
(925,354,o),
(880,251,o),
(798,178,o),
(683,138,o),
(613,138,qs)
);
}
);
width = 1229;
},
{
layerId = "85042BCA-33BD-4676-BF6E-DA82D0F79E7B";
shapes = (
{
closed = 1;
nodes = (
(718,-20,o),
(890,37,o),
(1010,142,o),
(1076,291,o),
(1076,383,qs),
(1076,529,o),
(939,726,o),
(802,780,q),
(901,828,o),
(1003,995,o),
(1003,1107,qs),
(1003,1187,o),
(947,1319,o),
(845,1416,o),
(702,1468,o),
(617,1468,qs),
(530,1468,o),
(385,1417,o),
(282,1323,o),
(224,1192,o),
(224,1113,qs),
(224,1000,o),
(327,831,o),
(428,780,q),
(288,722,o),
(151,530,o),
(151,390,qs),
(151,296,o),
(217,145,o),
(337,38,o),
(508,-20,o),
(614,-20,qs)
);
},
{
closed = 1;
nodes = (
(557,806,o),
(451,848,o),
(376,926,o),
(335,1036,o),
(335,1103,qs),
(335,1160,o),
(379,1259,o),
(454,1331,o),
(558,1373,o),
(618,1373,qs),
(679,1373,o),
(783,1330,o),
(858,1253,o),
(901,1148,o),
(901,1086,qs),
(901,1026,o),
(859,923,o),
(784,848,o),
(682,806,o),
(622,806,qs)
);
},
{
closed = 1;
nodes = (
(535,68,o),
(404,117,o),
(310,204,o),
(258,329,o),
(258,402,qs),
(258,475,o),
(311,596,o),
(407,686,o),
(537,735,o),
(615,735,qs),
(690,735,o),
(817,684,o),
(910,597,o),
(963,475,o),
(963,403,qs),
(963,330,o),
(910,208,o),
(818,118,o),
(691,68,o),
(615,68,qs)
);
}
);
width = 1229;
}
);
unicode = 56;
},
{
glyphname = nine;
layers = (
{
layerId = "3C56E2CD-C7AD-4ED1-8DD7-75F0C604B46D";
shapes = (
{
closed = 1;
nodes = (
(301,0,l),
(638,0,l),
(1074,706,ls),
(1096,741,o),
(1127,805,o),
(1146,871,o),
(1155,941,o),
(1155,983,qs),
(1155,1087,o),
(1074,1264,o),
(928,1394,o),
(724,1468,o),
(602,1468,qs),
(480,1468,o),
(283,1391,o),
(145,1258,o),
(70,1077,o),
(70,973,qs),
(70,861,o),
(133,679,o),
(248,551,o),
(409,482,o),
(508,482,qs),
(553,482,o),
(612,487,o),
(639,495,q)
);
},
{
closed = 1;
nodes = (
(565,716,o),
(469,751,o),
(397,816,o),
(354,907,o),
(354,963,qs),
(354,1013,o),
(391,1098,o),
(458,1160,o),
(549,1194,o),
(603,1194,qs),
(665,1194,o),
(763,1162,o),
(833,1102,o),
(870,1016,o),
(870,962,qs),
(870,911,o),
(830,821,o),
(761,754,o),
(669,716,o),
(618,716,qs)
);
}
);
width = 1229;
},
{
layerId = "9D1D4149-D6AF-44E4-BA66-2DBC1F9ACF8F";
shapes = (
{
closed = 1;
nodes = (
(330,0,l),
(628,0,l),
(1061,713,ls),
(1079,742,o),
(1107,803,o),
(1128,866,o),
(1139,933,o),
(1139,969,qs),
(1139,1077,o),
(1054,1260,o),
(910,1393,o),
(719,1468,o),
(612,1468,qs),
(506,1468,o),
(314,1392,o),
(169,1256,o),
(84,1071,o),
(84,961,qs),
(84,853,o),
(170,675,o),
(315,547,o),
(505,476,o),
(610,476,qs),
(615,476,o),
(639,476,o),
(642,476,q)
);
},
{
closed = 1;
nodes = (
(555,700,o),
(457,741,o),
(382,811,o),
(338,908,o),
(338,963,qs),
(338,1020,o),
(382,1116,o),
(457,1186,o),
(556,1225,o),
(610,1225,qs),
(666,1225,o),
(765,1186,o),
(841,1116,o),
(885,1020,o),
(885,963,qs),
(885,906,o),
(840,810,o),
(764,739,o),
(665,700,o),
(610,700,qs)
);
}
);
width = 1229;
},
{
layerId = "D814EF8B-E2E2-4B9A-99BD-8962E8BCF366";
shapes = (
{
closed = 1;
nodes = (
(394,0,l),
(604,0,l),
(1032,730,ls),
(1049,760,o),
(1075,820,o),
(1093,883,o),
(1102,949,o),
(1102,985,qs),
(1102,1086,o),
(1024,1262,o),
(891,1393,o),
(712,1468,o),
(611,1468,qs),
(507,1468,o),
(326,1392,o),
(193,1258,o),
(116,1077,o),
(116,973,qs),
(116,870,o),
(194,699,o),
(328,577,o),
(507,510,o),
(609,510,qs),
(633,510,o),
(686,515,o),
(709,520,q)
);
},
{
closed = 1;
nodes = (
(545,670,o),
(432,717,o),
(348,800,o),
(299,912,o),
(299,976,qs),
(299,1040,o),
(346,1155,o),
(429,1242,o),
(541,1294,o),
(606,1294,qs),
(671,1294,o),
(784,1245,o),
(869,1160,o),
(918,1046,o),
(918,982,qs),
(918,916,o),
(871,802,o),
(789,718,o),
(675,670,o),
(609,670,qs)
);
}
);
width = 1229;
},
{
layerId = "85042BCA-33BD-4676-BF6E-DA82D0F79E7B";
shapes = (
{
closed = 1;
nodes = (
(466,0,l),
(579,0,l),
(999,748,ls),
(1016,780,o),
(1041,840,o),
(1056,903,o),
(1062,967,o),
(1062,1002,qs),
(1062,1095,o),
(991,1265,o),
(869,1393,o),
(705,1468,o),
(610,1468,qs),
(507,1468,o),
(340,1391,o),
(219,1260,o),
(152,1085,o),
(152,985,qs),
(152,888,o),
(221,726,o),
(343,612,o),
(510,548,o),
(608,548,qs),
(653,548,o),
(740,559,o),
(784,570,q)
);
},
{
closed = 1;
nodes = (
(533,637,o),
(405,692,o),
(311,787,o),
(257,915,o),
(257,990,qs),
(257,1061,o),
(307,1199,o),
(398,1307,o),
(525,1371,o),
(602,1371,qs),
(676,1371,o),
(805,1310,o),
(899,1208,o),
(954,1076,o),
(954,1003,qs),
(954,927,o),
(906,793,o),
(815,694,o),
(687,637,o),
(608,637,qs)
);
}
);
width = 1229;
}
);
unicode = 57;
},
{
glyphname = colon;
layers = (
{
layerId = "3C56E2CD-C7AD-4ED1-8DD7-75F0C604B46D";
shapes = (
{
closed = 1;
nodes = (
(495,684,l),
(495,977,l),
(200,977,l),
(200,684,l)
);
},
{
closed = 1;
nodes = (
(495,0,l),
(495,293,l),
(200,293,l),
(200,0,l)
);
}
);
width = 693;
},
{
layerId = "9D1D4149-D6AF-44E4-BA66-2DBC1F9ACF8F";
shapes = (
{
closed = 1;
nodes = (
(443,707,l),
(443,977,l),
(171,977,l),
(171,707,l)
);
},
{
closed = 1;
nodes = (
(443,0,l),
(443,270,l),
(171,270,l),
(171,0,l)
);
}
);
width = 614;
},
{
layerId = "D814EF8B-E2E2-4B9A-99BD-8962E8BCF366";
shapes = (
{
closed = 1;
nodes = (
(438,758,l),
(438,976,l),
(218,976,l),
(218,758,l)
);
},
{
closed = 1;
nodes = (
(438,0,l),
(438,219,l),
(218,219,l),
(218,0,l)
);
}
);
width = 614;
},
{
layerId = "85042BCA-33BD-4676-BF6E-DA82D0F79E7B";
shapes = (
{
closed = 1;
nodes = (
(434,814,l),
(434,976,l),
(269,976,l),
(269,814,l)
);
},
{
closed = 1;
nodes = (
(434,0,l),
(434,162,l),
(269,162,l),
(269,0,l)
);
}
);
width = 614;
}
);
unicode = 58;
},
{
glyphname = semicolon;
layers = (
{
layerId = "3C56E2CD-C7AD-4ED1-8DD7-75F0C604B46D";
shapes = (
{
closed = 1;
nodes = (
(490,684,l),
(490,977,l),
(196,977,l),
(196,684,l)
);
},
{
closed = 1;
nodes = (
(293,-304,l),
(557,270,l),
(242,270,l),
(104,-304,l)
);
}
);
width = 681;
},
{
layerId = "9D1D4149-D6AF-44E4-BA66-2DBC1F9ACF8F";
shapes = (
{
closed = 1;
nodes = (
(451,707,l),
(451,977,l),
(178,977,l),
(178,707,l)
);
},
{
closed = 1;
nodes = (
(245,-311,l),
(506,270,l),
(218,270,l),
(79,-311,l)
);
}
);
width = 614;
},
{
layerId = "D814EF8B-E2E2-4B9A-99BD-8962E8BCF366";
shapes = (
{
closed = 1;
nodes = (
(450,758,l),
(450,976,l),
(229,976,l),
(229,758,l)
);
},
{
closed = 1;
nodes = (
(227,-327,l),
(480,268,l),
(256,268,l),
(112,-327,l)
);
}
);
width = 614;
},
{
layerId = "85042BCA-33BD-4676-BF6E-DA82D0F79E7B";
shapes = (
{
closed = 1;
nodes = (
(450,814,l),
(450,976,l),
(285,976,l),
(285,814,l)
);
},
{
closed = 1;
nodes = (
(206,-345,l),
(452,267,l),
(298,267,l),
(148,-345,l)
);
}
);
width = 614;
}
);
unicode = 59;
},
{
glyphname = less;
layers = (
{
layerId = "3C56E2CD-C7AD-4ED1-8DD7-75F0C604B46D";
shapes = (
{
closed = 1;
nodes = (
(1064,150,l),
(1181,351,l),
(478,690,l),
(1181,1029,l),
(1064,1230,l),
(28,690,l)
);
}
);
width = 1275;
},
{
layerId = "9D1D4149-D6AF-44E4-BA66-2DBC1F9ACF8F";
shapes = (
{
closed = 1;
nodes = (
(1055,156,l),
(1160,338,l),
(451,690,l),
(1160,1042,l),
(1055,1225,l),
(46,690,l)
);
}
);
width = 1267;
},
{
layerId = "D814EF8B-E2E2-4B9A-99BD-8962E8BCF366";
shapes = (
{
closed = 1;
nodes = (
(1032,169,l),
(1112,306,l),
(384,690,l),
(1112,1073,l),
(1032,1211,l),
(86,690,l)
);
}
);
width = 1245;
},
{
layerId = "85042BCA-33BD-4676-BF6E-DA82D0F79E7B";
shapes = (
{
closed = 1;
nodes = (
(1014,183,l),
(1066,272,l),
(318,690,l),
(1066,1108,l),
(1014,1196,l),
(137,690,l)
);
}
);
width = 1233;
}
);
unicode = 60;
},
{
glyphname = equal;
layers = (
{
layerId = "3C56E2CD-C7AD-4ED1-8DD7-75F0C604B46D";
shapes = (
{
closed = 1;
nodes = (
(1086,763,l),
(1086,996,l),
(214,996,l),
(214,763,l)
);
},
{
closed = 1;
nodes = (
(1086,379,l),
(1086,613,l),
(214,613,l),
(214,379,l)
);
}
);
width = 1299;
},
{
layerId = "9D1D4149-D6AF-44E4-BA66-2DBC1F9ACF8F";
shapes = (
{
closed = 1;
nodes = (
(1074,770,l),
(1074,981,l),
(224,981,l),
(224,770,l)
);
},
{
closed = 1;
nodes = (
(1074,394,l),
(1074,606,l),
(224,606,l),
(224,394,l)
);
}
);
width = 1298;
},
{
layerId = "D814EF8B-E2E2-4B9A-99BD-8962E8BCF366";
shapes = (
{
closed = 1;
nodes = (
(1046,787,l),
(1046,947,l),
(247,947,l),
(247,787,l)
);
},
{
closed = 1;
nodes = (
(1046,429,l),
(1046,588,l),
(247,588,l),
(247,429,l)
);
}
);
width = 1295;
},
{
layerId = "85042BCA-33BD-4676-BF6E-DA82D0F79E7B";
shapes = (
{
closed = 1;
nodes = (
(1018,805,l),
(1018,910,l),
(276,910,l),
(276,805,l)
);
},
{
closed = 1;
nodes = (
(1018,467,l),
(1018,569,l),
(276,569,l),
(276,467,l)
);
}
);
width = 1294;
}
);
unicode = 61;
},
{
glyphname = greater;
layers = (
{
layerId = "3C56E2CD-C7AD-4ED1-8DD7-75F0C604B46D";
shapes = (
{
closed = 1;
nodes = (
(211,150,l),
(1247,690,l),
(211,1230,l),
(94,1029,l),
(797,690,l),
(94,351,l)
);
}
);
width = 1275;
},
{
layerId = "9D1D4149-D6AF-44E4-BA66-2DBC1F9ACF8F";
shapes = (
{
closed = 1;
nodes = (
(212,156,l),
(1221,690,l),
(212,1225,l),
(106,1042,l),
(816,690,l),
(106,338,l)
);
}
);
width = 1267;
},
{
layerId = "D814EF8B-E2E2-4B9A-99BD-8962E8BCF366";
shapes = (
{
closed = 1;
nodes = (
(211,169,l),
(1158,690,l),
(211,1211,l),
(132,1073,l),
(860,690,l),
(132,306,l)
);
}
);
width = 1245;
},
{
layerId = "85042BCA-33BD-4676-BF6E-DA82D0F79E7B";
shapes = (
{
closed = 1;
nodes = (
(219,183,l),
(1095,690,l),
(219,1196,l),
(168,1108,l),
(916,690,l),
(168,272,l)
);
}
);
width = 1233;
}
);
unicode = 62;
},
{
glyphname = question;
layers = (
{
layerId = "3C56E2CD-C7AD-4ED1-8DD7-75F0C604B46D";
shapes = (
{
closed = 1;
nodes = (
(615,450,l),
(615,536,ls),
(615,561,o),
(627,600,o),
(655,634,o),
(704,666,o),
(741,685,qs),
(797,713,o),
(881,789,o),
(938,884,o),
(966,998,o),
(966,1064,qs),
(966,1156,o),
(898,1305,o),
(773,1411,o),
(596,1468,o),
(488,1468,qs),
(377,1468,o),
(207,1401,o),
(91,1276,o),
(31,1100,o),
(31,992,q),
(273,992,l),
(273,1055,o),
(298,1148,o),
(352,1208,o),
(437,1238,o),
(497,1238,qs),
(542,1238,o),
(627,1220,o),
(691,1178,o),
(730,1109,o),
(730,1059,qs),
(730,1025,o),
(711,974,o),
(677,935,o),
(630,903,o),
(602,887,qs),
(542,853,o),
(458,785,o),
(405,709,o),
(381,623,o),
(381,571,qs),
(381,450,l)
);
},
{
closed = 1;
nodes = (
(649,0,l),
(649,293,l),
(353,293,l),
(353,0,l)
);
}
);
width = 1014;
},
{
layerId = "9D1D4149-D6AF-44E4-BA66-2DBC1F9ACF8F";
shapes = (
{
closed = 1;
nodes = (
(608,434,l),
(608,581,ls),
(608,598,o),
(621,627,o),
(648,654,o),
(692,682,o),
(722,698,qs),
(780,729,o),
(867,797,o),
(926,881,o),
(956,989,o),
(956,1059,qs),
(956,1158,o),
(883,1311,o),
(757,1415,o),
(588,1468,o),
(493,1468,qs),
(394,1468,o),
(230,1408,o),
(111,1293,o),
(46,1124,o),
(46,1015,q),
(266,1015,l),
(266,1077,o),
(295,1169,o),
(354,1230,o),
(442,1261,o),
(501,1261,qs),
(551,1261,o),
(637,1240,o),
(701,1194,o),
(738,1118,o),
(738,1063,qs),
(738,1023,o),
(715,965,o),
(674,921,o),
(620,887,o),
(589,870,qs),
(534,840,o),
(460,782,o),
(415,716,o),
(396,636,o),
(396,583,qs),
(396,434,l)
);
},
{
closed = 1;
nodes = (
(642,0,l),
(642,270,l),
(369,270,l),
(369,0,l)
);
}
);
width = 1021;
},
{
layerId = "D814EF8B-E2E2-4B9A-99BD-8962E8BCF366";
shapes = (
{
closed = 1;
nodes = (
(593,401,l),
(593,606,ls),
(593,632,o),
(611,673,o),
(643,706,o),
(689,736,o),
(717,751,qs),
(763,776,o),
(845,836,o),
(906,915,o),
(942,1017,o),
(942,1084,qs),
(942,1178,o),
(872,1322,o),
(752,1419,o),
(593,1468,o),
(505,1468,qs),
(418,1468,o),
(265,1413,o),
(149,1309,o),
(82,1160,o),
(82,1066,q),
(251,1066,l),
(251,1125,o),
(291,1217,o),
(361,1280,o),
(457,1312,o),
(513,1312,qs),
(567,1312,o),
(663,1286,o),
(734,1232,o),
(776,1147,o),
(776,1088,qs),
(776,1042,o),
(751,975,o),
(709,925,o),
(653,888,o),
(623,871,qs),
(580,847,o),
(510,797,o),
(460,735,o),
(433,659,o),
(433,608,qs),
(433,401,l)
);
},
{
closed = 1;
nodes = (
(627,0,l),
(627,219,l),
(406,219,l),
(406,0,l)
);
}
);
width = 1044;
},
{
layerId = "85042BCA-33BD-4676-BF6E-DA82D0F79E7B";
shapes = (
{
closed = 1;
nodes = (
(572,365,l),
(572,635,ls),
(572,671,o),
(595,724,o),
(633,765,o),
(680,795,o),
(705,810,qs),
(738,829,o),
(814,880,o),
(878,953,o),
(921,1049,o),
(921,1113,qs),
(921,1201,o),
(854,1334,o),
(742,1422,o),
(593,1468,o),
(513,1468,qs),
(439,1468,o),
(297,1418,o),
(185,1327,o),
(117,1201,o),
(117,1123,q),
(229,1123,l),
(229,1179,o),
(281,1271,o),
(364,1334,o),
(468,1369,o),
(521,1369,qs),
(579,1369,o),
(686,1337,o),
(766,1274,o),
(812,1179,o),
(812,1115,qs),
(812,1062,o),
(786,986,o),
(742,930,o),
(686,888,o),
(656,871,qs),
(627,855,o),
(561,812,o),
(505,758,o),
(469,685,o),
(469,637,qs),
(469,365,l)
);
},
{
closed = 1;
nodes = (
(605,0,l),
(605,162,l),
(441,162,l),
(441,0,l)
);
}
);
width = 1056;
}
);
unicode = 63;
},
{
glyphname = at;
layers = (
{
layerId = "3C56E2CD-C7AD-4ED1-8DD7-75F0C604B46D";
shapes = (
{
closed = 1;
nodes = (
(86,397,o),
(155,158,o),
(279,-40,o),
(450,-194,o),
(657,-301,o),
(891,-356,o),
(1015,-356,qs),
(1104,-356,o),
(1255,-330,o),
(1336,-302,q),
(1263,-100,l),
(1200,-121,o),
(1071,-140,o),
(1004,-140,qs),
(862,-140,o),
(605,-41,o),
(411,138,o),
(297,388,o),
(297,538,qs),
(297,696,o),
(408,962,o),
(605,1154,o),
(875,1262,o),
(1033,1262,qs),
(1196,1262,o),
(1463,1161,o),
(1652,976,o),
(1755,717,o),
(1755,558,qs),
(1755,494,o),
(1729,344,o),
(1666,216,o),
(1559,131,o),
(1479,131,qs),
(1451,131,o),
(1416,145,o),
(1398,173,o),
(1392,213,o),
(1392,239,qs),
(1392,280,o),
(1409,403,o),
(1435,541,o),
(1466,682,o),
(1480,743,qs),
(1489,782,ls),
(1496,812,o),
(1512,878,o),
(1528,946,o),
(1542,1013,o),
(1547,1043,q),
(1331,1043,l),
(1315,973,l),
(1270,1034,o),
(1139,1094,o),
(1052,1094,qs),
(972,1094,o),
(834,1037,o),
(722,940,o),
(636,811,o),
(578,667,o),
(548,516,o),
(548,445,qs),
(548,369,o),
(591,222,o),
(678,107,o),
(807,37,o),
(892,37,qs),
(978,37,o),
(1127,90,o),
(1191,144,q),
(1203,87,o),
(1252,1,o),
(1325,-56,o),
(1423,-85,o),
(1483,-85,qs),
(1566,-85,o),
(1701,-30,o),
(1808,64,o),
(1887,190,o),
(1939,331,o),
(1964,482,o),
(1964,553,qs),
(1964,677,o),
(1903,909,o),
(1789,1112,o),
(1625,1280,o),
(1417,1401,o),
(1170,1468,o),
(1031,1468,qs),
(898,1468,o),
(655,1405,o),
(445,1289,o),
(273,1123,o),
(152,915,o),
(86,670,o),
(86,534,qs)
);
},
{
closed = 1;
nodes = (
(831,251,o),
(751,347,o),
(751,445,qs),
(751,520,o),
(795,674,o),
(879,800,o),
(1003,880,o),
(1082,880,qs),
(1168,880,o),
(1244,782,o),
(1244,689,qs),
(1244,618,o),
(1202,464,o),
(1119,335,o),
(996,251,o),
(914,251,qs)
);
}
);
width = 2047;
},
{
layerId = "9D1D4149-D6AF-44E4-BA66-2DBC1F9ACF8F";
shapes = (
{
closed = 1;
nodes = (
(102,404,o),
(165,172,o),
(281,-25,o),
(445,-184,o),
(650,-296,o),
(890,-356,o),
(1023,-356,qs),
(1111,-356,o),
(1269,-329,o),
(1342,-302,q),
(1273,-116,l),
(1213,-136,o),
(1091,-156,o),
(1025,-156,qs),
(865,-156,o),
(598,-54,o),
(405,130,o),
(298,384,o),
(298,537,qs),
(298,698,o),
(408,969,o),
(606,1165,o),
(879,1275,o),
(1042,1275,qs),
(1199,1275,o),
(1465,1167,o),
(1660,977,o),
(1770,715,o),
(1770,562,qs),
(1770,466,o),
(1728,306,o),
(1652,190,o),
(1546,126,o),
(1483,126,qs),
(1455,126,o),
(1418,138,o),
(1396,165,o),
(1386,209,o),
(1386,242,qs),
(1386,268,o),
(1389,320,o),
(1396,373,o),
(1405,427,o),
(1411,455,qs),
(1480,762,ls),
(1486,791,o),
(1503,865,o),
(1520,941,o),
(1536,1011,o),
(1542,1036,q),
(1341,1036,l),
(1321,948,l),
(1282,1015,o),
(1145,1086,o),
(1055,1086,qs),
(988,1086,o),
(862,1040,o),
(752,956,o),
(660,840,o),
(594,700,o),
(558,540,o),
(558,455,qs),
(558,361,o),
(607,209,o),
(697,102,o),
(824,44,o),
(902,44,qs),
(983,44,o),
(1138,106,o),
(1202,164,q),
(1207,106,o),
(1250,15,o),
(1324,-46,o),
(1425,-78,o),
(1489,-78,qs),
(1558,-78,o),
(1682,-35,o),
(1788,45,o),
(1873,158,o),
(1933,300,o),
(1965,466,o),
(1965,558,qs),
(1965,689,o),
(1902,925,o),
(1785,1126,o),
(1619,1289,o),
(1413,1404,o),
(1173,1466,o),
(1040,1466,qs),
(904,1466,o),
(660,1403,o),
(451,1285,o),
(283,1118,o),
(166,910,o),
(102,667,o),
(102,532,qs)
);
},
{
closed = 1;
nodes = (
(832,244,o),
(746,350,o),
(746,457,qs),
(746,552,o),
(800,721,o),
(892,847,o),
(1015,921,o),
(1084,921,qs),
(1170,921,o),
(1254,817,o),
(1254,712,qs),
(1254,616,o),
(1201,445,o),
(1110,318,o),
(988,244,o),
(919,244,qs)
);
}
);
width = 2063;
},
{
layerId = "D814EF8B-E2E2-4B9A-99BD-8962E8BCF366";
shapes = (
{
closed = 1;
nodes = (
(145,399,o),
(206,167,o),
(319,-30,o),
(480,-187,o),
(681,-298,o),
(917,-357,o),
(1049,-357,qs),
(1134,-357,o),
(1289,-330,o),
(1361,-304,q),
(1303,-151,l),
(1244,-171,o),
(1118,-191,o),
(1051,-191,qs),
(885,-191,o),
(611,-85,o),
(414,106,o),
(305,372,o),
(305,532,qs),
(305,703,o),
(418,988,o),
(620,1195,o),
(901,1310,o),
(1069,1310,qs),
(1230,1310,o),
(1503,1198,o),
(1702,1000,o),
(1814,727,o),
(1814,565,qs),
(1814,460,o),
(1770,288,o),
(1689,165,o),
(1575,98,o),
(1506,98,qs),
(1475,98,o),
(1429,117,o),
(1398,154,o),
(1382,209,o),
(1382,246,qs),
(1382,274,o),
(1386,332,o),
(1394,393,o),
(1406,458,o),
(1414,494,qs),
(1468,736,ls),
(1477,777,o),
(1496,856,o),
(1513,929,o),
(1529,994,o),
(1535,1019,q),
(1368,1019,l),
(1348,922,l),
(1313,994,o),
(1169,1069,o),
(1068,1069,qs),
(1001,1069,o),
(876,1024,o),
(766,942,o),
(675,828,o),
(610,690,o),
(574,533,o),
(574,449,qs),
(574,360,o),
(621,217,o),
(707,116,o),
(830,61,o),
(905,61,qs),
(1002,61,o),
(1170,137,o),
(1235,210,q),
(1231,149,o),
(1268,49,o),
(1340,-22,o),
(1446,-61,o),
(1511,-61,qs),
(1579,-61,o),
(1700,-19,o),
(1803,59,o),
(1886,171,o),
(1943,310,o),
(1974,476,o),
(1974,568,qs),
(1974,698,o),
(1912,931,o),
(1798,1131,o),
(1636,1292,o),
(1435,1405,o),
(1199,1466,o),
(1068,1466,qs),
(935,1466,o),
(694,1402,o),
(489,1285,o),
(324,1117,o),
(208,908,o),
(145,664,o),
(145,528,qs)
);
},
{
closed = 1;
nodes = (
(837,226,o),
(742,341,o),
(742,456,qs),
(742,554,o),
(798,727,o),
(895,857,o),
(1024,933,o),
(1096,933,qs),
(1190,933,o),
(1285,817,o),
(1285,705,qs),
(1285,607,o),
(1229,433,o),
(1134,302,o),
(1006,226,o),
(934,226,qs)
);
}
);
width = 2114;
},
{
layerId = "85042BCA-33BD-4676-BF6E-DA82D0F79E7B";
shapes = (
{
closed = 1;
nodes = (
(177,393,o),
(235,163,o),
(345,-33,o),
(503,-190,o),
(699,-298,o),
(932,-357,o),
(1063,-357,qs),
(1145,-357,o),
(1295,-332,o),
(1367,-306,q),
(1321,-190,l),
(1264,-210,o),
(1135,-230,o),
(1065,-230,qs),
(893,-230,o),
(610,-120,o),
(407,79,o),
(296,359,o),
(296,528,qs),
(296,708,o),
(412,1011,o),
(622,1228,o),
(910,1349,o),
(1084,1349,qs),
(1251,1349,o),
(1530,1233,o),
(1734,1026,o),
(1847,739,o),
(1847,570,qs),
(1847,456,o),
(1800,270,o),
(1713,140,o),
(1590,68,o),
(1515,68,qs),
(1481,68,o),
(1425,95,o),
(1385,142,o),
(1363,211,o),
(1363,251,qs),
(1363,282,o),
(1367,346,o),
(1376,416,o),
(1391,493,o),
(1401,536,qs),
(1440,708,ls),
(1452,761,o),
(1472,846,o),
(1489,917,o),
(1504,975,o),
(1511,1001,q),
(1383,1001,l),
(1363,892,l),
(1333,969,o),
(1181,1051,o),
(1067,1051,qs),
(1001,1051,o),
(876,1006,o),
(768,926,o),
(677,815,o),
(612,678,o),
(576,524,o),
(576,442,qs),
(576,359,o),
(621,225,o),
(704,130,o),
(821,79,o),
(893,79,qs),
(1007,79,o),
(1190,170,o),
(1256,261,q),
(1243,199,o),
(1271,88,o),
(1343,5,o),
(1452,-43,o),
(1520,-43,qs),
(1587,-43,o),
(1706,-3,o),
(1805,74,o),
(1883,183,o),
(1939,322,o),
(1968,485,o),
(1968,579,qs),
(1968,707,o),
(1909,939,o),
(1798,1136,o),
(1639,1295,o),
(1443,1407,o),
(1213,1466,o),
(1085,1466,qs),
(953,1466,o),
(717,1402,o),
(515,1284,o),
(353,1116,o),
(238,907,o),
(177,660,o),
(177,524,qs)
);
},
{
closed = 1;
nodes = (
(828,205,o),
(721,331,o),
(721,456,qs),
(721,556,o),
(780,735,o),
(883,868,o),
(1018,947,o),
(1095,947,qs),
(1198,947,o),
(1305,819,o),
(1305,696,qs),
(1305,597,o),
(1246,418,o),
(1145,284,o),
(1011,205,o),
(934,205,qs)
);
}
);
width = 2140;
}
);
unicode = 64;
},
{
glyphname = A;
layers = (
{
layerId = "3C56E2CD-C7AD-4ED1-8DD7-75F0C604B46D";
shapes = (
{
closed = 1;
nodes = (
(1391,0,l),
(803,1448,l),
(587,1448,l),
(-4,0,l),
(312,0,l),
(426,314,l),
(966,314,l),
(1077,0,l)
);
},
{
closed = 1;
nodes = (
(866,559,l),
(524,559,l),
(696,1021,l)
);
}
);
width = 1388;
},
{
layerId = "9D1D4149-D6AF-44E4-BA66-2DBC1F9ACF8F";
shapes = (
{
closed = 1;
nodes = (
(1363,0,l),
(786,1448,l),
(592,1448,l),
(12,0,l),
(296,0,l),
(409,314,l),
(971,314,l),
(1082,0,l)
);
},
{
closed = 1;
nodes = (
(883,537,l),
(497,537,l),
(690,1066,l)
);
}
);
width = 1376;
},
{
layerId = "D814EF8B-E2E2-4B9A-99BD-8962E8BCF366";
shapes = (
{
closed = 1;
nodes = (
(1296,0,l),
(745,1448,l),
(600,1448,l),
(45,0,l),
(253,0,l),
(365,314,l),
(980,314,l),
(1091,0,l)
);
},
{
closed = 1;
nodes = (
(916,484,l),
(429,484,l),
(675,1168,l)
);
}
);
width = 1342;
},
{
layerId = "85042BCA-33BD-4676-BF6E-DA82D0F79E7B";
shapes = (
{
closed = 1;
nodes = (
(1233,0,l),
(711,1448,l),
(620,1448,l),
(93,0,l),
(217,0,l),
(328,314,l),
(1001,314,l),
(1112,0,l)
);
},
{
closed = 1;
nodes = (
(963,426,l),
(365,426,l),
(668,1281,l)
);
}
);
width = 1326;
}
);
unicode = 65;
},
{
glyphname = B;
layers = (
{
layerId = "3C56E2CD-C7AD-4ED1-8DD7-75F0C604B46D";
shapes = (
{
closed = 1;
nodes = (
(177,0,l),
(778,0,ls),
(886,0,o),
(1058,61,o),
(1179,174,o),
(1244,336,o),
(1244,437,qs),
(1244,487,o),
(1202,601,o),
(1133,703,o),
(1042,776,o),
(994,784,q),
(993,766,l),
(1033,779,o),
(1099,839,o),
(1146,917,o),
(1172,1006,o),
(1172,1047,qs),
(1172,1148,o),
(1097,1298,o),
(969,1398,o),
(802,1448,o),
(710,1448,qs),
(177,1448,l)
);
},
{
closed = 1;
nodes = (
(467,881,l),
(467,1186,l),
(715,1186,ls),
(750,1186,o),
(820,1169,o),
(876,1132,o),
(912,1074,o),
(912,1034,qs),
(912,991,o),
(887,932,o),
(842,896,o),
(780,881,o),
(742,881,qs)
);
},
{
closed = 1;
nodes = (
(467,279,l),
(467,632,l),
(759,632,ls),
(794,632,o),
(865,609,o),
(922,565,o),
(958,504,o),
(958,465,qs),
(958,367,o),
(857,279,o),
(773,279,qs)
);
}
);
width = 1315;
},
{
layerId = "9D1D4149-D6AF-44E4-BA66-2DBC1F9ACF8F";
shapes = (
{
closed = 1;
nodes = (
(186,0,l),
(751,0,ls),
(855,0,o),
(1028,62,o),
(1153,173,o),
(1223,328,o),
(1223,420,qs),
(1223,487,o),
(1187,604,o),
(1120,698,o),
(1023,766,o),
(962,784,q),
(962,761,l),
(1004,778,o),
(1074,837,o),
(1124,915,o),
(1151,1008,o),
(1151,1057,qs),
(1151,1147,o),
(1086,1292,o),
(966,1393,o),
(795,1448,o),
(688,1448,qs),
(186,1448,l)
);
},
{
closed = 1;
nodes = (
(446,864,l),
(446,1213,l),
(692,1213,ls),
(743,1213,o),
(824,1189,o),
(881,1144,o),
(912,1081,o),
(912,1042,qs),
(912,997,o),
(887,931,o),
(838,886,o),
(763,864,o),
(713,864,qs)
);
},
{
closed = 1;
nodes = (
(446,248,l),
(446,640,l),
(744,640,ls),
(792,640,o),
(874,612,o),
(934,561,o),
(967,491,o),
(967,449,qs),
(967,350,o),
(859,248,o),
(755,248,qs)
);
}
);
width = 1305;
},
{
layerId = "D814EF8B-E2E2-4B9A-99BD-8962E8BCF366";
shapes = (
{
closed = 1;
nodes = (
(205,0,l),
(708,0,ls),
(815,0,o),
(986,56,o),
(1107,159,o),
(1172,305,o),
(1172,396,qs),
(1172,471,o),
(1136,595,o),
(1064,692,o),
(958,761,o),
(889,780,q),
(890,754,l),
(941,774,o),
(1020,836,o),
(1073,919,o),
(1100,1020,o),
(1100,1079,qs),
(1100,1164,o),
(1035,1301,o),
(915,1397,o),
(744,1448,o),
(637,1448,qs),
(205,1448,l)
);
},
{
closed = 1;
nodes = (
(394,826,l),
(394,1276,l),
(640,1276,ls),
(706,1276,o),
(808,1248,o),
(876,1193,o),
(911,1113,o),
(911,1060,qs),
(911,1004,o),
(876,917,o),
(808,857,o),
(708,826,o),
(644,826,qs)
);
},
{
closed = 1;
nodes = (
(394,179,l),
(394,658,l),
(711,658,ls),
(776,658,o),
(877,625,o),
(946,562,o),
(983,470,o),
(983,412,qs),
(983,297,o),
(846,179,o),
(712,179,qs)
);
}
);
width = 1278;
},
{
layerId = "85042BCA-33BD-4676-BF6E-DA82D0F79E7B";
shapes = (
{
closed = 1;
nodes = (
(235,0,l),
(669,0,ls),
(778,0,o),
(947,49,o),
(1062,143,o),
(1123,281,o),
(1123,371,qs),
(1123,453,o),
(1085,586,o),
(1010,686,o),
(894,755,o),
(816,776,q),
(818,745,l),
(880,770,o),
(968,835,o),
(1024,924,o),
(1051,1035,o),
(1051,1105,qs),
(1051,1184,o),
(986,1310,o),
(866,1400,o),
(695,1448,o),
(588,1448,qs),
(235,1448,l)
);
},
{
closed = 1;
nodes = (
(343,784,l),
(343,1347,l),
(589,1347,ls),
(673,1347,o),
(796,1314,o),
(878,1247,o),
(917,1148,o),
(917,1080,qs),
(917,1010,o),
(870,901,o),
(783,824,o),
(657,784,o),
(577,784,qs)
);
},
{
closed = 1;
nodes = (
(343,103,l),
(343,678,l),
(681,678,ls),
(764,678,o),
(886,639,o),
(969,562,o),
(1009,448,o),
(1009,370,qs),
(1009,237,o),
(840,103,o),
(673,103,qs)
);
}
);
width = 1265;
}
);
unicode = 66;
},
{
glyphname = C;
layers = (
{
layerId = "3C56E2CD-C7AD-4ED1-8DD7-75F0C604B46D";
shapes = (
{
closed = 1;
nodes = (
(896,-20,o),
(1094,31,o),
(1258,133,o),
(1385,285,o),
(1427,385,q),
(1161,493,l),
(1135,431,o),
(1059,335,o),
(963,270,o),
(848,236,o),
(783,236,qs),
(673,236,o),
(520,310,o),
(424,441,o),
(381,620,o),
(381,724,qs),
(381,824,o),
(431,1001,o),
(531,1134,o),
(682,1212,o),
(783,1212,qs),
(852,1212,o),
(974,1175,o),
(1070,1109,o),
(1139,1016,o),
(1156,959,q),
(1429,1066,l),
(1384,1170,o),
(1255,1322,o),
(1091,1421,o),
(895,1468,o),
(783,1468,qs),
(605,1468,o),
(338,1349,o),
(159,1146,o),
(70,876,o),
(70,724,qs),
(70,568,o),
(170,297,o),
(356,96,o),
(620,-20,o),
(783,-20,qs)
);
}
);
width = 1493;
},
{
layerId = "9D1D4149-D6AF-44E4-BA66-2DBC1F9ACF8F";
shapes = (
{
closed = 1;
nodes = (
(893,-20,o),
(1092,30,o),
(1258,129,o),
(1383,280,o),
(1417,380,q),
(1177,479,l),
(1153,425,o),
(1080,327,o),
(982,253,o),
(858,210,o),
(784,210,qs),
(666,210,o),
(498,294,o),
(392,438,o),
(342,628,o),
(342,734,qs),
(342,841,o),
(396,1026,o),
(506,1161,o),
(670,1238,o),
(780,1238,qs),
(859,1238,o),
(987,1194,o),
(1085,1121,o),
(1153,1025,o),
(1172,973,q),
(1415,1070,l),
(1379,1169,o),
(1255,1319,o),
(1090,1418,o),
(892,1468,o),
(782,1468,qs),
(617,1468,o),
(358,1358,o),
(179,1161,o),
(84,888,o),
(84,724,qs),
(84,559,o),
(179,286,o),
(359,89,o),
(619,-20,o),
(784,-20,qs)
);
}
);
width = 1466;
},
{
layerId = "D814EF8B-E2E2-4B9A-99BD-8962E8BCF366";
shapes = (
{
closed = 1;
nodes = (
(882,-20,o),
(1067,30,o),
(1222,128,o),
(1342,273,o),
(1379,367,q),
(1204,443,l),
(1179,375,o),
(1098,267,o),
(989,192,o),
(856,153,o),
(778,153,qs),
(649,153,o),
(469,249,o),
(356,410,o),
(305,620,o),
(305,734,qs),
(305,847,o),
(359,1051,o),
(474,1205,o),
(651,1295,o),
(774,1295,qs),
(852,1295,o),
(989,1256,o),
(1100,1183,o),
(1180,1077,o),
(1201,1009,q),
(1377,1083,l),
(1338,1178,o),
(1219,1322,o),
(1065,1419,o),
(881,1468,o),
(776,1468,qs),
(612,1468,o),
(363,1352,o),
(196,1151,o),
(112,880,o),
(112,724,qs),
(112,567,o),
(196,295,o),
(363,95,o),
(613,-20,o),
(778,-20,qs)
);
}
);
width = 1456;
},
{
layerId = "85042BCA-33BD-4676-BF6E-DA82D0F79E7B";
shapes = (
{
closed = 1;
nodes = (
(873,-20,o),
(1045,30,o),
(1188,127,o),
(1302,266,o),
(1343,354,q),
(1239,403,l),
(1212,320,o),
(1122,201,o),
(1003,126,o),
(858,90,o),
(777,90,qs),
(636,90,o),
(442,198,o),
(322,379,o),
(269,611,o),
(269,734,qs),
(269,855,o),
(323,1080,o),
(444,1253,o),
(636,1358,o),
(773,1358,qs),
(851,1358,o),
(998,1325,o),
(1121,1252,o),
(1215,1134,o),
(1239,1050,q),
(1341,1098,l),
(1299,1189,o),
(1185,1328,o),
(1044,1421,o),
(874,1468,o),
(775,1468,qs),
(611,1468,o),
(374,1346,o),
(222,1141,o),
(150,871,o),
(150,724,qs),
(150,576,o),
(222,306,o),
(374,101,o),
(612,-20,o),
(777,-20,qs)
);
}
);
width = 1452;
}
);
unicode = 67;
},
{
glyphname = D;
layers = (
{
layerId = "3C56E2CD-C7AD-4ED1-8DD7-75F0C604B46D";
shapes = (
{
closed = 1;
nodes = (
(177,0,l),
(610,0,ls),
(795,0,o),
(1080,98,o),
(1273,282,o),
(1372,547,o),
(1372,713,qs),
(1372,896,o),
(1270,1172,o),
(1075,1356,o),
(792,1448,o),
(612,1448,qs),
(177,1448,l)
);
},
{
closed = 1;
nodes = (
(467,266,l),
(467,1180,l),
(613,1180,ls),
(738,1180,o),
(915,1133,o),
(1028,1025,o),
(1081,851,o),
(1081,724,qs),
(1081,597,o),
(1017,422,o),
(892,314,o),
(707,266,o),
(585,266,qs)
);
}
);
width = 1444;
},
{
layerId = "9D1D4149-D6AF-44E4-BA66-2DBC1F9ACF8F";
shapes = (
{
closed = 1;
nodes = (
(186,0,l),
(604,0,ls),
(777,0,o),
(1057,89,o),
(1253,267,o),
(1359,535,o),
(1359,713,qs),
(1359,891,o),
(1262,1165,o),
(1071,1352,o),
(790,1448,o),
(606,1448,qs),
(186,1448,l)
);
},
{
closed = 1;
nodes = (
(446,239,l),
(446,1209,l),
(602,1209,ls),
(728,1209,o),
(915,1160,o),
(1038,1047,o),
(1099,861,o),
(1099,724,qs),
(1099,594,o),
(1031,409,o),
(899,293,o),
(705,239,o),
(579,239,qs)
);
}
);
width = 1443;
},
{
layerId = "D814EF8B-E2E2-4B9A-99BD-8962E8BCF366";
shapes = (
{
closed = 1;
nodes = (
(208,0,l),
(591,0,ls),
(763,0,o),
(1037,91,o),
(1228,270,o),
(1330,537,o),
(1330,713,qs),
(1330,889,o),
(1234,1163,o),
(1047,1351,o),
(772,1448,o),
(593,1448,qs),
(208,1448,l)
);
},
{
closed = 1;
nodes = (
(400,175,l),
(400,1275,l),
(589,1275,ls),
(726,1275,o),
(931,1208,o),
(1069,1072,o),
(1138,864,o),
(1138,724,qs),
(1138,587,o),
(1060,381,o),
(912,244,o),
(700,175,o),
(566,175,qs)
);
}
);
width = 1442;
},
{
layerId = "85042BCA-33BD-4676-BF6E-DA82D0F79E7B";
shapes = (
{
closed = 1;
nodes = (
(234,0,l),
(576,0,ls),
(748,0,o),
(1016,94,o),
(1201,275,o),
(1297,540,o),
(1297,713,qs),
(1297,888,o),
(1204,1160,o),
(1022,1348,o),
(753,1448,o),
(578,1448,qs),
(234,1448,l)
);
},
{
closed = 1;
nodes = (
(349,103,l),
(349,1349,l),
(574,1349,ls),
(722,1349,o),
(949,1262,o),
(1104,1099,o),
(1182,869,o),
(1182,724,qs),
(1182,581,o),
(1092,351,o),
(927,190,o),
(694,103,o),
(551,103,qs)
);
}
);
width = 1442;
}
);
unicode = 68;
},
{
glyphname = E;
layers = (
{
layerId = "3C56E2CD-C7AD-4ED1-8DD7-75F0C604B46D";
shapes = (
{
closed = 1;
nodes = (
(1147,0,l),
(1147,276,l),
(467,276,l),
(467,589,l),
(1116,589,l),
(1116,859,l),
(467,859,l),
(467,1179,l),
(1147,1179,l),
(1147,1448,l),
(177,1448,l),
(177,0,l)
);
}
);
width = 1277;
},
{
layerId = "9D1D4149-D6AF-44E4-BA66-2DBC1F9ACF8F";
shapes = (
{
closed = 1;
nodes = (
(1149,0,l),
(1149,246,l),
(446,246,l),
(446,605,l),
(1101,605,l),
(1101,844,l),
(446,844,l),
(446,1209,l),
(1149,1209,l),
(1149,1448,l),
(186,1448,l),
(186,0,l)
);
}
);
width = 1275;
},
{
layerId = "D814EF8B-E2E2-4B9A-99BD-8962E8BCF366";
shapes = (
{
closed = 1;
nodes = (
(1152,0,l),
(1152,177,l),
(399,177,l),
(399,642,l),
(1067,642,l),
(1067,808,l),
(399,808,l),
(399,1279,l),
(1152,1279,l),
(1152,1448,l),
(207,1448,l),
(207,0,l)
);
}
);
width = 1271;
},
{
layerId = "85042BCA-33BD-4676-BF6E-DA82D0F79E7B";
shapes = (
{
closed = 1;
nodes = (
(1158,0,l),
(1158,101,l),
(350,101,l),
(350,683,l),
(1031,683,l),
(1031,768,l),
(350,768,l),
(350,1356,l),
(1158,1356,l),
(1158,1448,l),
(234,1448,l),
(234,0,l)
);
}
);
width = 1270;
}
);
unicode = 69;
},
{
glyphname = F;
layers = (
{
layerId = "3C56E2CD-C7AD-4ED1-8DD7-75F0C604B46D";
shapes = (
{
closed = 1;
nodes = (
(467,0,l),
(467,589,l),
(1143,589,l),
(1143,859,l),
(467,859,l),
(467,1179,l),
(1233,1179,l),
(1233,1448,l),
(177,1448,l),
(177,0,l)
);
}
);
width = 1277;
},
{
layerId = "9D1D4149-D6AF-44E4-BA66-2DBC1F9ACF8F";
shapes = (
{
closed = 1;
nodes = (
(446,0,l),
(446,605,l),
(1122,605,l),
(1122,844,l),
(446,844,l),
(446,1209,l),
(1212,1209,l),
(1212,1448,l),
(186,1448,l),
(186,0,l)
);
}
);
width = 1265;
},
{
layerId = "D814EF8B-E2E2-4B9A-99BD-8962E8BCF366";
shapes = (
{
closed = 1;
nodes = (
(396,0,l),
(396,642,l),
(1072,642,l),
(1072,808,l),
(396,808,l),
(396,1279,l),
(1163,1279,l),
(1163,1448,l),
(204,1448,l),
(204,0,l)
);
}
);
width = 1231;
},
{
layerId = "85042BCA-33BD-4676-BF6E-DA82D0F79E7B";
shapes = (
{
closed = 1;
nodes = (
(351,0,l),
(351,683,l),
(1027,683,l),
(1027,768,l),
(351,768,l),
(351,1356,l),
(1118,1356,l),
(1118,1448,l),
(236,1448,l),
(236,0,l)
);
}
);
width = 1213;
}
);
unicode = 70;
},
{
glyphname = G;
layers = (
{
layerId = "3C56E2CD-C7AD-4ED1-8DD7-75F0C604B46D";
shapes = (
{
closed = 1;
nodes = (
(852,-20,o),
(973,6,o),
(1079,58,o),
(1167,134,o),
(1200,185,q),
(1230,0,l),
(1457,0,l),
(1457,798,l),
(747,798,l),
(747,562,l),
(1175,562,l),
(1162,489,o),
(1090,370,o),
(987,284,o),
(858,237,o),
(786,237,qs),
(691,237,o),
(533,303,o),
(420,427,o),
(358,609,o),
(358,724,qs),
(358,840,o),
(420,1021,o),
(533,1146,o),
(690,1212,o),
(784,1212,qs),
(858,1212,o),
(981,1180,o),
(1080,1114,o),
(1151,1011,o),
(1172,939,q),
(1428,1044,l),
(1385,1145,o),
(1256,1303,o),
(1091,1411,o),
(894,1468,o),
(784,1468,qs),
(626,1468,o),
(363,1360,o),
(175,1163,o),
(71,889,o),
(71,724,qs),
(71,559,o),
(175,285,o),
(364,89,o),
(627,-20,o),
(786,-20,qs)
);
}
);
width = 1579;
},
{
layerId = "9D1D4149-D6AF-44E4-BA66-2DBC1F9ACF8F";
shapes = (
{
closed = 1;
nodes = (
(853,-20,o),
(981,12,o),
(1093,71,o),
(1184,153,o),
(1213,204,q),
(1236,0,l),
(1442,0,l),
(1442,782,l),
(761,782,l),
(761,572,l),
(1190,572,l),
(1178,490,o),
(1109,356,o),
(1003,262,o),
(865,210,o),
(785,210,qs),
(682,210,o),
(523,277,o),
(415,408,o),
(359,600,o),
(359,724,qs),
(359,844,o),
(417,1035,o),
(525,1168,o),
(682,1238,o),
(781,1238,qs),
(855,1238,o),
(982,1201,o),
(1084,1128,o),
(1160,1022,o),
(1184,953,q),
(1414,1050,l),
(1369,1151,o),
(1241,1307,o),
(1081,1413,o),
(890,1468,o),
(783,1468,qs),
(623,1468,o),
(365,1363,o),
(183,1169,o),
(85,894,o),
(85,724,qs),
(85,554,o),
(184,279,o),
(366,85,o),
(625,-20,o),
(785,-20,qs)
);
}
);
width = 1571;
},
{
layerId = "D814EF8B-E2E2-4B9A-99BD-8962E8BCF366";
shapes = (
{
closed = 1;
nodes = (
(855,-20,o),
(998,18,o),
(1118,89,o),
(1211,189,o),
(1238,251,q),
(1247,0,l),
(1401,0,l),
(1401,746,l),
(788,746,l),
(788,595,l),
(1220,595,l),
(1215,496,o),
(1146,333,o),
(1029,217,o),
(871,153,o),
(777,153,qs),
(665,153,o),
(490,228,o),
(372,373,o),
(310,586,o),
(310,724,qs),
(310,859,o),
(373,1071,o),
(491,1218,o),
(664,1295,o),
(773,1295,qs),
(847,1295,o),
(979,1256,o),
(1089,1181,o),
(1175,1072,o),
(1204,1001,q),
(1376,1076,l),
(1333,1172,o),
(1212,1319,o),
(1060,1418,o),
(879,1468,o),
(775,1468,qs),
(620,1468,o),
(374,1366,o),
(203,1174,o),
(112,898,o),
(112,724,qs),
(112,549,o),
(203,273,o),
(374,81,o),
(621,-20,o),
(777,-20,qs)
);
}
);
width = 1550;
},
{
layerId = "85042BCA-33BD-4676-BF6E-DA82D0F79E7B";
shapes = (
{
closed = 1;
nodes = (
(866,-20,o),
(1025,26,o),
(1154,110,o),
(1250,228,o),
(1274,302,q),
(1267,0,l),
(1364,0,l),
(1364,707,l),
(827,707,l),
(827,621,l),
(1261,621,l),
(1263,502,o),
(1196,308,o),
(1068,168,o),
(888,90,o),
(777,90,qs),
(653,90,o),
(462,173,o),
(332,334,o),
(264,571,o),
(264,724,qs),
(264,876,o),
(331,1112,o),
(463,1274,o),
(652,1358,o),
(773,1358,qs),
(847,1358,o),
(984,1318,o),
(1103,1240,o),
(1199,1126,o),
(1234,1055,q),
(1342,1105,l),
(1300,1195,o),
(1188,1331,o),
(1047,1423,o),
(875,1468,o),
(775,1468,qs),
(626,1468,o),
(392,1369,o),
(233,1179,o),
(150,903,o),
(150,724,qs),
(150,545,o),
(232,267,o),
(392,78,o),
(626,-20,o),
(777,-20,qs)
);
}
);
width = 1540;
}
);
unicode = 71;
},
{
glyphname = H;
layers = (
{
layerId = "3C56E2CD-C7AD-4ED1-8DD7-75F0C604B46D";
shapes = (
{
closed = 1;
nodes = (
(1361,0,l),
(1361,1448,l),
(1071,1448,l),
(1071,858,l),
(467,858,l),
(467,1448,l),
(177,1448,l),
(177,0,l),
(467,0,l),
(467,588,l),
(1071,588,l),
(1071,0,l)
);
}
);
width = 1538;
},
{
layerId = "9D1D4149-D6AF-44E4-BA66-2DBC1F9ACF8F";
shapes = (
{
closed = 1;
nodes = (
(1340,0,l),
(1340,1448,l),
(1080,1448,l),
(1080,843,l),
(446,843,l),
(446,1448,l),
(186,1448,l),
(186,0,l),
(446,0,l),
(446,604,l),
(1080,604,l),
(1080,0,l)
);
}
);
width = 1527;
},
{
layerId = "D814EF8B-E2E2-4B9A-99BD-8962E8BCF366";
shapes = (
{
closed = 1;
nodes = (
(1291,0,l),
(1291,1448,l),
(1099,1448,l),
(1099,807,l),
(395,807,l),
(395,1448,l),
(204,1448,l),
(204,0,l),
(395,0,l),
(395,641,l),
(1099,641,l),
(1099,0,l)
);
}
);
width = 1496;
},
{
layerId = "85042BCA-33BD-4676-BF6E-DA82D0F79E7B";
shapes = (
{
closed = 1;
nodes = (
(1246,0,l),
(1246,1448,l),
(1131,1448,l),
(1131,767,l),
(350,767,l),
(350,1448,l),
(236,1448,l),
(236,0,l),
(350,0,l),
(350,682,l),
(1131,682,l),
(1131,0,l)
);
}
);
width = 1480;
}
);
unicode = 72;
},
{
glyphname = I;
layers = (
{
layerId = "3C56E2CD-C7AD-4ED1-8DD7-75F0C604B46D";
shapes = (
{
closed = 1;
nodes = (
(467,0,l),
(467,1448,l),
(177,1448,l),
(177,0,l)
);
}
);
width = 644;
},
{
layerId = "9D1D4149-D6AF-44E4-BA66-2DBC1F9ACF8F";
shapes = (
{
closed = 1;
nodes = (
(446,0,l),
(446,1448,l),
(186,1448,l),
(186,0,l)
);
}
);
width = 632;
},
{
layerId = "D814EF8B-E2E2-4B9A-99BD-8962E8BCF366";
shapes = (
{
closed = 1;
nodes = (
(395,0,l),
(395,1448,l),
(204,1448,l),
(204,0,l)
);
}
);
width = 601;
},
{
layerId = "85042BCA-33BD-4676-BF6E-DA82D0F79E7B";
shapes = (
{
closed = 1;
nodes = (
(350,0,l),
(350,1448,l),
(236,1448,l),
(236,0,l)
);
}
);
width = 585;
}
);
unicode = 73;
},
{
glyphname = J;
layers = (
{
layerId = "3C56E2CD-C7AD-4ED1-8DD7-75F0C604B46D";
shapes = (
{
closed = 1;
nodes = (
(18,465,l),
(25,363,o),
(106,186,o),
(240,55,o),
(419,-20,o),
(523,-20,qs),
(654,-20,o),
(844,61,o),
(967,205,o),
(1026,405,o),
(1026,524,qs),
(1026,1448,l),
(736,1448,l),
(736,633,ls),
(736,532,o),
(727,388,o),
(686,295,o),
(600,251,o),
(523,251,qs),
(471,251,o),
(392,288,o),
(338,354,o),
(308,444,o),
(305,497,q)
);
}
);
width = 1172;
},
{
layerId = "9D1D4149-D6AF-44E4-BA66-2DBC1F9ACF8F";
shapes = (
{
closed = 1;
nodes = (
(32,451,l),
(39,347,o),
(115,174,o),
(243,49,o),
(416,-20,o),
(520,-20,qs),
(649,-20,o),
(834,58,o),
(953,201,o),
(1009,401,o),
(1009,522,qs),
(1009,1448,l),
(749,1448,l),
(749,518,ls),
(749,454,o),
(733,345,o),
(683,265,o),
(594,220,o),
(520,220,qs),
(462,220,o),
(377,262,o),
(321,333,o),
(291,427,o),
(288,480,q)
);
}
);
width = 1166;
},
{
layerId = "D814EF8B-E2E2-4B9A-99BD-8962E8BCF366";
shapes = (
{
closed = 1;
nodes = (
(59,418,l),
(66,318,o),
(137,156,o),
(256,42,o),
(420,-20,o),
(520,-20,qs),
(643,-20,o),
(814,64,o),
(920,210,o),
(968,405,o),
(968,516,qs),
(968,1448,l),
(777,1448,l),
(777,499,ls),
(777,427,o),
(757,300,o),
(699,205,o),
(595,150,o),
(511,150,qs),
(448,150,o),
(352,197,o),
(286,277,o),
(249,383,o),
(246,441,q)
);
}
);
width = 1150;
},
{
layerId = "85042BCA-33BD-4676-BF6E-DA82D0F79E7B";
shapes = (
{
closed = 1;
nodes = (
(95,382,l),
(101,288,o),
(166,138,o),
(277,35,o),
(432,-20,o),
(526,-20,qs),
(643,-20,o),
(798,72,o),
(892,221,o),
(929,411,o),
(929,510,qs),
(929,1448,l),
(815,1448,l),
(815,478,ls),
(815,397,o),
(789,251,o),
(722,139,o),
(601,74,o),
(507,74,qs),
(438,74,o),
(328,127,o),
(250,217,o),
(209,334,o),
(206,399,q)
);
}
);
width = 1141;
}
);
unicode = 74;
},
{
glyphname = K;
layers = (
{
layerId = "3C56E2CD-C7AD-4ED1-8DD7-75F0C604B46D";
shapes = (
{
closed = 1;
nodes = (
(1538,0,l),
(945,847,l),
(1534,1448,l),
(1142,1448,l),
(467,722,l),
(467,1448,l),
(177,1448,l),
(177,0,l),
(467,0,l),
(467,369,l),
(742,653,l),
(1175,0,l)
);
}
);
width = 1539;
},
{
layerId = "9D1D4149-D6AF-44E4-BA66-2DBC1F9ACF8F";
shapes = (
{
closed = 1;
nodes = (
(1510,0,l),
(921,854,l),
(1499,1448,l),
(1151,1448,l),
(446,692,l),
(446,1448,l),
(186,1448,l),
(186,0,l),
(446,0,l),
(446,376,l),
(740,680,l),
(1187,0,l)
);
}
);
width = 1527;
},
{
layerId = "D814EF8B-E2E2-4B9A-99BD-8962E8BCF366";
shapes = (
{
closed = 1;
nodes = (
(1443,0,l),
(862,870,l),
(1418,1448,l),
(1166,1448,l),
(396,628,l),
(396,1448,l),
(204,1448,l),
(204,0,l),
(396,0,l),
(396,392,l),
(730,737,l),
(1209,0,l)
);
}
);
width = 1493;
},
{
layerId = "85042BCA-33BD-4676-BF6E-DA82D0F79E7B";
shapes = (
{
closed = 1;
nodes = (
(1379,0,l),
(807,888,l),
(1339,1448,l),
(1193,1448,l),
(351,556,l),
(351,1448,l),
(236,1448,l),
(236,0,l),
(351,0,l),
(351,409,l),
(729,800,l),
(1245,0,l)
);
}
);
width = 1477;
}
);
unicode = 75;
},
{
glyphname = L;
layers = (
{
layerId = "3C56E2CD-C7AD-4ED1-8DD7-75F0C604B46D";
shapes = (
{
closed = 1;
nodes = (
(1085,0,l),
(1085,276,l),
(467,276,l),
(467,1448,l),
(177,1448,l),
(177,0,l)
);
}
);
width = 1097;
},
{
layerId = "9D1D4149-D6AF-44E4-BA66-2DBC1F9ACF8F";
shapes = (
{
closed = 1;
nodes = (
(1065,0,l),
(1065,246,l),
(446,246,l),
(446,1448,l),
(186,1448,l),
(186,0,l)
);
}
);
width = 1089;
},
{
layerId = "D814EF8B-E2E2-4B9A-99BD-8962E8BCF366";
shapes = (
{
closed = 1;
nodes = (
(1016,0,l),
(1016,177,l),
(397,177,l),
(397,1448,l),
(205,1448,l),
(205,0,l)
);
}
);
width = 1066;
},
{
layerId = "85042BCA-33BD-4676-BF6E-DA82D0F79E7B";
shapes = (
{
closed = 1;
nodes = (
(970,0,l),
(970,101,l),
(351,101,l),
(351,1448,l),
(235,1448,l),
(235,0,l)
);
}
);
width = 1054;
}
);
unicode = 76;
},
{
glyphname = M;
layers = (
{
layerId = "3C56E2CD-C7AD-4ED1-8DD7-75F0C604B46D";
shapes = (
{
closed = 1;
nodes = (
(1675,0,l),
(1675,1448,l),
(1298,1448,l),
(928,459,l),
(554,1448,l),
(177,1448,l),
(177,0,l),
(454,0,l),
(454,1013,l),
(788,126,l),
(1064,126,l),
(1398,1013,l),
(1398,0,l)
);
}
);
width = 1852;
},
{
layerId = "9D1D4149-D6AF-44E4-BA66-2DBC1F9ACF8F";
shapes = (
{
closed = 1;
nodes = (
(1655,0,l),
(1655,1448,l),
(1305,1448,l),
(921,418,l),
(537,1448,l),
(186,1448,l),
(186,0,l),
(436,0,l),
(436,1083,l),
(795,126,l),
(1047,126,l),
(1405,1083,l),
(1405,0,l)
);
}
);
width = 1841;
},
{
layerId = "D814EF8B-E2E2-4B9A-99BD-8962E8BCF366";
shapes = (
{
closed = 1;
nodes = (
(1606,0,l),
(1606,1448,l),
(1321,1448,l),
(903,323,l),
(489,1448,l),
(204,1448,l),
(204,0,l),
(392,0,l),
(392,1229,l),
(805,126,l),
(1004,126,l),
(1419,1229,l),
(1419,0,l)
);
}
);
width = 1810;
},
{
layerId = "85042BCA-33BD-4676-BF6E-DA82D0F79E7B";
shapes = (
{
closed = 1;
nodes = (
(1561,0,l),
(1561,1448,l),
(1350,1448,l),
(893,217,l),
(446,1448,l),
(236,1448,l),
(236,0,l),
(355,0,l),
(355,1391,l),
(828,126,l),
(968,126,l),
(1445,1391,l),
(1445,0,l)
);
}
);
width = 1795;
}
);
unicode = 77;
},
{
glyphname = N;
layers = (
{
layerId = "3C56E2CD-C7AD-4ED1-8DD7-75F0C604B46D";
shapes = (
{
closed = 1;
nodes = (
(1323,0,l),
(1323,1448,l),
(1046,1448,l),
(1046,516,l),
(442,1448,l),
(177,1448,l),
(177,0,l),
(454,0,l),
(454,934,l),
(1057,0,l)
);
}
);
width = 1500;
},
{
layerId = "9D1D4149-D6AF-44E4-BA66-2DBC1F9ACF8F";
shapes = (
{
closed = 1;
nodes = (
(1303,0,l),
(1303,1448,l),
(1053,1448,l),
(1053,434,l),
(444,1448,l),
(186,1448,l),
(186,0,l),
(436,0,l),
(436,1016,l),
(1042,0,l)
);
}
);
width = 1489;
},
{
layerId = "D814EF8B-E2E2-4B9A-99BD-8962E8BCF366";
shapes = (
{
closed = 1;
nodes = (
(1253,0,l),
(1253,1448,l),
(1066,1448,l),
(1066,262,l),
(439,1448,l),
(204,1448,l),
(204,0,l),
(392,0,l),
(392,1187,l),
(1014,0,l)
);
}
);
width = 1458;
},
{
layerId = "85042BCA-33BD-4676-BF6E-DA82D0F79E7B";
shapes = (
{
closed = 1;
nodes = (
(1208,0,l),
(1208,1448,l),
(1090,1448,l),
(1090,72,l),
(444,1448,l),
(236,1448,l),
(236,0,l),
(355,0,l),
(355,1378,l),
(995,0,l)
);
}
);
width = 1442;
}
);
unicode = 78;
},
{
glyphname = O;
layers = (
{
layerId = "3C56E2CD-C7AD-4ED1-8DD7-75F0C604B46D";
shapes = (
{
closed = 1;
nodes = (
(943,-20,o),
(1205,88,o),
(1394,285,o),
(1498,559,o),
(1498,724,qs),
(1498,890,o),
(1394,1164,o),
(1205,1360,o),
(943,1468,o),
(784,1468,qs),
(625,1468,o),
(363,1360,o),
(174,1163,o),
(70,889,o),
(70,724,qs),
(70,559,o),
(174,285,o),
(363,88,o),
(625,-20,o),
(784,-20,qs)
);
},
{
closed = 1;
nodes = (
(689,236,o),
(539,302,o),
(436,427,o),
(381,609,o),
(381,724,qs),
(381,840,o),
(436,1021,o),
(539,1146,o),
(689,1212,o),
(784,1212,qs),
(879,1212,o),
(1029,1146,o),
(1133,1021,o),
(1187,840,o),
(1187,724,qs),
(1187,608,o),
(1133,427,o),
(1029,302,o),
(879,236,o),
(784,236,qs)
);
}
);
width = 1568;
},
{
layerId = "9D1D4149-D6AF-44E4-BA66-2DBC1F9ACF8F";
shapes = (
{
closed = 1;
nodes = (
(947,-20,o),
(1207,90,o),
(1386,287,o),
(1481,560,o),
(1481,724,qs),
(1481,888,o),
(1386,1162,o),
(1207,1359,o),
(947,1468,o),
(782,1468,qs),
(617,1468,o),
(358,1359,o),
(178,1162,o),
(84,888,o),
(84,724,qs),
(84,560,o),
(178,287,o),
(358,90,o),
(617,-20,o),
(782,-20,qs)
);
},
{
closed = 1;
nodes = (
(665,210,o),
(503,294,o),
(403,436,o),
(358,622,o),
(358,724,qs),
(358,830,o),
(405,1017,o),
(507,1157,o),
(668,1238,o),
(782,1238,qs),
(898,1238,o),
(1059,1155,o),
(1160,1014,o),
(1206,828,o),
(1206,724,qs),
(1206,618,o),
(1159,431,o),
(1057,291,o),
(896,210,o),
(782,210,qs)
);
}
);
width = 1565;
},
{
layerId = "D814EF8B-E2E2-4B9A-99BD-8962E8BCF366";
shapes = (
{
closed = 1;
nodes = (
(940,-20,o),
(1188,86,o),
(1362,280,o),
(1455,555,o),
(1455,724,qs),
(1455,893,o),
(1362,1168,o),
(1188,1362,o),
(940,1468,o),
(785,1468,qs),
(630,1468,o),
(381,1362,o),
(207,1168,o),
(114,893,o),
(114,724,qs),
(114,555,o),
(207,281,o),
(381,86,o),
(630,-20,o),
(785,-20,qs)
);
},
{
closed = 1;
nodes = (
(668,153,o),
(491,237,o),
(372,388,o),
(312,598,o),
(312,724,qs),
(312,852,o),
(373,1062,o),
(493,1212,o),
(670,1295,o),
(785,1295,qs),
(901,1295,o),
(1077,1212,o),
(1196,1061,o),
(1256,851,o),
(1256,724,qs),
(1256,596,o),
(1195,386,o),
(1076,236,o),
(900,153,o),
(785,153,qs)
);
}
);
width = 1571;
},
{
layerId = "85042BCA-33BD-4676-BF6E-DA82D0F79E7B";
shapes = (
{
closed = 1;
nodes = (
(933,-20,o),
(1169,82,o),
(1335,273,o),
(1427,549,o),
(1427,724,qs),
(1427,899,o),
(1335,1176,o),
(1169,1367,o),
(933,1468,o),
(788,1468,qs),
(644,1468,o),
(408,1367,o),
(240,1174,o),
(149,899,o),
(149,724,qs),
(149,551,o),
(240,274,o),
(408,82,o),
(644,-20,o),
(788,-20,qs)
);
},
{
closed = 1;
nodes = (
(673,90,o),
(479,174,o),
(341,334,o),
(263,571,o),
(263,724,qs),
(263,876,o),
(340,1112,o),
(478,1274,o),
(672,1358,o),
(788,1358,qs),
(904,1358,o),
(1098,1274,o),
(1237,1112,o),
(1313,877,o),
(1313,724,qs),
(1313,572,o),
(1237,335,o),
(1099,175,o),
(905,90,o),
(788,90,qs)
);
}
);
width = 1574;
}
);
unicode = 79;
},
{
glyphname = P;
layers = (
{
layerId = "3C56E2CD-C7AD-4ED1-8DD7-75F0C604B46D";
shapes = (
{
closed = 1;
nodes = (
(177,0,l),
(465,0,l),
(465,584,l),
(656,584,ls),
(751,584,o),
(936,639,o),
(1082,748,o),
(1171,910,o),
(1171,1017,qs),
(1171,1125,o),
(1082,1287,o),
(937,1394,o),
(752,1448,o),
(656,1448,qs),
(177,1448,l)
);
},
{
closed = 1;
nodes = (
(465,857,l),
(465,1175,l),
(645,1175,ls),
(708,1175,o),
(798,1154,o),
(856,1113,o),
(883,1051,o),
(883,1010,qs),
(883,969,o),
(854,911,o),
(795,874,o),
(705,857,o),
(645,857,qs)
);
}
);
width = 1201;
},
{
layerId = "9D1D4149-D6AF-44E4-BA66-2DBC1F9ACF8F";
shapes = (
{
closed = 1;
nodes = (
(186,0,l),
(444,0,l),
(444,600,l),
(640,600,ls),
(740,600,o),
(925,649,o),
(1066,752,o),
(1151,910,o),
(1151,1019,qs),
(1151,1130,o),
(1065,1292,o),
(923,1397,o),
(738,1448,o),
(640,1448,qs),
(186,1448,l)
);
},
{
closed = 1;
nodes = (
(444,843,l),
(444,1205,l),
(640,1205,ls),
(703,1205,o),
(798,1182,o),
(861,1135,o),
(893,1066,o),
(893,1019,qs),
(893,973,o),
(861,906,o),
(797,863,o),
(703,843,o),
(640,843,qs)
);
}
);
width = 1195;
},
{
layerId = "D814EF8B-E2E2-4B9A-99BD-8962E8BCF366";
shapes = (
{
closed = 1;
nodes = (
(206,0,l),
(397,0,l),
(397,637,l),
(582,637,ls),
(681,637,o),
(869,674,o),
(1015,766,o),
(1104,921,o),
(1104,1039,qs),
(1104,1143,o),
(1026,1297,o),
(894,1398,o),
(722,1448,o),
(627,1448,qs),
(206,1448,l)
);
},
{
closed = 1;
nodes = (
(397,810,l),
(397,1275,l),
(627,1275,ls),
(691,1275,o),
(797,1247,o),
(873,1188,o),
(915,1099,o),
(915,1039,qs),
(915,977,o),
(874,890,o),
(798,835,o),
(692,810,o),
(627,810,qs)
);
}
);
width = 1179;
},
{
layerId = "85042BCA-33BD-4676-BF6E-DA82D0F79E7B";
shapes = (
{
closed = 1;
nodes = (
(235,0,l),
(349,0,l),
(349,679,l),
(522,679,ls),
(621,679,o),
(814,703,o),
(964,781,o),
(1058,933,o),
(1058,1062,qs),
(1058,1158,o),
(989,1303,o),
(869,1400,o),
(709,1448,o),
(618,1448,qs),
(235,1448,l)
);
},
{
closed = 1;
nodes = (
(349,774,l),
(349,1352,l),
(618,1352,ls),
(684,1352,o),
(802,1318,o),
(893,1247,o),
(945,1138,o),
(945,1062,qs),
(945,983,o),
(894,872,o),
(806,805,o),
(686,774,o),
(618,774,qs)
);
}
);
width = 1172;
}
);
unicode = 80;
},
{
glyphname = Q;
layers = (
{
layerId = "3C56E2CD-C7AD-4ED1-8DD7-75F0C604B46D";
shapes = (
{
closed = 1;
nodes = (
(987,263,l),
(1170,435,l),
(1144,459,o),
(1092,507,o),
(1039,555,o),
(985,602,o),
(958,626,q),
(768,455,l)
);
},
{
closed = 1;
nodes = (
(1148,102,l),
(1381,-129,l),
(1570,47,l),
(1338,264,l)
);
},
{
closed = 1;
nodes = (
(944,-20,o),
(1206,88,o),
(1395,285,o),
(1499,559,o),
(1499,724,qs),
(1499,890,o),
(1395,1164,o),
(1206,1360,o),
(944,1468,o),
(785,1468,qs),
(626,1468,o),
(364,1360,o),
(175,1163,o),
(71,889,o),
(71,724,qs),
(71,559,o),
(175,285,o),
(364,88,o),
(626,-20,o),
(785,-20,qs)
);
},
{
closed = 1;
nodes = (
(690,236,o),
(540,302,o),
(437,427,o),
(382,609,o),
(382,724,qs),
(382,840,o),
(437,1021,o),
(540,1146,o),
(690,1212,o),
(785,1212,qs),
(880,1212,o),
(1030,1146,o),
(1134,1021,o),
(1188,840,o),
(1188,724,qs),
(1188,608,o),
(1134,427,o),
(1030,302,o),
(880,236,o),
(785,236,qs)
);
}
);
width = 1620;
},
{
layerId = "9D1D4149-D6AF-44E4-BA66-2DBC1F9ACF8F";
shapes = (
{
closed = 1;
nodes = (
(1009,245,l),
(1172,401,l),
(1159,413,o),
(1098,469,o),
(1031,531,o),
(970,587,o),
(956,600,q),
(788,446,l)
);
},
{
closed = 1;
nodes = (
(1148,108,l),
(1378,-122,l),
(1545,36,l),
(1316,254,l)
);
},
{
closed = 1;
nodes = (
(948,-20,o),
(1208,90,o),
(1387,287,o),
(1482,560,o),
(1482,724,qs),
(1482,888,o),
(1387,1162,o),
(1208,1359,o),
(948,1468,o),
(783,1468,qs),
(618,1468,o),
(359,1359,o),
(179,1162,o),
(85,888,o),
(85,724,qs),
(85,560,o),
(179,287,o),
(359,90,o),
(618,-20,o),
(783,-20,qs)
);
},
{
closed = 1;
nodes = (
(666,210,o),
(504,294,o),
(404,436,o),
(359,622,o),
(359,724,qs),
(359,830,o),
(406,1017,o),
(508,1157,o),
(669,1238,o),
(783,1238,qs),
(899,1238,o),
(1060,1155,o),
(1161,1014,o),
(1207,828,o),
(1207,724,qs),
(1207,618,o),
(1160,431,o),
(1058,291,o),
(897,210,o),
(783,210,qs)
);
}
);
width = 1611;
},
{
layerId = "D814EF8B-E2E2-4B9A-99BD-8962E8BCF366";
shapes = (
{
closed = 1;
nodes = (
(1056,209,l),
(1174,327,l),
(1160,341,o),
(1098,402,o),
(1028,470,o),
(965,531,o),
(951,545,q),
(833,428,l)
);
},
{
closed = 1;
nodes = (
(1147,121,l),
(1369,-106,l),
(1490,12,l),
(1267,233,l)
);
},
{
closed = 1;
nodes = (
(938,-20,o),
(1186,86,o),
(1360,280,o),
(1453,555,o),
(1453,724,qs),
(1453,893,o),
(1360,1168,o),
(1186,1362,o),
(938,1468,o),
(783,1468,qs),
(628,1468,o),
(379,1362,o),
(205,1168,o),
(112,893,o),
(112,724,qs),
(112,555,o),
(205,281,o),
(379,86,o),
(628,-20,o),
(783,-20,qs)
);
},
{
closed = 1;
nodes = (
(666,153,o),
(489,237,o),
(370,388,o),
(310,598,o),
(310,724,qs),
(310,852,o),
(371,1062,o),
(491,1212,o),
(668,1295,o),
(783,1295,qs),
(899,1295,o),
(1075,1212,o),
(1194,1061,o),
(1254,851,o),
(1254,724,qs),
(1254,596,o),
(1193,386,o),
(1074,236,o),
(898,153,o),
(783,153,qs)
);
}
);
width = 1588;
},
{
layerId = "85042BCA-33BD-4676-BF6E-DA82D0F79E7B";
shapes = (
{
closed = 1;
nodes = (
(1116,169,l),
(1183,245,l),
(1169,260,o),
(1104,327,o),
(1033,401,o),
(968,470,o),
(954,485,q),
(890,407,l)
);
},
{
closed = 1;
nodes = (
(1153,135,l),
(1368,-90,l),
(1436,-15,l),
(1221,211,l)
);
},
{
closed = 1;
nodes = (
(934,-20,o),
(1170,82,o),
(1336,273,o),
(1428,549,o),
(1428,724,qs),
(1428,899,o),
(1336,1176,o),
(1170,1367,o),
(934,1468,o),
(789,1468,qs),
(645,1468,o),
(409,1367,o),
(241,1174,o),
(150,899,o),
(150,724,qs),
(150,551,o),
(241,274,o),
(409,82,o),
(645,-20,o),
(789,-20,qs)
);
},
{
closed = 1;
nodes = (
(674,90,o),
(480,174,o),
(342,334,o),
(264,571,o),
(264,724,qs),
(264,876,o),
(341,1112,o),
(479,1274,o),
(673,1358,o),
(789,1358,qs),
(905,1358,o),
(1099,1274,o),
(1238,1112,o),
(1314,877,o),
(1314,724,qs),
(1314,572,o),
(1238,335,o),
(1100,175,o),
(906,90,o),
(789,90,qs)
);
}
);
width = 1576;
}
);
unicode = 81;
},
{
glyphname = R;
layers = (
{
layerId = "3C56E2CD-C7AD-4ED1-8DD7-75F0C604B46D";
shapes = (
{
closed = 1;
nodes = (
(177,0,l),
(467,0,l),
(467,609,l),
(622,609,l),
(976,0,l),
(1308,0,l),
(902,636,l),
(962,659,o),
(1063,734,o),
(1136,831,o),
(1177,948,o),
(1177,1014,qs),
(1177,1116,o),
(1091,1278,o),
(949,1389,o),
(768,1448,o),
(672,1448,qs),
(177,1448,l)
);
},
{
closed = 1;
nodes = (
(469,841,l),
(469,1188,l),
(664,1188,ls),
(716,1188,o),
(799,1162,o),
(858,1116,o),
(889,1050,o),
(889,1009,qs),
(889,971,o),
(861,909,o),
(808,865,o),
(732,841,o),
(684,841,qs)
);
}
);
width = 1314;
},
{
layerId = "9D1D4149-D6AF-44E4-BA66-2DBC1F9ACF8F";
shapes = (
{
closed = 1;
nodes = (
(186,0,l),
(446,0,l),
(446,618,l),
(621,618,l),
(977,0,l),
(1275,0,l),
(872,644,l),
(933,665,o),
(1037,737,o),
(1112,833,o),
(1155,952,o),
(1155,1021,qs),
(1155,1126,o),
(1072,1285,o),
(933,1393,o),
(752,1448,o),
(654,1448,qs),
(186,1448,l)
);
},
{
closed = 1;
nodes = (
(449,830,l),
(449,1215,l),
(656,1215,ls),
(703,1215,o),
(790,1192,o),
(858,1144,o),
(898,1069,o),
(898,1017,qs),
(898,977,o),
(869,909,o),
(814,859,o),
(732,830,o),
(678,830,qs)
);
}
);
width = 1298;
},
{
layerId = "D814EF8B-E2E2-4B9A-99BD-8962E8BCF366";
shapes = (
{
closed = 1;
nodes = (
(203,0,l),
(395,0,l),
(395,640,l),
(614,640,l),
(975,0,l),
(1197,0,l),
(801,663,l),
(868,679,o),
(979,747,o),
(1058,844,o),
(1102,967,o),
(1102,1038,qs),
(1102,1137,o),
(1025,1290,o),
(896,1394,o),
(726,1448,o),
(633,1448,qs),
(203,1448,l)
);
},
{
closed = 1;
nodes = (
(397,808,l),
(397,1278,l),
(635,1278,ls),
(691,1278,o),
(793,1248,o),
(869,1188,o),
(914,1098,o),
(914,1037,qs),
(914,986,o),
(877,901,o),
(809,841,o),
(715,808,o),
(659,808,qs)
);
}
);
width = 1255;
},
{
layerId = "85042BCA-33BD-4676-BF6E-DA82D0F79E7B";
shapes = (
{
closed = 1;
nodes = (
(236,0,l),
(352,0,l),
(352,664,l),
(620,664,l),
(986,0,l),
(1124,0,l),
(735,684,l),
(808,694,o),
(927,759,o),
(1010,856,o),
(1056,984,o),
(1056,1056,qs),
(1056,1151,o),
(988,1296,o),
(869,1396,o),
(713,1448,o),
(624,1448,qs),
(236,1448,l)
);
},
{
closed = 1;
nodes = (
(354,783,l),
(354,1349,l),
(626,1349,ls),
(693,1349,o),
(808,1311,o),
(895,1238,o),
(946,1130,o),
(946,1060,qs),
(946,995,o),
(898,892,o),
(817,822,o),
(711,783,o),
(652,783,qs)
);
}
);
width = 1234;
}
);
unicode = 82;
},
{
glyphname = S;
layers = (
{
layerId = "3C56E2CD-C7AD-4ED1-8DD7-75F0C604B46D";
shapes = (
{
closed = 1;
nodes = (
(34,421,l),
(50,312,o),
(159,148,o),
(318,38,o),
(513,-16,o),
(615,-16,qs),
(711,-16,o),
(894,42,o),
(1037,154,o),
(1123,317,o),
(1123,422,qs),
(1123,523,o),
(1062,659,o),
(955,753,o),
(812,817,o),
(730,847,qs),
(634,882,o),
(514,934,o),
(446,984,o),
(422,1037,o),
(422,1072,qs),
(422,1106,o),
(451,1157,o),
(499,1191,o),
(559,1208,o),
(589,1208,qs),
(624,1208,o),
(688,1187,o),
(743,1148,o),
(789,1093,o),
(807,1058,q),
(1053,1205,l),
(982,1336,o),
(746,1468,o),
(600,1468,qs),
(503,1468,o),
(332,1412,o),
(204,1308,o),
(130,1160,o),
(130,1067,qs),
(130,985,o),
(193,856,o),
(298,754,o),
(436,679,o),
(510,651,qs),
(614,612,o),
(741,555,o),
(809,501,o),
(831,442,o),
(831,401,qs),
(831,358,o),
(789,297,o),
(724,259,o),
(646,241,o),
(610,241,qs),
(547,241,o),
(447,276,o),
(376,341,o),
(333,434,o),
(325,493,q)
);
}
);
width = 1172;
},
{
layerId = "9D1D4149-D6AF-44E4-BA66-2DBC1F9ACF8F";
shapes = (
{
closed = 1;
nodes = (
(53,412,l),
(70,307,o),
(171,147,o),
(318,39,o),
(503,-16,o),
(604,-16,qs),
(709,-16,o),
(891,45,o),
(1026,158,o),
(1104,320,o),
(1104,422,qs),
(1104,518,o),
(1022,660,o),
(892,766,o),
(730,844,o),
(649,878,qs),
(601,898,o),
(516,937,o),
(451,983,o),
(413,1043,o),
(413,1083,qs),
(413,1120,o),
(443,1177,o),
(492,1217,o),
(555,1238,o),
(589,1238,qs),
(628,1238,o),
(698,1213,o),
(757,1170,o),
(805,1111,o),
(823,1077,q),
(1040,1211,l),
(965,1340,o),
(745,1468,o),
(597,1468,qs),
(501,1468,o),
(337,1411,o),
(217,1307,o),
(150,1160,o),
(150,1070,qs),
(150,976,o),
(219,844,o),
(332,748,o),
(476,679,o),
(551,647,qs),
(605,624,o),
(709,576,o),
(790,519,o),
(840,447,o),
(840,400,qs),
(840,351,o),
(801,280,o),
(736,235,o),
(652,214,o),
(607,214,qs),
(542,214,o),
(441,252,o),
(368,321,o),
(322,420,o),
(313,480,q)
);
}
);
width = 1172;
},
{
layerId = "D814EF8B-E2E2-4B9A-99BD-8962E8BCF366";
shapes = (
{
closed = 1;
nodes = (
(74,382,l),
(90,285,o),
(184,136,o),
(322,35,o),
(495,-16,o),
(589,-16,qs),
(686,-16,o),
(856,42,o),
(982,151,o),
(1054,308,o),
(1054,406,qs),
(1054,499,o),
(980,634,o),
(862,734,o),
(714,809,o),
(640,842,qs),
(585,867,o),
(483,917,o),
(405,978,o),
(359,1054,o),
(359,1106,qs),
(359,1151,o),
(394,1224,o),
(454,1275,o),
(532,1302,o),
(575,1302,qs),
(619,1302,o),
(698,1279,o),
(766,1236,o),
(821,1175,o),
(842,1137,q),
(993,1233,l),
(922,1351,o),
(715,1468,o),
(578,1468,qs),
(493,1468,o),
(344,1414,o),
(233,1315,o),
(170,1177,o),
(170,1092,qs),
(170,1004,o),
(237,879,o),
(345,787,o),
(483,718,o),
(553,686,qs),
(612,659,o),
(724,603,o),
(812,535,o),
(865,449,o),
(865,391,qs),
(865,329,o),
(822,239,o),
(748,181,o),
(648,153,o),
(590,153,qs),
(524,153,o),
(410,191,o),
(323,263,o),
(267,368,o),
(258,434,q)
);
}
);
width = 1144;
},
{
layerId = "85042BCA-33BD-4676-BF6E-DA82D0F79E7B";
shapes = (
{
closed = 1;
nodes = (
(104,349,l),
(119,258,o),
(207,123,o),
(334,31,o),
(492,-16,o),
(580,-16,qs),
(670,-16,o),
(825,39,o),
(940,144,o),
(1008,293,o),
(1008,388,qs),
(1008,478,o),
(943,606,o),
(837,700,o),
(704,770,o),
(637,803,qs),
(573,834,o),
(455,895,o),
(363,971,o),
(308,1068,o),
(308,1132,qs),
(308,1186,o),
(349,1275,o),
(420,1340,o),
(514,1374,o),
(566,1374,qs),
(615,1374,o),
(704,1353,o),
(783,1311,o),
(848,1247,o),
(872,1203,q),
(948,1259,l),
(883,1365,o),
(691,1468,o),
(566,1468,qs),
(492,1468,o),
(359,1417,o),
(259,1326,o),
(200,1195,o),
(200,1118,qs),
(200,1037,o),
(264,920,o),
(368,829,o),
(497,760,o),
(564,728,qs),
(629,697,o),
(750,633,o),
(842,553,o),
(900,451,o),
(900,381,qs),
(900,304,o),
(854,193,o),
(771,121,o),
(653,86,o),
(580,86,qs),
(511,86,o),
(383,124,o),
(280,199,o),
(212,310,o),
(204,383,q)
);
}
);
width = 1129;
}
);
unicode = 83;
},
{
glyphname = T;
layers = (
{
layerId = "3C56E2CD-C7AD-4ED1-8DD7-75F0C604B46D";
shapes = (
{
closed = 1;
nodes = (
(451,0,l),
(740,0,l),
(740,1185,l),
(1182,1185,l),
(1182,1448,l),
(7,1448,l),
(7,1185,l),
(451,1185,l)
);
}
);
width = 1191;
},
{
layerId = "9D1D4149-D6AF-44E4-BA66-2DBC1F9ACF8F";
shapes = (
{
closed = 1;
nodes = (
(474,0,l),
(734,0,l),
(734,1215,l),
(1187,1215,l),
(1187,1448,l),
(20,1448,l),
(20,1215,l),
(474,1215,l)
);
}
);
width = 1208;
},
{
layerId = "D814EF8B-E2E2-4B9A-99BD-8962E8BCF366";
shapes = (
{
closed = 1;
nodes = (
(533,0,l),
(726,0,l),
(726,1285,l),
(1204,1285,l),
(1204,1448,l),
(55,1448,l),
(55,1285,l),
(533,1285,l)
);
}
);
width = 1260;
},
{
layerId = "85042BCA-33BD-4676-BF6E-DA82D0F79E7B";
shapes = (
{
closed = 1;
nodes = (
(584,0,l),
(702,0,l),
(702,1363,l),
(1207,1363,l),
(1207,1448,l),
(79,1448,l),
(79,1363,l),
(584,1363,l)
);
}
);
width = 1286;
}
);
leftKerningGroup = T2;
rightKerningGroup = T;
unicode = 84;
},
{
glyphname = U;
layers = (
{
layerId = "3C56E2CD-C7AD-4ED1-8DD7-75F0C604B46D";
shapes = (
{
closed = 1;
nodes = (
(854,-20,o),
(1067,56,o),
(1209,207,o),
(1280,434,o),
(1280,585,qs),
(1280,1448,l),
(989,1448,l),
(989,599,ls),
(989,512,o),
(966,385,o),
(904,302,o),
(796,261,o),
(711,261,qs),
(626,261,o),
(517,304,o),
(455,388,o),
(432,509,o),
(432,587,qs),
(432,1448,l),
(142,1448,l),
(142,574,ls),
(142,432,o),
(210,210,o),
(351,59,o),
(565,-20,o),
(711,-20,qs)
);
}
);
width = 1421;
},
{
layerId = "9D1D4149-D6AF-44E4-BA66-2DBC1F9ACF8F";
shapes = (
{
closed = 1;
nodes = (
(851,-20,o),
(1061,62,o),
(1196,215,o),
(1261,435,o),
(1261,574,qs),
(1261,1448,l),
(1000,1448,l),
(1000,594,ls),
(1000,500,o),
(971,362,o),
(902,273,o),
(790,230,o),
(707,230,qs),
(618,230,o),
(504,281,o),
(438,376,o),
(413,510,o),
(413,594,qs),
(413,1448,l),
(154,1448,l),
(154,564,ls),
(154,427,o),
(221,210,o),
(357,60,o),
(566,-20,o),
(707,-20,qs)
);
}
);
width = 1413;
},
{
layerId = "D814EF8B-E2E2-4B9A-99BD-8962E8BCF366";
shapes = (
{
closed = 1;
nodes = (
(827,-20,o),
(1023,64,o),
(1152,216,o),
(1215,425,o),
(1215,551,qs),
(1215,1448,l),
(1024,1448,l),
(1024,581,ls),
(1024,489,o),
(993,334,o),
(918,223,o),
(790,161,o),
(694,161,qs),
(595,161,o),
(469,227,o),
(395,341,o),
(367,494,o),
(367,581,qs),
(367,1448,l),
(176,1448,l),
(176,540,ls),
(176,415,o),
(239,208,o),
(368,61,o),
(563,-20,o),
(694,-20,qs)
);
}
);
width = 1390;
},
{
layerId = "85042BCA-33BD-4676-BF6E-DA82D0F79E7B";
shapes = (
{
closed = 1;
nodes = (
(809,-20,o),
(990,67,o),
(1110,216,o),
(1172,415,o),
(1172,526,qs),
(1172,1448,l),
(1059,1448,l),
(1059,568,ls),
(1059,477,o),
(1026,304,o),
(942,168,o),
(799,85,o),
(688,85,qs),
(579,85,o),
(438,167,o),
(356,302,o),
(324,476,o),
(324,568,qs),
(324,1448,l),
(209,1448,l),
(209,515,ls),
(209,402,o),
(269,208,o),
(389,63,o),
(568,-20,o),
(688,-20,qs)
);
}
);
width = 1378;
}
);
unicode = 85;
},
{
glyphname = V;
layers = (
{
layerId = "3C56E2CD-C7AD-4ED1-8DD7-75F0C604B46D";
shapes = (
{
closed = 1;
nodes = (
(798,0,l),
(1385,1448,l),
(1064,1448,l),
(693,486,l),
(321,1448,l),
(-4,1448,l),
(586,0,l)
);
}
);
width = 1381;
},
{
layerId = "9D1D4149-D6AF-44E4-BA66-2DBC1F9ACF8F";
shapes = (
{
closed = 1;
nodes = (
(786,0,l),
(1363,1448,l),
(1078,1448,l),
(690,422,l),
(300,1448,l),
(12,1448,l),
(592,0,l)
);
}
);
width = 1375;
},
{
layerId = "D814EF8B-E2E2-4B9A-99BD-8962E8BCF366";
shapes = (
{
closed = 1;
nodes = (
(759,0,l),
(1312,1448,l),
(1108,1448,l),
(682,278,l),
(255,1448,l),
(47,1448,l),
(603,0,l)
);
}
);
width = 1359;
},
{
layerId = "85042BCA-33BD-4676-BF6E-DA82D0F79E7B";
shapes = (
{
closed = 1;
nodes = (
(734,0,l),
(1260,1448,l),
(1146,1448,l),
(678,119,l),
(210,1448,l),
(92,1448,l),
(621,0,l)
);
}
);
width = 1352;
}
);
leftKerningGroup = T2;
unicode = 86;
},
{
glyphname = W;
layers = (
{
layerId = "3C56E2CD-C7AD-4ED1-8DD7-75F0C604B46D";
shapes = (
{
closed = 1;
nodes = (
(1608,0,l),
(2050,1448,l),
(1748,1448,l),
(1450,439,l),
(1142,1448,l),
(919,1448,l),
(610,439,l),
(312,1448,l),
(10,1448,l),
(453,0,l),
(726,0,l),
(1028,990,l),
(1334,0,l)
);
}
);
width = 2060;
},
{
layerId = "9D1D4149-D6AF-44E4-BA66-2DBC1F9ACF8F";
shapes = (
{
closed = 1;
nodes = (
(1591,0,l),
(2025,1448,l),
(1755,1448,l),
(1447,382,l),
(1126,1448,l),
(925,1448,l),
(604,382,l),
(296,1448,l),
(26,1448,l),
(460,0,l),
(711,0,l),
(1025,1037,l),
(1340,0,l)
);
}
);
width = 2051;
},
{
layerId = "D814EF8B-E2E2-4B9A-99BD-8962E8BCF366";
shapes = (
{
closed = 1;
nodes = (
(1552,0,l),
(1968,1448,l),
(1771,1448,l),
(1439,254,l),
(1089,1448,l),
(938,1448,l),
(589,254,l),
(254,1448,l),
(59,1448,l),
(473,0,l),
(676,0,l),
(1014,1141,l),
(1350,0,l)
);
}
);
width = 2026;
},
{
layerId = "85042BCA-33BD-4676-BF6E-DA82D0F79E7B";
shapes = (
{
closed = 1;
nodes = (
(1518,0,l),
(1913,1448,l),
(1797,1448,l),
(1438,113,l),
(1055,1448,l),
(959,1448,l),
(580,113,l),
(217,1448,l),
(103,1448,l),
(496,0,l),
(645,0,l),
(1010,1257,l),
(1370,0,l)
);
}
);
width = 2014;
}
);
rightKerningGroup = W;
unicode = 87;
},
{
glyphname = X;
layers = (
{
layerId = "3C56E2CD-C7AD-4ED1-8DD7-75F0C604B46D";
shapes = (
{
closed = 1;
nodes = (
(1393,0,l),
(905,724,l),
(1391,1448,l),
(1042,1448,l),
(701,902,l),
(359,1448,l),
(12,1448,l),
(497,724,l),
(10,0,l),
(357,0,l),
(699,538,l),
(1044,0,l)
);
}
);
width = 1402;
},
{
layerId = "9D1D4149-D6AF-44E4-BA66-2DBC1F9ACF8F";
shapes = (
{
closed = 1;
nodes = (
(1351,0,l),
(866,724,l),
(1349,1448,l),
(1038,1448,l),
(688,889,l),
(338,1448,l),
(28,1448,l),
(510,724,l),
(26,0,l),
(336,0,l),
(686,550,l),
(1040,0,l)
);
}
);
width = 1375;
},
{
layerId = "D814EF8B-E2E2-4B9A-99BD-8962E8BCF366";
shapes = (
{
closed = 1;
nodes = (
(1248,0,l),
(770,724,l),
(1246,1448,l),
(1022,1448,l),
(651,859,l),
(281,1448,l),
(54,1448,l),
(533,724,l),
(52,0,l),
(279,0,l),
(648,579,l),
(1024,0,l)
);
}
);
width = 1300;
},
{
layerId = "85042BCA-33BD-4676-BF6E-DA82D0F79E7B";
shapes = (
{
closed = 1;
nodes = (
(1158,0,l),
(686,724,l),
(1156,1448,l),
(1027,1448,l),
(633,825,l),
(241,1448,l),
(105,1448,l),
(581,724,l),
(103,0,l),
(239,0,l),
(630,611,l),
(1029,0,l)
);
}
);
width = 1263;
}
);
unicode = 88;
},
{
glyphname = Y;
layers = (
{
layerId = "3C56E2CD-C7AD-4ED1-8DD7-75F0C604B46D";
shapes = (
{
closed = 1;
nodes = (
(829,0,l),
(829,563,l),
(1371,1448,l),
(1015,1448,l),
(673,840,l),
(334,1448,l),
(-19,1448,l),
(523,563,l),
(523,0,l)
);
}
);
width = 1352;
},
{
layerId = "9D1D4149-D6AF-44E4-BA66-2DBC1F9ACF8F";
shapes = (
{
closed = 1;
nodes = (
(812,0,l),
(812,564,l),
(1353,1448,l),
(1036,1448,l),
(673,814,l),
(312,1448,l),
(-2,1448,l),
(541,564,l),
(541,0,l)
);
}
);
width = 1351;
},
{
layerId = "D814EF8B-E2E2-4B9A-99BD-8962E8BCF366";
shapes = (
{
closed = 1;
nodes = (
(772,0,l),
(772,565,l),
(1312,1448,l),
(1085,1448,l),
(674,755,l),
(264,1448,l),
(38,1448,l),
(580,565,l),
(580,0,l)
);
}
);
width = 1350;
},
{
layerId = "85042BCA-33BD-4676-BF6E-DA82D0F79E7B";
shapes = (
{
closed = 1;
nodes = (
(727,0,l),
(727,567,l),
(1267,1448,l),
(1139,1448,l),
(674,689,l),
(210,1448,l),
(82,1448,l),
(622,567,l),
(622,0,l)
);
}
);
width = 1349;
}
);
leftKerningGroup = T2;
rightKerningGroup = T;
unicode = 89;
},
{
glyphname = Z;
layers = (
{
layerId = "3C56E2CD-C7AD-4ED1-8DD7-75F0C604B46D";
shapes = (
{
closed = 1;
nodes = (
(1234,0,l),
(1234,261,l),
(465,261,l),
(1234,1242,l),
(1234,1448,l),
(97,1448,l),
(97,1179,l),
(825,1179,l),
(51,197,l),
(51,0,l)
);
}
);
width = 1302;
},
{
layerId = "9D1D4149-D6AF-44E4-BA66-2DBC1F9ACF8F";
shapes = (
{
closed = 1;
nodes = (
(1227,0,l),
(1227,234,l),
(424,234,l),
(1227,1259,l),
(1227,1448,l),
(106,1448,l),
(106,1209,l),
(868,1209,l),
(60,180,l),
(60,0,l)
);
}
);
width = 1303;
},
{
layerId = "D814EF8B-E2E2-4B9A-99BD-8962E8BCF366";
shapes = (
{
closed = 1;
nodes = (
(1211,0,l),
(1211,172,l),
(330,172,l),
(1211,1298,l),
(1211,1448,l),
(127,1448,l),
(127,1279,l),
(966,1279,l),
(81,142,l),
(81,0,l)
);
}
);
width = 1306;
},
{
layerId = "85042BCA-33BD-4676-BF6E-DA82D0F79E7B";
shapes = (
{
closed = 1;
nodes = (
(1193,0,l),
(1193,105,l),
(227,105,l),
(1193,1342,l),
(1193,1448,l),
(150,1448,l),
(150,1356,l),
(1074,1356,l),
(104,100,l),
(104,0,l)
);
}
);
width = 1308;
}
);
unicode = 90;
},
{
glyphname = bracketleft;
layers = (
{
layerId = "3C56E2CD-C7AD-4ED1-8DD7-75F0C604B46D";
shapes = (
{
closed = 1;
nodes = (
(636,-190,l),
(636,0,l),
(395,0,l),
(395,1444,l),
(636,1444,l),
(636,1632,l),
(171,1632,l),
(171,-190,l)
);
}
);
width = 658;
},
{
layerId = "9D1D4149-D6AF-44E4-BA66-2DBC1F9ACF8F";
shapes = (
{
closed = 1;
nodes = (
(623,-168,l),
(623,0,l),
(382,0,l),
(382,1445,l),
(623,1445,l),
(623,1611,l),
(180,1611,l),
(180,-168,l)
);
}
);
width = 656;
},
{
layerId = "D814EF8B-E2E2-4B9A-99BD-8962E8BCF366";
shapes = (
{
closed = 1;
nodes = (
(592,-118,l),
(592,-2,l),
(350,-2,l),
(350,1448,l),
(592,1448,l),
(592,1562,l),
(200,1562,l),
(200,-118,l)
);
}
);
width = 650;
},
{
layerId = "85042BCA-33BD-4676-BF6E-DA82D0F79E7B";
shapes = (
{
closed = 1;
nodes = (
(559,-63,l),
(559,-4,l),
(317,-4,l),
(317,1451,l),
(559,1451,l),
(559,1508,l),
(224,1508,l),
(224,-63,l)
);
}
);
width = 647;
}
);
unicode = 91;
},
{
glyphname = backslash;
layers = (
{
layerId = "3C56E2CD-C7AD-4ED1-8DD7-75F0C604B46D";
shapes = (
{
closed = 1;
nodes = (
(1012,-440,l),
(203,1552,l),
(-53,1552,l),
(754,-440,l)
);
}
);
width = 958;
},
{
layerId = "9D1D4149-D6AF-44E4-BA66-2DBC1F9ACF8F";
shapes = (
{
closed = 1;
nodes = (
(994,-440,l),
(195,1552,l),
(-38,1552,l),
(761,-440,l)
);
}
);
width = 956;
},
{
layerId = "D814EF8B-E2E2-4B9A-99BD-8962E8BCF366";
shapes = (
{
closed = 1;
nodes = (
(954,-441,l),
(175,1552,l),
(-4,1552,l),
(777,-441,l)
);
}
);
width = 951;
},
{
layerId = "85042BCA-33BD-4676-BF6E-DA82D0F79E7B";
shapes = (
{
closed = 1;
nodes = (
(914,-441,l),
(156,1552,l),
(37,1552,l),
(797,-441,l)
);
}
);
width = 948;
}
);
unicode = 92;
},
{
glyphname = bracketright;
layers = (
{
layerId = "3C56E2CD-C7AD-4ED1-8DD7-75F0C604B46D";
shapes = (
{
closed = 1;
nodes = (
(487,-190,l),
(487,1632,l),
(23,1632,l),
(23,1444,l),
(263,1444,l),
(263,0,l),
(23,0,l),
(23,-190,l)
);
}
);
width = 658;
},
{
layerId = "9D1D4149-D6AF-44E4-BA66-2DBC1F9ACF8F";
shapes = (
{
closed = 1;
nodes = (
(476,-168,l),
(476,1611,l),
(34,1611,l),
(34,1445,l),
(274,1445,l),
(274,0,l),
(34,0,l),
(34,-168,l)
);
}
);
width = 656;
},
{
layerId = "D814EF8B-E2E2-4B9A-99BD-8962E8BCF366";
shapes = (
{
closed = 1;
nodes = (
(449,-118,l),
(449,1562,l),
(58,1562,l),
(58,1448,l),
(298,1448,l),
(298,-2,l),
(58,-2,l),
(58,-118,l)
);
}
);
width = 649;
},
{
layerId = "85042BCA-33BD-4676-BF6E-DA82D0F79E7B";
shapes = (
{
closed = 1;
nodes = (
(421,-63,l),
(421,1508,l),
(87,1508,l),
(87,1451,l),
(328,1451,l),
(328,-4,l),
(87,-4,l),
(87,-63,l)
);
}
);
width = 646;
}
);
unicode = 93;
},
{
glyphname = asciicircum;
layers = (
{
layerId = "3C56E2CD-C7AD-4ED1-8DD7-75F0C604B46D";
shapes = (
{
closed = 1;
nodes = (
(961,813,l),
(502,1554,l),
(45,813,l),
(319,813,l),
(502,1111,l),
(686,813,l)
);
}
);
width = 1007;
},
{
layerId = "9D1D4149-D6AF-44E4-BA66-2DBC1F9ACF8F";
shapes = (
{
closed = 1;
nodes = (
(940,824,l),
(501,1533,l),
(65,824,l),
(312,824,l),
(501,1133,l),
(692,824,l)
);
}
);
width = 1005;
},
{
layerId = "D814EF8B-E2E2-4B9A-99BD-8962E8BCF366";
shapes = (
{
closed = 1;
nodes = (
(892,849,l),
(498,1483,l),
(108,849,l),
(295,849,l),
(498,1182,l),
(705,849,l)
);
}
);
width = 1000;
},
{
layerId = "85042BCA-33BD-4676-BF6E-DA82D0F79E7B";
shapes = (
{
closed = 1;
nodes = (
(841,878,l),
(498,1428,l),
(159,878,l),
(279,878,l),
(498,1238,l),
(723,878,l)
);
}
);
width = 997;
}
);
unicode = 94;
},
{
glyphname = underscore;
layers = (
{
layerId = "3C56E2CD-C7AD-4ED1-8DD7-75F0C604B46D";
shapes = (
{
closed = 1;
nodes = (
(1087,-211,l),
(1087,0,l),
(195,0,l),
(195,-211,l)
);
}
);
width = 1280;
},
{
layerId = "9D1D4149-D6AF-44E4-BA66-2DBC1F9ACF8F";
shapes = (
{
closed = 1;
nodes = (
(1074,-188,l),
(1074,0,l),
(204,0,l),
(204,-188,l)
);
}
);
width = 1277;
},
{
layerId = "D814EF8B-E2E2-4B9A-99BD-8962E8BCF366";
shapes = (
{
closed = 1;
nodes = (
(1044,-139,l),
(1044,-2,l),
(225,-2,l),
(225,-139,l)
);
}
);
width = 1269;
},
{
layerId = "85042BCA-33BD-4676-BF6E-DA82D0F79E7B";
shapes = (
{
closed = 1;
nodes = (
(1013,-84,l),
(1013,-4,l),
(251,-4,l),
(251,-84,l)
);
}
);
width = 1265;
}
);
unicode = 95;
},
{
glyphname = grave;
layers = (
{
layerId = "3C56E2CD-C7AD-4ED1-8DD7-75F0C604B46D";
shapes = (
{
closed = 1;
nodes = (
(532,1192,l),
(298,1508,l),
(10,1508,l),
(342,1192,l)
);
}
);
width = 553;
},
{
layerId = "9D1D4149-D6AF-44E4-BA66-2DBC1F9ACF8F";
shapes = (
{
closed = 1;
nodes = (
(511,1192,l),
(280,1508,l),
(13,1508,l),
(329,1192,l)
);
}
);
width = 545;
},
{
layerId = "D814EF8B-E2E2-4B9A-99BD-8962E8BCF366";
shapes = (
{
closed = 1;
nodes = (
(485,1192,l),
(261,1496,l),
(45,1496,l),
(331,1192,l)
);
}
);
width = 549;
},
{
layerId = "85042BCA-33BD-4676-BF6E-DA82D0F79E7B";
shapes = (
{
closed = 1;
nodes = (
(457,1192,l),
(240,1483,l),
(80,1483,l),
(333,1192,l)
);
}
);
width = 551;
}
);
unicode = 96;
},
{
glyphname = a;
layers = (
{
layerId = "3C56E2CD-C7AD-4ED1-8DD7-75F0C604B46D";
shapes = (
{
closed = 1;
nodes = (
(474,-20,o),
(562,-5,o),
(639,30,o),
(708,88,o),
(739,130,q),
(760,0,l),
(989,0,l),
(989,618,ls),
(989,730,o),
(925,903,o),
(807,1022,o),
(637,1084,o),
(531,1084,qs),
(385,1084,o),
(169,967,o),
(90,857,q),
(306,702,l),
(342,766,o),
(456,840,o),
(534,840,qs),
(578,840,o),
(647,814,o),
(695,760,o),
(720,676,o),
(720,618,q),
(443,618,ls),
(369,618,o),
(222,591,o),
(106,522,o),
(34,405,o),
(34,316,qs),
(34,235,o),
(100,110,o),
(210,25,o),
(350,-20,o),
(423,-20,qs)
);
},
{
closed = 1;
nodes = (
(441,216,o),
(384,231,o),
(344,257,o),
(321,293,o),
(321,314,qs),
(321,345,o),
(355,385,o),
(405,409,o),
(463,418,o),
(488,418,qs),
(720,418,l),
(720,373,o),
(673,299,o),
(601,245,o),
(515,216,o),
(475,216,qs)
);
}
);
width = 1098;
},
{
layerId = "9D1D4149-D6AF-44E4-BA66-2DBC1F9ACF8F";
shapes = (
{
closed = 1;
nodes = (
(491,-20,o),
(584,-1,o),
(665,40,o),
(736,103,o),
(766,146,q),
(782,0,l),
(988,0,l),
(988,645,ls),
(988,741,o),
(929,902,o),
(814,1019,o),
(645,1084,o),
(535,1084,qs),
(393,1084,o),
(181,975,o),
(98,864,q),
(290,714,l),
(327,781,o),
(451,866,o),
(540,866,qs),
(593,866,o),
(672,831,o),
(724,769,o),
(750,683,o),
(750,632,q),
(476,632,ls),
(398,632,o),
(244,606,o),
(122,538,o),
(46,419,o),
(46,326,qs),
(46,241,o),
(111,111,o),
(219,24,o),
(361,-20,o),
(439,-20,qs)
);
},
{
closed = 1;
nodes = (
(442,190,o),
(382,204,o),
(333,234,o),
(302,282,o),
(302,316,qs),
(302,352,o),
(337,404,o),
(391,437,o),
(457,452,o),
(487,452,qs),
(750,452,l),
(747,397,o),
(700,301,o),
(625,230,o),
(526,190,o),
(472,190,qs)
);
}
);
width = 1103;
},
{
layerId = "D814EF8B-E2E2-4B9A-99BD-8962E8BCF366";
shapes = (
{
closed = 1;
nodes = (
(485,-20,o),
(591,6,o),
(681,58,o),
(755,136,o),
(784,189,q),
(791,0,l),
(943,0,l),
(943,650,ls),
(943,746,o),
(888,906,o),
(781,1020,o),
(622,1084,o),
(518,1084,qs),
(388,1084,o),
(186,983,o),
(110,878,q),
(245,770,l),
(292,844,o),
(434,927,o),
(527,927,qs),
(598,927,o),
(693,876,o),
(750,790,o),
(775,676,o),
(775,614,q),
(521,614,ls),
(442,614,o),
(280,590,o),
(149,522,o),
(66,401,o),
(66,304,qs),
(66,225,o),
(123,104,o),
(220,22,o),
(351,-20,o),
(425,-20,qs)
);
},
{
closed = 1;
nodes = (
(406,131,o),
(336,151,o),
(283,192,o),
(252,255,o),
(252,298,qs),
(252,358,o),
(309,429,o),
(395,468,o),
(497,480,o),
(543,480,qs),
(775,480,l),
(774,412,o),
(723,286,o),
(635,189,o),
(516,131,o),
(446,131,qs)
);
}
);
width = 1075;
},
{
layerId = "85042BCA-33BD-4676-BF6E-DA82D0F79E7B";
shapes = (
{
closed = 1;
nodes = (
(490,-20,o),
(609,14,o),
(708,78,o),
(788,174,o),
(816,237,q),
(812,0,l),
(903,0,l),
(903,656,ls),
(903,752,o),
(852,911,o),
(754,1023,o),
(607,1084,o),
(511,1084,qs),
(394,1084,o),
(203,992,o),
(134,895,q),
(206,832,l),
(264,913,o),
(425,995,o),
(523,995,qs),
(613,995,o),
(726,926,o),
(789,811,o),
(813,669,o),
(813,593,q),
(581,593,ls),
(502,593,o),
(331,571,o),
(190,504,o),
(98,382,o),
(98,280,qs),
(98,207,o),
(146,95,o),
(232,19,o),
(351,-20,o),
(421,-20,qs)
);
},
{
closed = 1;
nodes = (
(378,67,o),
(296,94,o),
(238,147,o),
(207,227,o),
(207,279,qs),
(207,364,o),
(288,458,o),
(410,501,o),
(554,510,o),
(617,510,qs),
(813,510,l),
(813,429,o),
(759,270,o),
(658,144,o),
(515,67,o),
(428,67,qs)
);
}
);
width = 1062;
}
);
leftKerningGroup = a;
unicode = 97;
},
{
glyphname = b;
layers = (
{
layerId = "3C56E2CD-C7AD-4ED1-8DD7-75F0C604B46D";
shapes = (
{
closed = 1;
nodes = (
(826,-20,o),
(985,67,o),
(1100,218,o),
(1164,423,o),
(1164,541,qs),
(1164,658,o),
(1100,856,o),
(983,1002,o),
(819,1084,o),
(720,1084,qs),
(625,1084,o),
(482,1029,o),
(434,973,q),
(434,1448,l),
(143,1448,l),
(143,0,l),
(434,0,l),
(434,91,l),
(484,35,o),
(633,-20,o),
(732,-20,qs)
);
},
{
closed = 1;
nodes = (
(593,240,o),
(505,285,o),
(443,363,o),
(409,470,o),
(409,532,qs),
(409,596,o),
(442,705,o),
(504,784,o),
(593,829,o),
(648,829,qs),
(701,829,o),
(788,784,o),
(849,704,o),
(882,595,o),
(882,532,qs),
(882,468,o),
(850,361,o),
(790,283,o),
(703,240,o),
(648,240,qs)
);
}
);
width = 1220;
},
{
layerId = "9D1D4149-D6AF-44E4-BA66-2DBC1F9ACF8F";
shapes = (
{
closed = 1;
nodes = (
(827,-20,o),
(996,75,o),
(1108,230,o),
(1164,429,o),
(1164,532,qs),
(1164,636,o),
(1110,834,o),
(998,989,o),
(827,1084,o),
(710,1084,qs),
(624,1084,o),
(471,1027,o),
(415,961,q),
(415,1448,l),
(157,1448,l),
(157,0,l),
(415,0,l),
(415,102,l),
(472,37,o),
(629,-20,o),
(714,-20,qs)
);
},
{
closed = 1;
nodes = (
(586,210,o),
(487,259,o),
(423,346,o),
(392,463,o),
(392,532,qs),
(392,595,o),
(420,713,o),
(482,804,o),
(582,858,o),
(653,858,qs),
(724,858,o),
(823,803,o),
(884,712,o),
(912,595,o),
(912,532,qs),
(912,468,o),
(885,352,o),
(823,263,o),
(724,210,o),
(653,210,qs)
);
}
);
width = 1223;
},
{
layerId = "D814EF8B-E2E2-4B9A-99BD-8962E8BCF366";
shapes = (
{
closed = 1;
nodes = (
(787,-20,o),
(950,78,o),
(1056,235,o),
(1106,432,o),
(1106,531,qs),
(1106,630,o),
(1056,828,o),
(951,986,o),
(786,1084,o),
(672,1084,qs),
(573,1084,o),
(412,1009,o),
(353,930,q),
(353,1448,l),
(170,1448,l),
(170,0,l),
(353,0,l),
(353,132,l),
(413,51,o),
(576,-20,o),
(674,-20,qs)
);
},
{
closed = 1;
nodes = (
(549,142,o),
(438,210,o),
(368,320,o),
(337,459,o),
(337,531,qs),
(337,600,o),
(367,740,o),
(435,852,o),
(545,923,o),
(626,923,qs),
(708,923,o),
(822,854,o),
(893,742,o),
(925,602,o),
(925,531,qs),
(925,461,o),
(894,322,o),
(823,211,o),
(710,142,o),
(629,142,qs)
);
}
);
width = 1184;
},
{
layerId = "85042BCA-33BD-4676-BF6E-DA82D0F79E7B";
shapes = (
{
closed = 1;
nodes = (
(756,-20,o),
(913,81,o),
(1010,240,o),
(1055,437,o),
(1055,531,qs),
(1055,626,o),
(1010,822,o),
(911,982,o),
(755,1084,o),
(644,1084,qs),
(530,1084,o),
(360,990,o),
(298,896,q),
(298,1448,l),
(197,1448,l),
(197,0,l),
(298,0,l),
(298,165,l),
(359,68,o),
(530,-20,o),
(643,-20,qs)
);
},
{
closed = 1;
nodes = (
(522,66,o),
(396,155,o),
(322,292,o),
(289,456,o),
(289,531,qs),
(289,606,o),
(321,769,o),
(395,906,o),
(518,995,o),
(610,995,qs),
(704,995,o),
(834,910,o),
(916,777,o),
(952,611,o),
(952,531,qs),
(952,454,o),
(917,288,o),
(837,153,o),
(709,66,o),
(616,66,qs)
);
}
);
width = 1165;
}
);
unicode = 98;
},
{
glyphname = c;
layers = (
{
layerId = "3C56E2CD-C7AD-4ED1-8DD7-75F0C604B46D";
shapes = (
{
closed = 1;
nodes = (
(629,-20,o),
(770,23,o),
(887,104,o),
(976,220,o),
(1002,292,q),
(746,387,l),
(736,354,o),
(701,302,o),
(653,266,o),
(592,247,o),
(557,247,qs),
(505,247,o),
(422,286,o),
(363,360,o),
(332,464,o),
(332,530,qs),
(332,595,o),
(364,700,o),
(423,775,o),
(506,816,o),
(557,816,qs),
(593,816,o),
(654,798,o),
(702,762,o),
(737,709,o),
(746,675,q),
(1013,777,l),
(981,850,o),
(888,964,o),
(771,1043,o),
(634,1084,o),
(557,1084,qs),
(442,1084,o),
(253,1005,o),
(120,859,o),
(47,655,o),
(47,529,qs),
(47,405,o),
(120,203,o),
(252,59,o),
(437,-20,o),
(550,-20,qs)
);
}
);
width = 1037;
},
{
layerId = "9D1D4149-D6AF-44E4-BA66-2DBC1F9ACF8F";
shapes = (
{
closed = 1;
nodes = (
(648,-20,o),
(786,21,o),
(900,100,o),
(987,215,o),
(1014,288,q),
(777,379,l),
(766,341,o),
(727,280,o),
(672,237,o),
(604,214,o),
(564,214,qs),
(495,214,o),
(400,267,o),
(340,355,o),
(314,469,o),
(314,530,qs),
(314,591,o),
(342,706,o),
(402,795,o),
(497,849,o),
(564,849,qs),
(602,849,o),
(670,828,o),
(725,787,o),
(766,725,o),
(777,684,q),
(1024,782,l),
(993,853,o),
(901,965,o),
(785,1043,o),
(646,1084,o),
(568,1084,qs),
(450,1084,o),
(262,998,o),
(130,848,o),
(60,646,o),
(60,530,qs),
(60,423,o),
(124,224,o),
(251,71,o),
(443,-20,o),
(570,-20,qs)
);
}
);
width = 1055;
},
{
layerId = "D814EF8B-E2E2-4B9A-99BD-8962E8BCF366";
shapes = (
{
closed = 1;
nodes = (
(632,-20,o),
(760,18,o),
(865,90,o),
(945,197,o),
(970,266,q),
(803,335,l),
(790,293,o),
(743,223,o),
(678,173,o),
(599,146,o),
(554,146,qs),
(473,146,o),
(363,214,o),
(297,324,o),
(269,461,o),
(269,530,qs),
(269,599,o),
(299,737,o),
(366,848,o),
(475,917,o),
(554,917,qs),
(597,917,o),
(677,890,o),
(743,841,o),
(791,771,o),
(803,728,q),
(981,802,l),
(952,868,o),
(866,973,o),
(758,1045,o),
(629,1084,o),
(557,1084,qs),
(441,1084,o),
(264,992,o),
(144,837,o),
(83,637,o),
(83,529,qs),
(83,424,o),
(141,226,o),
(259,73,o),
(438,-20,o),
(559,-20,qs)
);
}
);
width = 1029;
},
{
layerId = "85042BCA-33BD-4676-BF6E-DA82D0F79E7B";
shapes = (
{
closed = 1;
nodes = (
(623,-20,o),
(739,14,o),
(834,81,o),
(905,178,o),
(930,242,q),
(839,287,l),
(825,239,o),
(767,160,o),
(692,103,o),
(599,70,o),
(550,70,qs),
(455,70,o),
(332,156,o),
(257,288,o),
(227,452,o),
(227,530,qs),
(227,607,o),
(259,770,o),
(333,905,o),
(457,992,o),
(550,992,qs),
(599,992,o),
(692,959,o),
(770,901,o),
(827,822,o),
(839,776,q),
(942,825,l),
(915,885,o),
(836,981,o),
(737,1048,o),
(619,1084,o),
(553,1084,qs),
(440,1084,o),
(275,985,o),
(168,825,o),
(118,628,o),
(118,529,qs),
(118,426,o),
(168,228,o),
(276,73,o),
(441,-20,o),
(555,-20,qs)
);
}
);
width = 1016;
}
);
leftKerningGroup = a;
unicode = 99;
},
{
glyphname = d;
layers = (
{
layerId = "3C56E2CD-C7AD-4ED1-8DD7-75F0C604B46D";
shapes = (
{
closed = 1;
nodes = (
(600,-20,o),
(753,45,o),
(797,105,q),
(811,0,l),
(1069,0,l),
(1069,1448,l),
(784,1448,l),
(784,972,l),
(737,1028,o),
(590,1084,o),
(495,1084,qs),
(399,1084,o),
(237,1004,o),
(120,860,o),
(54,661,o),
(54,543,qs),
(54,417,o),
(119,209,o),
(238,61,o),
(405,-20,o),
(507,-20,qs)
);
},
{
closed = 1;
nodes = (
(519,239,o),
(431,279,o),
(370,354,o),
(338,463,o),
(338,532,qs),
(338,600,o),
(372,711,o),
(433,789,o),
(520,831,o),
(574,831,qs),
(628,831,o),
(715,789,o),
(775,712,o),
(808,601,o),
(808,532,qs),
(808,464,o),
(776,355,o),
(715,279,o),
(628,239,o),
(574,239,qs)
);
}
);
width = 1212;
},
{
layerId = "9D1D4149-D6AF-44E4-BA66-2DBC1F9ACF8F";
shapes = (
{
closed = 1;
nodes = (
(611,-20,o),
(771,44,o),
(826,115,q),
(838,0,l),
(1070,0,l),
(1070,1448,l),
(816,1448,l),
(816,962,l),
(760,1027,o),
(603,1084,o),
(518,1084,qs),
(405,1084,o),
(236,989,o),
(124,833,o),
(68,635,o),
(68,532,qs),
(68,429,o),
(122,231,o),
(234,75,o),
(405,-20,o),
(522,-20,qs)
);
},
{
closed = 1;
nodes = (
(514,210,o),
(416,259,o),
(353,345,o),
(322,463,o),
(322,532,qs),
(322,595,o),
(350,712,o),
(411,803,o),
(510,858,o),
(581,858,qs),
(652,858,o),
(750,803,o),
(811,713,o),
(838,595,o),
(838,532,qs),
(838,462,o),
(808,344,o),
(745,258,o),
(648,210,o),
(581,210,qs)
);
}
);
width = 1218;
},
{
layerId = "D814EF8B-E2E2-4B9A-99BD-8962E8BCF366";
shapes = (
{
closed = 1;
nodes = (
(622,-20,o),
(784,53,o),
(845,138,q),
(851,0,l),
(1023,0,l),
(1023,1448,l),
(841,1448,l),
(841,932,l),
(782,1012,o),
(617,1084,o),
(520,1084,qs),
(407,1084,o),
(244,986,o),
(139,828,o),
(89,630,o),
(89,531,qs),
(89,433,o),
(138,236,o),
(243,79,o),
(405,-20,o),
(518,-20,qs)
);
},
{
closed = 1;
nodes = (
(485,145,o),
(374,211,o),
(304,320,o),
(273,459,o),
(273,532,qs),
(273,602,o),
(304,740,o),
(373,850,o),
(485,919,o),
(566,919,qs),
(648,919,o),
(759,851,o),
(827,741,o),
(857,602,o),
(857,532,qs),
(857,459,o),
(826,320,o),
(757,211,o),
(646,145,o),
(566,145,qs)
);
}
);
width = 1185;
},
{
layerId = "85042BCA-33BD-4676-BF6E-DA82D0F79E7B";
shapes = (
{
closed = 1;
nodes = (
(643,-20,o),
(811,65,o),
(877,164,q),
(875,0,l),
(983,0,l),
(983,1448,l),
(879,1448,l),
(879,899,l),
(817,996,o),
(644,1084,o),
(532,1084,qs),
(421,1084,o),
(265,982,o),
(166,822,o),
(122,626,o),
(122,531,qs),
(122,439,o),
(167,244,o),
(263,84,o),
(416,-20,o),
(524,-20,qs)
);
},
{
closed = 1;
nodes = (
(464,73,o),
(337,159,o),
(261,292,o),
(230,455,o),
(230,532,qs),
(230,610,o),
(264,772,o),
(340,903,o),
(467,987,o),
(559,987,qs),
(653,987,o),
(779,904,o),
(856,771,o),
(889,610,o),
(889,532,qs),
(889,456,o),
(856,293,o),
(781,159,o),
(654,73,o),
(559,73,qs)
);
}
);
width = 1169;
}
);
leftKerningGroup = a;
unicode = 100;
},
{
glyphname = e;
layers = (
{
layerId = "3C56E2CD-C7AD-4ED1-8DD7-75F0C604B46D";
shapes = (
{
closed = 1;
nodes = (
(626,-12,o),
(749,5,o),
(860,47,o),
(962,117,o),
(1010,170,q),
(816,341,l),
(788,312,o),
(733,277,o),
(675,257,o),
(609,251,o),
(570,251,qs),
(522,251,o),
(446,272,o),
(388,314,o),
(350,378,o),
(341,421,q),
(1040,421,l),
(1043,429,o),
(1052,480,o),
(1052,514,qs),
(1052,655,o),
(988,869,o),
(863,1012,o),
(677,1084,o),
(554,1084,qs),
(440,1084,o),
(253,1004,o),
(119,855,o),
(45,645,o),
(45,515,qs),
(45,396,o),
(118,201,o),
(252,63,o),
(441,-12,o),
(556,-12,qs)
);
},
{
closed = 1;
nodes = (
(341,618,l),
(349,679,o),
(387,766,o),
(441,824,o),
(512,851,o),
(554,851,qs),
(605,851,o),
(683,824,o),
(738,767,o),
(770,679,o),
(774,618,q)
);
}
);
width = 1102;
},
{
layerId = "9D1D4149-D6AF-44E4-BA66-2DBC1F9ACF8F";
shapes = (
{
closed = 1;
nodes = (
(661,-12,o),
(784,9,o),
(894,53,o),
(991,119,o),
(1034,164,q),
(855,324,l),
(827,292,o),
(768,252,o),
(702,229,o),
(630,220,o),
(589,220,qs),
(534,220,o),
(445,250,o),
(380,309,o),
(340,395,o),
(334,451,q),
(1064,451,l),
(1069,464,o),
(1073,503,o),
(1073,530,qs),
(1073,665,o),
(1007,872,o),
(879,1012,o),
(692,1084,o),
(571,1084,qs),
(457,1084,o),
(269,1004,o),
(133,857,o),
(58,652,o),
(58,526,qs),
(58,406,o),
(135,207,o),
(275,66,o),
(471,-12,o),
(591,-12,qs)
);
},
{
closed = 1;
nodes = (
(334,631,l),
(343,691,o),
(383,783,o),
(443,844,o),
(523,874,o),
(571,874,qs),
(626,874,o),
(712,845,o),
(774,784,o),
(811,693,o),
(818,631,q)
);
}
);
width = 1132;
},
{
layerId = "D814EF8B-E2E2-4B9A-99BD-8962E8BCF366";
shapes = (
{
closed = 1;
nodes = (
(635,-12,o),
(753,8,o),
(858,49,o),
(949,110,o),
(988,151,q),
(861,261,l),
(831,229,o),
(765,187,o),
(692,163,o),
(613,153,o),
(570,153,qs),
(504,153,o),
(399,197,o),
(323,280,o),
(281,398,o),
(278,472,q),
(1013,472,l),
(1016,483,o),
(1019,513,o),
(1019,531,qs),
(1019,669,o),
(960,876,o),
(843,1015,o),
(669,1084,o),
(554,1084,qs),
(450,1084,o),
(276,1003,o),
(151,855,o),
(81,650,o),
(81,525,qs),
(81,405,o),
(152,207,o),
(280,66,o),
(460,-12,o),
(569,-12,qs)
);
},
{
closed = 1;
nodes = (
(278,613,l),
(284,688,o),
(327,805,o),
(398,885,o),
(495,927,o),
(554,927,qs),
(619,927,o),
(723,885,o),
(796,805,o),
(838,688,o),
(841,613,q)
);
}
);
width = 1094;
},
{
layerId = "85042BCA-33BD-4676-BF6E-DA82D0F79E7B";
shapes = (
{
closed = 1;
nodes = (
(622,-12,o),
(732,7,o),
(830,43,o),
(915,100,o),
(951,136,q),
(881,192,l),
(849,159,o),
(776,115,o),
(695,88,o),
(607,77,o),
(563,77,qs),
(486,77,o),
(362,137,o),
(274,247,o),
(227,403,o),
(229,496,q),
(968,496,l),
(970,506,o),
(971,524,o),
(971,531,qs),
(971,674,o),
(920,882,o),
(815,1018,o),
(656,1084,o),
(548,1084,qs),
(455,1084,o),
(297,1002,o),
(183,855,o),
(119,649,o),
(119,525,qs),
(119,405,o),
(182,207,o),
(298,65,o),
(462,-12,o),
(560,-12,qs)
);
},
{
closed = 1;
nodes = (
(229,595,l),
(232,685,o),
(279,829,o),
(362,930,o),
(477,986,o),
(548,986,qs),
(624,986,o),
(747,930,o),
(835,829,o),
(880,685,o),
(879,595,q)
);
}
);
width = 1075;
}
);
leftKerningGroup = a;
unicode = 101;
},
{
glyphname = f;
layers = (
{
layerId = "3C56E2CD-C7AD-4ED1-8DD7-75F0C604B46D";
shapes = (
{
closed = 1;
nodes = (
(204,0,l),
(484,0,l),
(484,828,l),
(705,828,l),
(705,1064,l),
(484,1064,l),
(484,1118,ls),
(484,1168,o),
(530,1217,o),
(565,1217,qs),
(583,1217,o),
(615,1204,o),
(632,1193,q),
(727,1425,l),
(678,1447,o),
(583,1468,o),
(529,1468,qs),
(463,1468,o),
(346,1423,o),
(258,1341,o),
(207,1226,o),
(207,1157,qs),
(207,1064,l),
(16,1064,l),
(16,828,l),
(204,828,l)
);
}
);
width = 708;
},
{
layerId = "9D1D4149-D6AF-44E4-BA66-2DBC1F9ACF8F";
shapes = (
{
closed = 1;
nodes = (
(216,0,l),
(466,0,l),
(466,855,l),
(714,855,l),
(714,1064,l),
(466,1064,l),
(466,1155,ls),
(466,1204,o),
(523,1246,o),
(564,1246,qs),
(584,1246,o),
(624,1236,o),
(647,1226,q),
(732,1426,l),
(683,1447,o),
(590,1468,o),
(543,1468,qs),
(471,1468,o),
(351,1428,o),
(266,1354,o),
(218,1251,o),
(218,1189,qs),
(218,1064,l),
(22,1064,l),
(22,855,l),
(216,855,l)
);
}
);
width = 722;
},
{
layerId = "D814EF8B-E2E2-4B9A-99BD-8962E8BCF366";
shapes = (
{
closed = 1;
nodes = (
(224,0,l),
(411,0,l),
(411,914,l),
(693,914,l),
(693,1064,l),
(411,1064,l),
(411,1191,ls),
(411,1254,o),
(476,1309,o),
(534,1309,qs),
(562,1309,o),
(612,1297,o),
(636,1284,q),
(698,1429,l),
(654,1449,o),
(566,1468,o),
(521,1468,qs),
(458,1468,o),
(349,1434,o),
(270,1368,o),
(225,1273,o),
(225,1211,qs),
(225,1064,l),
(30,1064,l),
(30,914,l),
(224,914,l)
);
}
);
width = 715;
},
{
layerId = "85042BCA-33BD-4676-BF6E-DA82D0F79E7B";
shapes = (
{
closed = 1;
nodes = (
(236,0,l),
(353,0,l),
(353,980,l),
(672,980,l),
(672,1064,l),
(353,1064,l),
(353,1232,ls),
(353,1311,o),
(427,1380,o),
(503,1380,qs),
(540,1380,o),
(600,1365,o),
(627,1349,q),
(662,1432,l),
(624,1449,o),
(542,1468,o),
(499,1468,qs),
(445,1468,o),
(351,1440,o),
(278,1383,o),
(236,1296,o),
(236,1237,qs),
(236,1064,l),
(42,1064,l),
(42,980,l),
(236,980,l)
);
}
);
width = 712;
}
);
leftKerningGroup = a;
unicode = 102;
},
{
glyphname = g;
layers = (
{
layerId = "3C56E2CD-C7AD-4ED1-8DD7-75F0C604B46D";
shapes = (
{
closed = 1;
nodes = (
(80,-74,l),
(78,-87,o),
(76,-110,o),
(76,-120,qs),
(76,-203,o),
(146,-338,o),
(272,-436,o),
(448,-489,o),
(554,-489,qs),
(667,-489,o),
(844,-439,o),
(967,-345,o),
(1031,-207,o),
(1031,-120,qs),
(1031,-55,o),
(990,41,o),
(897,110,o),
(748,157,o),
(641,172,qs),
(567,183,o),
(449,206,o),
(366,229,o),
(322,252,o),
(322,262,qs),
(322,277,o),
(334,300,o),
(346,308,q),
(394,288,o),
(491,269,o),
(542,269,qs),
(641,269,o),
(809,325,o),
(931,427,o),
(1000,571,o),
(1000,658,qs),
(1000,720,o),
(958,838,o),
(924,880,q),
(1067,996,l),
(923,1170,l),
(762,1035,l),
(699,1064,o),
(588,1084,o),
(523,1084,qs),
(426,1084,o),
(264,1027,o),
(147,925,o),
(81,785,o),
(81,702,qs),
(81,627,o),
(134,483,o),
(184,429,q),
(131,382,o),
(83,274,o),
(83,205,qs),
(83,139,o),
(129,39,o),
(174,6,q)
);
},
{
closed = 1;
nodes = (
(506,500,o),
(442,528,o),
(396,577,o),
(369,646,o),
(369,686,qs),
(369,727,o),
(394,794,o),
(440,842,o),
(504,868,o),
(543,868,qs),
(580,868,o),
(642,841,o),
(687,792,o),
(713,725,o),
(713,686,qs),
(713,644,o),
(688,575,o),
(643,527,o),
(581,500,o),
(543,500,qs)
);
},
{
closed = 1;
nodes = (
(506,-273,o),
(416,-254,o),
(351,-218,o),
(313,-163,o),
(307,-127,q),
(338,-59,l),
(398,-72,o),
(519,-89,o),
(579,-94,qs),
(629,-98,o),
(700,-110,o),
(744,-129,o),
(764,-155,o),
(764,-173,qs),
(764,-197,o),
(737,-234,o),
(686,-259,o),
(611,-273,o),
(564,-273,qs)
);
}
);
width = 1082;
},
{
layerId = "9D1D4149-D6AF-44E4-BA66-2DBC1F9ACF8F";
shapes = (
{
closed = 1;
nodes = (
(91,-67,l),
(89,-77,o),
(87,-100,o),
(87,-112,qs),
(87,-213,o),
(174,-354,o),
(313,-443,o),
(486,-484,o),
(572,-484,qs),
(657,-484,o),
(822,-447,o),
(952,-363,o),
(1032,-229,o),
(1032,-132,qs),
(1032,-41,o),
(947,70,o),
(814,135,o),
(651,167,o),
(574,178,qs),
(521,186,o),
(426,199,o),
(354,222,o),
(312,259,o),
(312,292,qs),
(312,310,o),
(328,338,o),
(342,348,q),
(389,328,o),
(487,308,o),
(541,308,qs),
(627,308,o),
(781,362,o),
(897,463,o),
(966,606,o),
(966,695,qs),
(966,746,o),
(945,841,o),
(922,883,q),
(1071,1002,l),
(950,1159,l),
(780,1024,l),
(725,1054,o),
(605,1084,o),
(537,1084,qs),
(452,1084,o),
(297,1032,o),
(179,933,o),
(109,792,o),
(109,703,qs),
(109,636,o),
(152,514,o),
(194,459,q),
(146,417,o),
(98,309,o),
(98,242,qs),
(98,173,o),
(148,69,o),
(199,34,q)
);
},
{
closed = 1;
nodes = (
(501,514,o),
(436,541,o),
(391,589,o),
(367,657,o),
(367,698,qs),
(367,739,o),
(391,809,o),
(436,861,o),
(501,891,o),
(543,891,qs),
(585,891,o),
(650,861,o),
(695,809,o),
(718,739,o),
(718,698,qs),
(718,656,o),
(695,588,o),
(651,540,o),
(585,514,o),
(543,514,qs)
);
},
{
closed = 1;
nodes = (
(532,-288,o),
(439,-273,o),
(361,-235,o),
(305,-170,o),
(298,-119,q),
(350,-29,l),
(367,-33,o),
(423,-41,o),
(458,-43,qs),
(510,-47,o),
(628,-62,o),
(729,-90,o),
(796,-134,o),
(796,-167,qs),
(796,-206,o),
(749,-253,o),
(680,-279,o),
(604,-288,o),
(575,-288,qs)
);
}
);
width = 1090;
},
{
layerId = "D814EF8B-E2E2-4B9A-99BD-8962E8BCF366";
shapes = (
{
closed = 1;
nodes = (
(109,-73,l),
(107,-82,o),
(106,-103,o),
(106,-114,qs),
(106,-207,o),
(189,-344,o),
(321,-432,o),
(486,-475,o),
(567,-475,qs),
(644,-475,o),
(797,-439,o),
(921,-360,o),
(998,-236,o),
(998,-148,qs),
(998,-60,o),
(920,49,o),
(795,113,o),
(642,144,o),
(567,155,qs),
(510,164,o),
(407,181,o),
(328,211,o),
(281,262,o),
(281,304,qs),
(281,327,o),
(304,366,o),
(323,379,q),
(369,357,o),
(468,337,o),
(522,337,qs),
(605,337,o),
(750,389,o),
(858,486,o),
(921,624,o),
(921,709,qs),
(921,756,o),
(902,847,o),
(881,888,q),
(1043,1016,l),
(950,1130,l),
(785,1000,l),
(729,1044,o),
(596,1084,o),
(523,1084,qs),
(441,1084,o),
(294,1032,o),
(183,934,o),
(119,797,o),
(119,711,qs),
(119,644,o),
(160,518,o),
(205,466,q),
(163,429,o),
(123,336,o),
(123,279,qs),
(123,207,o),
(187,101,o),
(246,66,q)
);
},
{
closed = 1;
nodes = (
(471,486,o),
(391,519,o),
(335,579,o),
(305,662,o),
(305,712,qs),
(305,760,o),
(336,844,o),
(393,907,o),
(473,943,o),
(522,943,qs),
(571,943,o),
(651,907,o),
(709,844,o),
(741,760,o),
(741,712,qs),
(741,662,o),
(711,579,o),
(654,519,o),
(573,486,o),
(522,486,qs)
);
},
{
closed = 1;
nodes = (
(528,-322,o),
(422,-301,o),
(332,-253,o),
(270,-175,o),
(267,-118,q),
(370,15,l),
(391,10,o),
(452,-1,o),
(488,-5,qs),
(542,-11,o),
(663,-32,o),
(765,-69,o),
(832,-125,o),
(832,-166,qs),
(832,-212,o),
(779,-272,o),
(701,-308,o),
(612,-322,o),
(576,-322,qs)
);
}
);
width = 1073;
},
{
layerId = "85042BCA-33BD-4676-BF6E-DA82D0F79E7B";
shapes = (
{
closed = 1;
nodes = (
(135,-79,l),
(133,-88,o),
(132,-106,o),
(132,-116,qs),
(132,-201,o),
(210,-331,o),
(335,-420,o),
(489,-465,o),
(566,-465,qs),
(632,-465,o),
(775,-430,o),
(890,-357,o),
(965,-244,o),
(965,-165,qs),
(965,-80,o),
(895,25,o),
(782,88,o),
(638,119,o),
(566,130,qs),
(504,139,o),
(391,160,o),
(304,201,o),
(253,265,o),
(253,318,qs),
(253,347,o),
(283,398,o),
(307,414,q),
(353,390,o),
(453,369,o),
(506,369,qs),
(584,369,o),
(720,419,o),
(821,512,o),
(878,642,o),
(878,724,qs),
(878,767,o),
(862,855,o),
(842,894,q),
(1016,1031,l),
(956,1099,l),
(797,973,l),
(738,1034,o),
(592,1084,o),
(513,1084,qs),
(432,1084,o),
(296,1032,o),
(194,937,o),
(136,802,o),
(136,720,qs),
(136,653,o),
(177,524,o),
(223,475,q),
(189,444,o),
(156,366,o),
(156,320,qs),
(156,245,o),
(235,136,o),
(303,102,q)
);
},
{
closed = 1;
nodes = (
(444,456,o),
(346,495,o),
(278,567,o),
(241,667,o),
(241,727,qs),
(241,783,o),
(281,883,o),
(351,957,o),
(448,1000,o),
(504,1000,qs),
(561,1000,o),
(659,957,o),
(730,883,o),
(771,784,o),
(771,727,qs),
(771,667,o),
(732,567,o),
(662,497,o),
(564,456,o),
(504,456,qs)
);
},
{
closed = 1;
nodes = (
(531,-360,o),
(409,-331,o),
(305,-273,o),
(237,-181,o),
(239,-117,q),
(399,65,l),
(423,57,o),
(488,43,o),
(526,37,q),
(584,30,o),
(708,3,o),
(810,-44,o),
(877,-113,o),
(877,-165,qs),
(877,-218,o),
(818,-293,o),
(731,-338,o),
(629,-360,o),
(584,-360,qs)
);
}
);
width = 1064;
}
);
leftKerningGroup = a;
unicode = 103;
},
{
glyphname = h;
layers = (
{
layerId = "3C56E2CD-C7AD-4ED1-8DD7-75F0C604B46D";
shapes = (
{
closed = 1;
nodes = (
(143,0,l),
(429,0,l),
(429,504,ls),
(429,581,o),
(460,700,o),
(520,781,o),
(607,823,o),
(662,823,qs),
(698,823,o),
(756,795,o),
(796,743,o),
(817,668,o),
(817,620,qs),
(817,0,l),
(1102,0,l),
(1102,653,ls),
(1102,750,o),
(1047,909,o),
(947,1022,o),
(807,1084,o),
(722,1084,qs),
(675,1084,o),
(593,1070,o),
(521,1040,o),
(458,995,o),
(429,964,q),
(429,1448,l),
(143,1448,l)
);
}
);
width = 1211;
},
{
layerId = "9D1D4149-D6AF-44E4-BA66-2DBC1F9ACF8F";
shapes = (
{
closed = 1;
nodes = (
(157,0,l),
(411,0,l),
(411,592,ls),
(411,644,o),
(454,738,o),
(527,809,o),
(624,851,o),
(677,851,qs),
(720,851,o),
(784,822,o),
(826,763,o),
(847,675,o),
(847,615,qs),
(847,0,l),
(1101,0,l),
(1101,642,ls),
(1101,743,o),
(1046,907,o),
(946,1022,o),
(803,1084,o),
(714,1084,qs),
(669,1084,o),
(583,1066,o),
(506,1031,o),
(439,981,o),
(411,948,q),
(411,1448,l),
(157,1448,l)
);
}
);
width = 1213;
},
{
layerId = "D814EF8B-E2E2-4B9A-99BD-8962E8BCF366";
shapes = (
{
closed = 1;
nodes = (
(171,0,l),
(352,0,l),
(352,593,ls),
(352,658,o),
(401,775,o),
(485,863,o),
(596,914,o),
(659,914,qs),
(709,914,o),
(785,877,o),
(838,805,o),
(865,699,o),
(865,631,qs),
(865,0,l),
(1049,0,l),
(1049,654,ls),
(1049,753,o),
(998,912,o),
(903,1024,o),
(769,1084,o),
(685,1084,qs),
(634,1084,o),
(538,1060,o),
(453,1015,o),
(380,950,o),
(352,909,q),
(352,1448,l),
(171,1448,l)
);
}
);
width = 1177;
},
{
layerId = "85042BCA-33BD-4676-BF6E-DA82D0F79E7B";
shapes = (
{
closed = 1;
nodes = (
(197,0,l),
(297,0,l),
(297,593,ls),
(297,673,o),
(353,816,o),
(448,923,o),
(577,985,o),
(649,985,qs),
(706,985,o),
(799,939,o),
(862,850,o),
(897,726,o),
(897,648,qs),
(897,0,l),
(1001,0,l),
(1001,668,ls),
(1001,764,o),
(955,918,o),
(867,1026,o),
(741,1084,o),
(663,1084,qs),
(607,1084,o),
(501,1054,o),
(405,999,o),
(325,917,o),
(297,867,q),
(297,1448,l),
(197,1448,l)
);
}
);
width = 1159;
}
);
unicode = 104;
},
{
glyphname = i;
layers = (
{
layerId = "3C56E2CD-C7AD-4ED1-8DD7-75F0C604B46D";
shapes = (
{
closed = 1;
nodes = (
(124,1206,l),
(413,1206,l),
(413,1448,l),
(124,1448,l)
);
},
{
closed = 1;
nodes = (
(129,0,l),
(409,0,l),
(409,1064,l),
(129,1064,l)
);
}
);
width = 537;
},
{
layerId = "9D1D4149-D6AF-44E4-BA66-2DBC1F9ACF8F";
shapes = (
{
closed = 1;
nodes = (
(148,1217,l),
(409,1217,l),
(409,1448,l),
(148,1448,l)
);
},
{
closed = 1;
nodes = (
(153,0,l),
(403,0,l),
(403,1064,l),
(153,1064,l)
);
}
);
width = 557;
},
{
layerId = "D814EF8B-E2E2-4B9A-99BD-8962E8BCF366";
shapes = (
{
closed = 1;
nodes = (
(160,1242,l),
(361,1242,l),
(361,1448,l),
(160,1448,l)
);
},
{
closed = 1;
nodes = (
(167,0,l),
(354,0,l),
(354,1064,l),
(167,1064,l)
);
}
);
width = 521;
},
{
layerId = "85042BCA-33BD-4676-BF6E-DA82D0F79E7B";
shapes = (
{
closed = 1;
nodes = (
(184,1269,l),
(319,1269,l),
(319,1448,l),
(184,1448,l)
);
},
{
closed = 1;
nodes = (
(193,0,l),
(309,0,l),
(309,1064,l),
(193,1064,l)
);
}
);
width = 503;
}
);
leftKerningGroup = a;
rightKerningGroup = i;
unicode = 105;
},
{
glyphname = j;
layers = (
{
layerId = "3C56E2CD-C7AD-4ED1-8DD7-75F0C604B46D";
shapes = (
{
closed = 1;
nodes = (
(140,1205,l),
(431,1205,l),
(431,1445,l),
(140,1445,l)
);
},
{
closed = 1;
nodes = (
(-80,-416,l),
(-63,-422,o),
(-20,-434,o),
(25,-443,o),
(72,-449,o),
(94,-449,qs),
(169,-449,o),
(292,-400,o),
(379,-311,o),
(426,-184,o),
(426,-106,qs),
(426,1064,l),
(146,1064,l),
(146,-115,ls),
(146,-138,o),
(135,-171,o),
(115,-192,o),
(86,-202,o),
(69,-202,qs),
(57,-202,o),
(10,-194,o),
(-16,-187,q)
);
}
);
width = 571;
},
{
layerId = "9D1D4149-D6AF-44E4-BA66-2DBC1F9ACF8F";
shapes = (
{
closed = 1;
nodes = (
(148,1217,l),
(410,1217,l),
(410,1447,l),
(148,1447,l)
);
},
{
closed = 1;
nodes = (
(-83,-416,l),
(-61,-424,o),
(-16,-437,o),
(27,-445,o),
(69,-449,o),
(90,-449,qs),
(170,-449,o),
(286,-397,o),
(362,-306,o),
(398,-181,o),
(398,-109,qs),
(398,1064,l),
(160,1064,l),
(160,-123,ls),
(160,-151,o),
(152,-189,o),
(134,-213,o),
(107,-224,o),
(87,-224,qs),
(61,-224,o),
(6,-217,o),
(-25,-210,q)
);
}
);
width = 565;
},
{
layerId = "D814EF8B-E2E2-4B9A-99BD-8962E8BCF366";
shapes = (
{
closed = 1;
nodes = (
(161,1242,l),
(362,1242,l),
(362,1448,l),
(161,1448,l)
);
},
{
closed = 1;
nodes = (
(-91,-418,l),
(-73,-425,o),
(-31,-436,o),
(12,-445,o),
(53,-450,o),
(71,-450,qs),
(143,-450,o),
(250,-403,o),
(319,-321,o),
(353,-207,o),
(353,-139,qs),
(353,1064,l),
(171,1064,l),
(171,-135,ls),
(171,-165,o),
(163,-219,o),
(141,-258,o),
(102,-281,o),
(71,-281,qs),
(41,-281,o),
(-19,-273,o),
(-50,-265,q)
);
}
);
width = 522;
},
{
layerId = "85042BCA-33BD-4676-BF6E-DA82D0F79E7B";
shapes = (
{
closed = 1;
nodes = (
(188,1269,l),
(323,1269,l),
(323,1448,l),
(188,1448,l)
);
},
{
closed = 1;
nodes = (
(-87,-420,l),
(-73,-425,o),
(-34,-436,o),
(8,-445,o),
(49,-450,o),
(62,-450,qs),
(127,-450,o),
(222,-411,o),
(285,-338,o),
(316,-236,o),
(316,-174,qs),
(316,1064,l),
(197,1064,l),
(197,-149,ls),
(197,-182,o),
(189,-251,o),
(162,-308,o),
(110,-344,o),
(65,-344,qs),
(31,-344,o),
(-33,-335,o),
(-64,-325,q)
);
}
);
width = 500;
}
);
leftKerningGroup = a;
unicode = 106;
},
{
glyphname = k;
layers = (
{
layerId = "3C56E2CD-C7AD-4ED1-8DD7-75F0C604B46D";
shapes = (
{
closed = 1;
nodes = (
(143,0,l),
(423,0,l),
(423,300,l),
(561,453,l),
(857,0,l),
(1188,0,l),
(755,621,l),
(1153,1064,l),
(786,1064,l),
(423,637,l),
(423,1448,l),
(143,1448,l)
);
}
);
width = 1167;
},
{
layerId = "9D1D4149-D6AF-44E4-BA66-2DBC1F9ACF8F";
shapes = (
{
closed = 1;
nodes = (
(155,0,l),
(405,0,l),
(405,312,l),
(569,494,l),
(882,0,l),
(1188,0,l),
(746,651,l),
(1145,1064,l),
(807,1064,l),
(405,622,l),
(405,1448,l),
(155,1448,l)
);
}
);
width = 1211;
},
{
layerId = "D814EF8B-E2E2-4B9A-99BD-8962E8BCF366";
shapes = (
{
closed = 1;
nodes = (
(162,0,l),
(343,0,l),
(343,311,l),
(549,537,l),
(873,0,l),
(1096,0,l),
(674,664,l),
(1037,1064,l),
(798,1064,l),
(343,545,l),
(343,1448,l),
(162,1448,l)
);
}
);
width = 1120;
},
{
layerId = "85042BCA-33BD-4676-BF6E-DA82D0F79E7B";
shapes = (
{
closed = 1;
nodes = (
(198,0,l),
(303,0,l),
(303,310,l),
(557,585,l),
(891,0,l),
(1023,0,l),
(623,678,l),
(947,1064,l),
(816,1064,l),
(303,460,l),
(303,1448,l),
(198,1448,l)
);
}
);
width = 1074;
}
);
unicode = 107;
},
{
glyphname = l;
layers = (
{
layerId = "3C56E2CD-C7AD-4ED1-8DD7-75F0C604B46D";
shapes = (
{
closed = 1;
nodes = (
(419,-20,o),
(518,-11,o),
(564,0,q),
(564,238,l),
(547,235,o),
(511,231,o),
(500,231,qs),
(457,231,o),
(414,271,o),
(414,309,qs),
(414,1448,l),
(134,1448,l),
(134,212,ls),
(134,142,o),
(170,52,o),
(233,0,o),
(320,-20,o),
(371,-20,qs)
);
}
);
width = 570;
},
{
layerId = "9D1D4149-D6AF-44E4-BA66-2DBC1F9ACF8F";
shapes = (
{
closed = 1;
nodes = (
(410,-20,o),
(500,-10,o),
(554,0,q),
(554,210,l),
(533,207,o),
(492,204,o),
(469,204,qs),
(434,204,o),
(398,237,o),
(398,272,qs),
(398,1448,l),
(148,1448,l),
(148,204,ls),
(148,145,o),
(174,60,o),
(228,6,o),
(313,-20,o),
(372,-20,qs)
);
}
);
width = 562;
},
{
layerId = "D814EF8B-E2E2-4B9A-99BD-8962E8BCF366";
shapes = (
{
closed = 1;
nodes = (
(391,-20,o),
(466,-10,o),
(508,-1,q),
(508,149,l),
(485,145,o),
(437,140,o),
(411,140,qs),
(382,140,o),
(351,171,o),
(351,200,qs),
(351,1448,l),
(164,1448,l),
(164,178,ls),
(164,127,o),
(188,52,o),
(236,3,o),
(308,-20,o),
(356,-20,qs)
);
}
);
width = 521;
},
{
layerId = "85042BCA-33BD-4676-BF6E-DA82D0F79E7B";
shapes = (
{
closed = 1;
nodes = (
(384,-20,o),
(442,-10,o),
(469,-1,q),
(469,82,l),
(443,76,o),
(388,70,o),
(360,70,qs),
(339,70,o),
(312,99,o),
(312,121,qs),
(312,1448,l),
(196,1448,l),
(196,150,ls),
(196,106,o),
(217,42,o),
(257,0,o),
(316,-20,o),
(352,-20,qs)
);
}
);
width = 500;
}
);
leftKerningGroup = a;
unicode = 108;
},
{
glyphname = m;
layers = (
{
layerId = "3C56E2CD-C7AD-4ED1-8DD7-75F0C604B46D";
shapes = (
{
closed = 1;
nodes = (
(141,0,l),
(423,0,l),
(423,597,ls),
(423,647,o),
(453,729,o),
(507,788,o),
(580,820,o),
(623,820,qs),
(665,820,o),
(721,795,o),
(755,746,o),
(770,672,o),
(770,622,qs),
(770,0,l),
(1055,0,l),
(1055,597,ls),
(1055,643,o),
(1081,724,o),
(1132,785,o),
(1207,820,o),
(1255,820,qs),
(1296,820,o),
(1353,793,o),
(1388,742,o),
(1403,666,o),
(1403,617,qs),
(1403,0,l),
(1688,0,l),
(1688,664,ls),
(1688,747,o),
(1636,899,o),
(1539,1014,o),
(1398,1082,o),
(1308,1082,qs),
(1259,1082,o),
(1162,1067,o),
(1071,1034,o),
(990,980,o),
(957,942,q),
(898,1015,o),
(763,1084,o),
(670,1084,qs),
(633,1084,o),
(566,1071,o),
(504,1045,o),
(448,1006,o),
(423,980,q),
(423,1064,l),
(141,1064,l)
);
}
);
width = 1799;
},
{
layerId = "9D1D4149-D6AF-44E4-BA66-2DBC1F9ACF8F";
shapes = (
{
closed = 1;
nodes = (
(155,0,l),
(407,0,l),
(407,592,ls),
(407,645,o),
(437,739,o),
(494,810,o),
(577,852,o),
(629,852,qs),
(682,852,o),
(749,813,o),
(787,747,o),
(800,662,o),
(800,617,qs),
(800,0,l),
(1054,0,l),
(1054,592,ls),
(1054,644,o),
(1083,738,o),
(1139,810,o),
(1222,852,o),
(1276,852,qs),
(1329,852,o),
(1396,811,o),
(1434,744,o),
(1447,658,o),
(1447,613,qs),
(1447,0,l),
(1701,0,l),
(1701,640,ls),
(1701,729,o),
(1654,890,o),
(1558,1011,o),
(1413,1082,o),
(1314,1082,qs),
(1265,1082,o),
(1169,1063,o),
(1081,1025,o),
(1002,967,o),
(970,927,q),
(915,1006,o),
(765,1084,o),
(668,1084,qs),
(633,1084,o),
(562,1070,o),
(495,1040,o),
(433,992,o),
(407,958,q),
(407,1064,l),
(155,1064,l)
);
}
);
width = 1815;
},
{
layerId = "D814EF8B-E2E2-4B9A-99BD-8962E8BCF366";
shapes = (
{
closed = 1;
nodes = (
(169,0,l),
(352,0,l),
(352,605,ls),
(352,665,o),
(384,779,o),
(449,869,o),
(545,924,o),
(609,924,qs),
(672,924,o),
(753,873,o),
(801,790,o),
(819,686,o),
(819,633,qs),
(819,0,l),
(1003,0,l),
(1003,605,ls),
(1003,664,o),
(1034,778,o),
(1098,868,o),
(1194,924,o),
(1259,924,qs),
(1322,924,o),
(1404,872,o),
(1452,788,o),
(1470,682,o),
(1470,629,qs),
(1470,0,l),
(1654,0,l),
(1654,645,ls),
(1654,733,o),
(1611,892,o),
(1521,1012,o),
(1380,1082,o),
(1282,1082,qs),
(1227,1082,o),
(1129,1056,o),
(1045,1006,o),
(976,933,o),
(949,886,q),
(903,988,o),
(743,1084,o),
(632,1084,qs),
(585,1084,o),
(501,1059,o),
(430,1013,o),
(373,945,o),
(352,901,q),
(352,1064,l),
(169,1064,l)
);
}
);
width = 1786;
},
{
layerId = "85042BCA-33BD-4676-BF6E-DA82D0F79E7B";
shapes = (
{
closed = 1;
nodes = (
(195,0,l),
(301,0,l),
(301,620,ls),
(301,688,o),
(336,824,o),
(409,934,o),
(521,1004,o),
(599,1004,qs),
(672,1004,o),
(770,939,o),
(827,837,o),
(851,712,o),
(851,650,qs),
(851,0,l),
(957,0,l),
(957,620,ls),
(957,685,o),
(992,822,o),
(1064,933,o),
(1175,1004,o),
(1250,1004,qs),
(1325,1004,o),
(1424,938,o),
(1482,836,o),
(1506,709,o),
(1506,646,qs),
(1506,0,l),
(1612,0,l),
(1612,651,ls),
(1612,738,o),
(1574,895,o),
(1488,1012,o),
(1353,1082,o),
(1257,1082,qs),
(1194,1082,o),
(1096,1049,o),
(1018,985,o),
(958,897,o),
(937,841,q),
(902,967,o),
(728,1084,o),
(602,1084,qs),
(543,1084,o),
(446,1049,o),
(369,982,o),
(316,891,o),
(301,837,q),
(301,1064,l),
(195,1064,l)
);
}
);
width = 1771;
}
);
unicode = 109;
},
{
glyphname = n;
layers = (
{
layerId = "3C56E2CD-C7AD-4ED1-8DD7-75F0C604B46D";
shapes = (
{
closed = 1;
nodes = (
(141,0,l),
(426,0,l),
(426,498,ls),
(426,558,o),
(445,674,o),
(497,766,o),
(588,823,o),
(660,823,qs),
(744,823,o),
(815,721,o),
(815,620,qs),
(815,0,l),
(1101,0,l),
(1101,656,ls),
(1101,739,o),
(1053,893,o),
(959,1012,o),
(817,1084,o),
(722,1084,qs),
(677,1084,o),
(595,1070,o),
(521,1040,o),
(455,994,o),
(426,962,q),
(426,1064,l),
(141,1064,l)
);
}
);
width = 1210;
},
{
layerId = "9D1D4149-D6AF-44E4-BA66-2DBC1F9ACF8F";
shapes = (
{
closed = 1;
nodes = (
(155,0,l),
(409,0,l),
(409,592,ls),
(409,645,o),
(452,739,o),
(525,809,o),
(621,851,o),
(675,851,qs),
(762,851,o),
(845,735,o),
(845,615,qs),
(845,0,l),
(1099,0,l),
(1099,642,ls),
(1099,743,o),
(1045,907,o),
(944,1022,o),
(801,1084,o),
(712,1084,qs),
(667,1084,o),
(581,1066,o),
(504,1031,o),
(437,981,o),
(409,948,q),
(409,1064,l),
(155,1064,l)
);
}
);
width = 1211;
},
{
layerId = "D814EF8B-E2E2-4B9A-99BD-8962E8BCF366";
shapes = (
{
closed = 1;
nodes = (
(169,0,l),
(351,0,l),
(351,609,ls),
(351,670,o),
(400,780,o),
(483,864,o),
(593,913,o),
(653,913,qs),
(757,913,o),
(863,771,o),
(863,631,qs),
(863,0,l),
(1046,0,l),
(1046,647,ls),
(1046,749,o),
(995,912,o),
(899,1024,o),
(762,1084,o),
(675,1084,qs),
(626,1084,o),
(533,1061,o),
(450,1017,o),
(378,954,o),
(351,914,q),
(351,1064,l),
(169,1064,l)
);
}
);
width = 1174;
},
{
layerId = "85042BCA-33BD-4676-BF6E-DA82D0F79E7B";
shapes = (
{
closed = 1;
nodes = (
(195,0,l),
(297,0,l),
(297,629,ls),
(297,700,o),
(354,828,o),
(447,924,o),
(571,982,o),
(640,982,qs),
(763,982,o),
(893,810,o),
(893,648,qs),
(893,0,l),
(997,0,l),
(997,653,ls),
(997,757,o),
(950,917,o),
(860,1027,o),
(729,1084,o),
(645,1084,qs),
(592,1084,o),
(490,1055,o),
(399,1002,o),
(324,926,o),
(297,877,q),
(297,1064,l),
(195,1064,l)
);
}
);
width = 1155;
}
);
unicode = 110;
},
{
glyphname = o;
layers = (
{
layerId = "3C56E2CD-C7AD-4ED1-8DD7-75F0C604B46D";
shapes = (
{
closed = 1;
nodes = (
(702,-20,o),
(901,59,o),
(1040,203,o),
(1114,407,o),
(1114,532,qs),
(1114,657,o),
(1036,861,o),
(895,1005,o),
(697,1084,o),
(577,1084,qs),
(454,1084,o),
(255,1005,o),
(116,861,o),
(40,657,o),
(40,532,qs),
(40,407,o),
(117,203,o),
(258,59,o),
(456,-20,o),
(577,-20,qs)
);
},
{
closed = 1;
nodes = (
(510,219,o),
(415,272,o),
(355,360,o),
(328,472,o),
(328,532,qs),
(328,592,o),
(359,705,o),
(421,792,o),
(515,845,o),
(577,845,qs),
(643,845,o),
(737,790,o),
(798,702,o),
(826,589,o),
(826,532,qs),
(826,470,o),
(797,357,o),
(737,270,o),
(643,219,o),
(577,219,qs)
);
}
);
width = 1154;
},
{
layerId = "9D1D4149-D6AF-44E4-BA66-2DBC1F9ACF8F";
shapes = (
{
closed = 1;
nodes = (
(711,-20,o),
(909,58,o),
(1047,202,o),
(1121,406,o),
(1121,532,qs),
(1121,657,o),
(1049,860,o),
(913,1005,o),
(714,1084,o),
(586,1084,qs),
(462,1084,o),
(263,1006,o),
(124,862,o),
(50,658,o),
(50,532,qs),
(50,408,o),
(123,205,o),
(261,60,o),
(460,-20,o),
(586,-20,qs)
);
},
{
closed = 1;
nodes = (
(512,196,o),
(407,251,o),
(341,344,o),
(310,466,o),
(310,532,qs),
(310,600,o),
(341,722,o),
(408,814,o),
(513,868,o),
(586,868,qs),
(661,868,o),
(766,814,o),
(831,721,o),
(861,600,o),
(861,532,qs),
(861,465,o),
(831,343,o),
(765,251,o),
(661,196,o),
(586,196,qs)
);
}
);
width = 1171;
},
{
layerId = "D814EF8B-E2E2-4B9A-99BD-8962E8BCF366";
shapes = (
{
closed = 1;
nodes = (
(702,-20,o),
(891,57,o),
(1022,200,o),
(1091,405,o),
(1091,532,qs),
(1091,658,o),
(1021,862,o),
(890,1006,o),
(701,1084,o),
(582,1084,qs),
(464,1084,o),
(275,1006,o),
(143,862,o),
(72,658,o),
(72,532,qs),
(72,406,o),
(143,202,o),
(275,58,o),
(464,-20,o),
(582,-20,qs)
);
},
{
closed = 1;
nodes = (
(507,140,o),
(389,200,o),
(308,306,o),
(265,449,o),
(265,532,qs),
(265,616,o),
(307,760,o),
(388,865,o),
(506,924,o),
(582,924,qs),
(659,924,o),
(777,865,o),
(857,761,o),
(898,617,o),
(898,532,qs),
(898,447,o),
(858,303,o),
(778,199,o),
(660,140,o),
(582,140,qs)
);
}
);
width = 1164;
},
{
layerId = "85042BCA-33BD-4676-BF6E-DA82D0F79E7B";
shapes = (
{
closed = 1;
nodes = (
(693,-20,o),
(872,56,o),
(995,199,o),
(1061,404,o),
(1061,532,qs),
(1061,658,o),
(993,862,o),
(868,1006,o),
(689,1084,o),
(579,1084,qs),
(469,1084,o),
(292,1008,o),
(166,864,o),
(99,660,o),
(99,532,qs),
(99,405,o),
(167,201,o),
(293,57,o),
(470,-20,o),
(579,-20,qs)
);
},
{
closed = 1;
nodes = (
(503,79,o),
(371,145,o),
(274,264,o),
(219,431,o),
(219,532,qs),
(219,634,o),
(273,802,o),
(369,921,o),
(500,986,o),
(579,986,qs),
(659,986,o),
(792,922,o),
(889,805,o),
(942,637,o),
(942,532,qs),
(942,428,o),
(890,260,o),
(795,142,o),
(662,79,o),
(579,79,qs)
);
}
);
width = 1160;
}
);
leftKerningGroup = a;
unicode = 111;
},
{
glyphname = p;
layers = (
{
layerId = "3C56E2CD-C7AD-4ED1-8DD7-75F0C604B46D";
shapes = (
{
closed = 1;
nodes = (
(143,-449,l),
(428,-449,l),
(428,91,l),
(478,35,o),
(627,-20,o),
(725,-20,qs),
(818,-20,o),
(977,65,o),
(1092,215,o),
(1158,421,o),
(1158,542,qs),
(1158,657,o),
(1090,855,o),
(970,1001,o),
(808,1084,o),
(714,1084,qs),
(618,1084,o),
(479,1030,o),
(428,972,q),
(428,1064,l),
(143,1064,l)
);
},
{
closed = 1;
nodes = (
(583,240,o),
(495,279,o),
(435,354,o),
(403,462,o),
(403,532,qs),
(403,601,o),
(436,713,o),
(497,791,o),
(585,833,o),
(639,833,qs),
(693,833,o),
(780,791,o),
(841,713,o),
(873,602,o),
(873,532,qs),
(873,466,o),
(840,358,o),
(779,281,o),
(692,240,o),
(639,240,qs)
);
}
);
width = 1212;
},
{
layerId = "9D1D4149-D6AF-44E4-BA66-2DBC1F9ACF8F";
shapes = (
{
closed = 1;
nodes = (
(157,-449,l),
(411,-449,l),
(411,102,l),
(462,42,o),
(617,-20,o),
(710,-20,qs),
(809,-20,o),
(974,61,o),
(1093,208,o),
(1159,411,o),
(1159,532,qs),
(1159,655,o),
(1093,858,o),
(974,1004,o),
(807,1084,o),
(706,1084,qs),
(612,1084,o),
(462,1022,o),
(411,962,q),
(411,1064,l),
(157,1064,l)
);
},
{
closed = 1;
nodes = (
(585,210,o),
(489,254,o),
(423,336,o),
(388,456,o),
(388,532,qs),
(388,609,o),
(423,730,o),
(490,815,o),
(586,860,o),
(646,860,qs),
(707,860,o),
(803,815,o),
(870,730,o),
(905,609,o),
(905,532,qs),
(905,456,o),
(870,336,o),
(804,253,o),
(708,210,o),
(646,210,qs)
);
}
);
width = 1218;
},
{
layerId = "D814EF8B-E2E2-4B9A-99BD-8962E8BCF366";
shapes = (
{
closed = 1;
nodes = (
(171,-450,l),
(354,-450,l),
(354,132,l),
(410,56,o),
(571,-20,o),
(674,-20,qs),
(769,-20,o),
(928,61,o),
(1042,206,o),
(1106,409,o),
(1106,531,qs),
(1106,654,o),
(1042,857,o),
(928,1003,o),
(769,1084,o),
(673,1084,qs),
(568,1084,o),
(409,1008,o),
(354,932,q),
(354,1064,l),
(171,1064,l)
);
},
{
closed = 1;
nodes = (
(561,142,o),
(453,197,o),
(377,299,o),
(336,443,o),
(336,532,qs),
(336,621,o),
(378,765,o),
(454,867,o),
(561,923,o),
(627,923,qs),
(695,923,o),
(805,868,o),
(882,767,o),
(923,622,o),
(923,532,qs),
(923,442,o),
(882,297,o),
(806,196,o),
(696,142,o),
(627,142,qs)
);
}
);
width = 1185;
},
{
layerId = "85042BCA-33BD-4676-BF6E-DA82D0F79E7B";
shapes = (
{
closed = 1;
nodes = (
(197,-450,l),
(300,-450,l),
(300,165,l),
(362,71,o),
(531,-20,o),
(646,-20,qs),
(738,-20,o),
(889,61,o),
(999,206,o),
(1058,409,o),
(1058,531,qs),
(1058,653,o),
(997,856,o),
(888,1003,o),
(736,1084,o),
(646,1084,qs),
(529,1084,o),
(361,993,o),
(300,898,q),
(300,1064,l),
(197,1064,l)
);
},
{
closed = 1;
nodes = (
(545,66,o),
(423,134,o),
(338,256,o),
(290,428,o),
(290,532,qs),
(290,633,o),
(338,803,o),
(424,926,o),
(545,994,o),
(617,994,qs),
(694,994,o),
(819,928,o),
(906,808,o),
(955,637,o),
(955,532,qs),
(955,426,o),
(906,254,o),
(818,132,o),
(693,66,o),
(617,66,qs)
);
}
);
width = 1169;
}
);
unicode = 112;
},
{
glyphname = q;
layers = (
{
layerId = "3C56E2CD-C7AD-4ED1-8DD7-75F0C604B46D";
shapes = (
{
closed = 1;
nodes = (
(1066,-449,l),
(1066,1064,l),
(784,1064,l),
(784,972,l),
(742,1024,o),
(590,1084,o),
(502,1084,qs),
(409,1084,o),
(245,999,o),
(124,852,o),
(54,655,o),
(54,542,qs),
(54,419,o),
(120,212,o),
(239,63,o),
(403,-20,o),
(500,-20,qs),
(597,-20,o),
(740,36,o),
(784,91,q),
(784,-449,l)
);
},
{
closed = 1;
nodes = (
(519,240,o),
(431,280,o),
(370,355,o),
(338,463,o),
(338,532,qs),
(338,600,o),
(372,710,o),
(433,788,o),
(520,830,o),
(574,830,qs),
(628,830,o),
(715,789,o),
(776,712,o),
(808,601,o),
(808,532,qs),
(808,464,o),
(776,355,o),
(715,280,o),
(628,240,o),
(574,240,qs)
);
}
);
width = 1209;
},
{
layerId = "9D1D4149-D6AF-44E4-BA66-2DBC1F9ACF8F";
shapes = (
{
closed = 1;
nodes = (
(1068,-449,l),
(1068,1064,l),
(816,1064,l),
(816,962,l),
(765,1022,o),
(611,1084,o),
(518,1084,qs),
(419,1084,o),
(254,1002,o),
(135,856,o),
(68,653,o),
(68,532,qs),
(68,409,o),
(134,206,o),
(254,61,o),
(421,-20,o),
(522,-20,qs),
(616,-20,o),
(765,42,o),
(816,102,q),
(816,-449,l)
);
},
{
closed = 1;
nodes = (
(520,210,o),
(423,253,o),
(357,336,o),
(322,456,o),
(322,532,qs),
(322,608,o),
(358,729,o),
(425,813,o),
(521,858,o),
(581,858,qs),
(642,858,o),
(737,814,o),
(803,730,o),
(838,609,o),
(838,532,qs),
(838,455,o),
(804,335,o),
(738,253,o),
(643,210,o),
(581,210,qs)
);
}
);
width = 1215;
},
{
layerId = "D814EF8B-E2E2-4B9A-99BD-8962E8BCF366";
shapes = (
{
closed = 1;
nodes = (
(1024,-450,l),
(1024,1064,l),
(841,1064,l),
(841,932,l),
(784,1007,o),
(624,1084,o),
(521,1084,qs),
(425,1084,o),
(266,1003,o),
(152,857,o),
(89,653,o),
(89,531,qs),
(89,410,o),
(152,207,o),
(266,61,o),
(424,-20,o),
(519,-20,qs),
(625,-20,o),
(783,54,o),
(841,132,q),
(841,-450,l)
);
},
{
closed = 1;
nodes = (
(499,142,o),
(390,196,o),
(314,298,o),
(273,442,o),
(273,532,qs),
(273,621,o),
(314,765,o),
(391,867,o),
(499,922,o),
(566,922,qs),
(633,922,o),
(740,867,o),
(816,766,o),
(857,622,o),
(857,532,qs),
(857,441,o),
(817,297,o),
(741,196,o),
(634,142,o),
(566,142,qs)
);
}
);
width = 1186;
},
{
layerId = "85042BCA-33BD-4676-BF6E-DA82D0F79E7B";
shapes = (
{
closed = 1;
nodes = (
(985,-450,l),
(985,1064,l),
(879,1064,l),
(879,899,l),
(817,994,o),
(647,1084,o),
(535,1084,qs),
(443,1084,o),
(290,1003,o),
(182,859,o),
(122,655,o),
(122,531,qs),
(122,412,o),
(182,209,o),
(290,63,o),
(438,-20,o),
(525,-20,qs),
(646,-20,o),
(813,68,o),
(879,165,q),
(879,-450,l)
);
},
{
closed = 1;
nodes = (
(484,66,o),
(363,133,o),
(277,256,o),
(230,427,o),
(230,532,qs),
(230,636,o),
(277,807,o),
(363,927,o),
(484,994,o),
(559,994,qs),
(633,994,o),
(755,927,o),
(842,807,o),
(889,636,o),
(889,532,qs),
(889,426,o),
(841,254,o),
(756,132,o),
(633,66,o),
(559,66,qs)
);
}
);
width = 1171;
}
);
leftKerningGroup = a;
unicode = 113;
},
{
glyphname = r;
layers = (
{
layerId = "3C56E2CD-C7AD-4ED1-8DD7-75F0C604B46D";
shapes = (
{
closed = 1;
nodes = (
(141,0,l),
(410,0,l),
(410,532,ls),
(410,567,o),
(424,635,o),
(451,698,o),
(490,752,o),
(542,791,o),
(605,814,o),
(642,814,qs),
(671,814,o),
(717,802,o),
(740,782,q),
(766,826,o),
(809,899,o),
(842,957,o),
(866,998,o),
(873,1011,q),
(827,1051,o),
(704,1084,o),
(644,1084,qs),
(609,1084,o),
(539,1062,o),
(478,1017,o),
(428,950,o),
(412,905,q),
(412,1064,l),
(141,1064,l)
);
}
);
width = 841;
},
{
layerId = "9D1D4149-D6AF-44E4-BA66-2DBC1F9ACF8F";
shapes = (
{
closed = 1;
nodes = (
(155,0,l),
(396,0,l),
(396,504,ls),
(396,541,o),
(408,621,o),
(434,697,o),
(473,765,o),
(528,817,o),
(598,847,o),
(642,847,qs),
(683,847,o),
(742,829,o),
(760,810,q),
(772,830,o),
(809,896,o),
(846,960,o),
(876,1011,o),
(879,1017,q),
(830,1052,o),
(709,1084,o),
(653,1084,qs),
(608,1084,o),
(528,1056,o),
(462,1005,o),
(413,934,o),
(398,892,q),
(398,1064,l),
(155,1064,l)
);
}
);
width = 853;
},
{
layerId = "D814EF8B-E2E2-4B9A-99BD-8962E8BCF366";
shapes = (
{
closed = 1;
nodes = (
(171,0,l),
(350,0,l),
(350,474,ls),
(350,516,o),
(361,615,o),
(387,714,o),
(429,806,o),
(491,877,o),
(574,919,o),
(627,919,qs),
(667,919,o),
(735,898,o),
(760,875,q),
(768,890,o),
(791,939,o),
(814,988,o),
(832,1027,o),
(834,1031,q),
(791,1058,o),
(690,1084,o),
(641,1084,qs),
(591,1084,o),
(498,1053,o),
(422,996,o),
(366,915,o),
(352,866,q),
(352,1064,l),
(171,1064,l)
);
}
);
width = 836;
},
{
layerId = "85042BCA-33BD-4676-BF6E-DA82D0F79E7B";
shapes = (
{
closed = 1;
nodes = (
(194,0,l),
(304,0,l),
(304,441,ls),
(304,489,o),
(315,609,o),
(341,734,o),
(387,853,o),
(455,945,o),
(552,1000,o),
(617,1000,qs),
(655,1000,o),
(732,973,o),
(766,947,q),
(768,958,o),
(776,989,o),
(784,1020,o),
(790,1045,o),
(791,1048,q),
(754,1066,o),
(675,1084,o),
(634,1084,qs),
(578,1084,o),
(471,1049,o),
(382,986,o),
(318,894,o),
(307,838,q),
(307,1064,l),
(194,1064,l)
);
}
);
width = 827;
}
);
unicode = 114;
},
{
glyphname = s;
layers = (
{
layerId = "3C56E2CD-C7AD-4ED1-8DD7-75F0C604B46D";
shapes = (
{
closed = 1;
nodes = (
(20,276,l),
(40,208,o),
(130,98,o),
(249,21,o),
(388,-20,o),
(457,-20,qs),
(534,-20,o),
(685,20,o),
(805,103,o),
(879,231,o),
(879,319,q),
(880,438,o),
(772,579,o),
(666,614,qs),
(534,657,ls),
(486,673,o),
(423,702,o),
(386,732,o),
(371,763,o),
(371,781,qs),
(371,812,o),
(429,865,o),
(488,865,qs),
(565,865,o),
(657,798,o),
(687,745,q),
(902,862,l),
(838,974,o),
(637,1084,o),
(497,1084,qs),
(403,1084,o),
(255,1036,o),
(153,945,o),
(100,813,o),
(100,729,qs),
(100,666,o),
(143,569,o),
(220,496,o),
(328,443,o),
(393,425,qs),
(501,395,ls),
(548,382,o),
(603,337,o),
(603,294,qs),
(603,272,o),
(586,240,o),
(551,219,o),
(500,208,o),
(467,208,qs),
(425,208,o),
(354,232,o),
(298,275,o),
(255,335,o),
(241,372,q)
);
}
);
width = 951;
},
{
layerId = "9D1D4149-D6AF-44E4-BA66-2DBC1F9ACF8F";
shapes = (
{
closed = 1;
nodes = (
(38,263,l),
(58,198,o),
(144,93,o),
(260,20,o),
(396,-20,o),
(466,-20,qs),
(541,-20,o),
(683,22,o),
(794,104,o),
(862,228,o),
(862,309,q),
(863,424,o),
(752,565,o),
(643,601,qs),
(516,642,ls),
(465,659,o),
(397,691,o),
(357,725,o),
(340,763,o),
(340,785,qs),
(340,827,o),
(407,890,o),
(474,890,qs),
(552,890,o),
(652,823,o),
(683,766,q),
(869,868,l),
(807,977,o),
(614,1084,o),
(479,1084,qs),
(392,1084,o),
(254,1037,o),
(158,950,o),
(106,825,o),
(106,747,qs),
(106,686,o),
(146,589,o),
(223,515,o),
(332,460,o),
(401,440,qs),
(510,408,ls),
(564,392,o),
(624,335,o),
(624,288,qs),
(624,262,o),
(602,221,o),
(562,193,o),
(506,178,o),
(471,178,qs),
(426,178,o),
(350,204,o),
(289,250,o),
(243,314,o),
(229,352,q)
);
}
);
width = 950;
},
{
layerId = "D814EF8B-E2E2-4B9A-99BD-8962E8BCF366";
shapes = (
{
closed = 1;
nodes = (
(61,243,l),
(80,183,o),
(161,86,o),
(270,17,o),
(403,-20,o),
(475,-20,qs),
(547,-20,o),
(675,25,o),
(773,107,o),
(830,222,o),
(830,293,qs),
(830,400,o),
(716,542,o),
(601,580,qs),
(483,619,ls),
(428,638,o),
(352,674,o),
(305,715,o),
(285,762,o),
(285,792,qs),
(285,851,o),
(366,930,o),
(447,930,qs),
(527,930,o),
(638,862,o),
(671,798,q),
(811,878,l),
(754,982,o),
(573,1084,o),
(445,1084,qs),
(370,1084,o),
(247,1039,o),
(158,957,o),
(110,844,o),
(110,775,qs),
(110,715,o),
(147,621,o),
(221,546,o),
(333,487,o),
(409,463,qs),
(519,428,ls),
(583,408,o),
(653,332,o),
(653,279,qs),
(653,247,o),
(625,192,o),
(575,153,o),
(510,131,o),
(472,131,qs),
(424,131,o),
(339,159,o),
(270,210,o),
(220,279,o),
(206,320,q)
);
}
);
width = 913;
},
{
layerId = "85042BCA-33BD-4676-BF6E-DA82D0F79E7B";
shapes = (
{
closed = 1;
nodes = (
(99,221,l),
(118,168,o),
(193,79,o),
(296,16,o),
(424,-20,o),
(498,-20,qs),
(567,-20,o),
(681,28,o),
(763,109,o),
(808,218,o),
(808,277,qs),
(808,375,o),
(688,515,o),
(568,556,qs),
(461,594,ls),
(400,614,o),
(315,656,o),
(262,703,o),
(237,762,o),
(237,800,qs),
(237,878,o),
(335,975,o),
(431,975,qs),
(512,975,o),
(637,904,o),
(671,834,q),
(760,890,l),
(708,988,o),
(539,1084,o),
(420,1084,qs),
(358,1084,o),
(250,1041,o),
(172,965,o),
(127,864,o),
(127,805,qs),
(127,748,o),
(159,656,o),
(232,581,o),
(348,517,o),
(432,489,qs),
(543,451,ls),
(618,425,o),
(698,329,o),
(698,269,qs),
(698,229,o),
(661,161,o),
(604,108,o),
(527,79,o),
(487,79,qs),
(435,79,o),
(339,111,o),
(261,167,o),
(207,242,o),
(193,286,q)
);
}
);
width = 895;
}
);
leftKerningGroup = a;
unicode = 115;
},
{
glyphname = t;
layers = (
{
layerId = "3C56E2CD-C7AD-4ED1-8DD7-75F0C604B46D";
shapes = (
{
closed = 1;
nodes = (
(578,-20,o),
(686,-2,o),
(728,13,q),
(728,269,l),
(689,249,o),
(611,229,o),
(573,229,qs),
(545,229,o),
(501,241,o),
(469,268,o),
(452,312,o),
(452,344,qs),
(452,828,l),
(720,828,l),
(720,1064,l),
(452,1064,l),
(452,1474,l),
(412,1444,o),
(340,1391,o),
(274,1344,o),
(216,1302,o),
(190,1284,q),
(190,1064,l),
(19,1064,l),
(19,828,l),
(185,828,l),
(185,286,ls),
(185,210,o),
(239,95,o),
(332,19,o),
(458,-20,o),
(529,-20,qs)
);
}
);
width = 798;
},
{
layerId = "9D1D4149-D6AF-44E4-BA66-2DBC1F9ACF8F";
shapes = (
{
closed = 1;
nodes = (
(579,-20,o),
(682,-2,o),
(715,10,q),
(715,239,l),
(677,219,o),
(602,200,o),
(566,200,qs),
(534,200,o),
(485,217,o),
(453,251,o),
(437,301,o),
(437,335,qs),
(437,855,l),
(715,855,l),
(715,1064,l),
(437,1064,l),
(437,1455,l),
(419,1443,o),
(350,1395,o),
(276,1344,o),
(213,1301,o),
(202,1293,q),
(202,1064,l),
(27,1064,l),
(27,855,l),
(198,855,l),
(198,298,ls),
(198,222,o),
(245,104,o),
(330,23,o),
(451,-20,o),
(526,-20,qs)
);
}
);
width = 788;
},
{
layerId = "D814EF8B-E2E2-4B9A-99BD-8962E8BCF366";
shapes = (
{
closed = 1;
nodes = (
(521,-20,o),
(603,-9,o),
(635,3,q),
(635,163,l),
(605,148,o),
(546,133,o),
(516,133,qs),
(479,133,o),
(427,158,o),
(394,202,o),
(379,261,o),
(379,295,qs),
(379,914,l),
(654,914,l),
(654,1064,l),
(379,1064,l),
(379,1413,l),
(366,1403,o),
(313,1362,o),
(258,1320,o),
(211,1283,o),
(203,1277,q),
(203,1064,l),
(32,1064,l),
(32,914,l),
(201,914,l),
(201,288,ls),
(201,220,o),
(233,106,o),
(301,25,o),
(406,-20,o),
(479,-20,qs)
);
}
);
width = 714;
},
{
layerId = "85042BCA-33BD-4676-BF6E-DA82D0F79E7B";
shapes = (
{
closed = 1;
nodes = (
(479,-20,o),
(537,-17,o),
(569,-6,q),
(569,78,l),
(548,69,o),
(507,58,o),
(483,58,qs),
(442,58,o),
(387,92,o),
(354,148,o),
(339,218,o),
(339,252,qs),
(339,980,l),
(609,980,l),
(609,1064,l),
(339,1064,l),
(339,1367,l),
(330,1358,o),
(298,1326,o),
(263,1293,o),
(232,1265,o),
(227,1259,q),
(227,1064,l),
(62,1064,l),
(62,980,l),
(228,980,l),
(228,278,ls),
(228,217,o),
(245,111,o),
(292,28,o),
(379,-20,o),
(451,-20,qs)
);
}
);
width = 677;
}
);
unicode = 116;
},
{
glyphname = u;
layers = (
{
layerId = "3C56E2CD-C7AD-4ED1-8DD7-75F0C604B46D";
shapes = (
{
closed = 1;
nodes = (
(541,-19,o),
(622,-3,o),
(694,28,o),
(757,76,o),
(784,108,q),
(784,0,l),
(1070,0,l),
(1070,1064,l),
(784,1064,l),
(784,547,ls),
(784,475,o),
(756,364,o),
(702,289,o),
(622,251,o),
(569,251,qs),
(525,251,o),
(459,275,o),
(415,324,o),
(393,397,o),
(393,445,qs),
(393,1064,l),
(109,1064,l),
(109,418,ls),
(109,323,o),
(167,163,o),
(271,46,o),
(412,-19,o),
(496,-19,qs)
);
}
);
width = 1211;
},
{
layerId = "9D1D4149-D6AF-44E4-BA66-2DBC1F9ACF8F";
shapes = (
{
closed = 1;
nodes = (
(553,-19,o),
(636,-2,o),
(714,33,o),
(784,87,o),
(814,124,q),
(814,0,l),
(1068,0,l),
(1068,1064,l),
(814,1064,l),
(814,540,ls),
(814,476,o),
(793,360,o),
(737,271,o),
(642,218,o),
(568,218,qs),
(511,218,o),
(437,252,o),
(393,313,o),
(376,399,o),
(376,450,qs),
(376,1064,l),
(123,1064,l),
(123,443,ls),
(123,353,o),
(169,187,o),
(264,58,o),
(410,-19,o),
(511,-19,qs)
);
}
);
width = 1211;
},
{
layerId = "D814EF8B-E2E2-4B9A-99BD-8962E8BCF366";
shapes = (
{
closed = 1;
nodes = (
(558,-19,o),
(653,6,o),
(739,54,o),
(810,124,o),
(834,168,q),
(834,0,l),
(1015,0,l),
(1015,1064,l),
(834,1064,l),
(834,489,ls),
(834,424,o),
(795,299,o),
(720,202,o),
(610,143,o),
(539,143,qs),
(473,143,o),
(389,192,o),
(340,273,o),
(321,378,o),
(321,434,qs),
(321,1064,l),
(139,1064,l),
(139,439,ls),
(139,351,o),
(180,186,o),
(268,58,o),
(409,-19,o),
(509,-19,qs)
);
}
);
width = 1171;
},
{
layerId = "85042BCA-33BD-4676-BF6E-DA82D0F79E7B";
shapes = (
{
closed = 1;
nodes = (
(576,-19,o),
(686,15,o),
(778,78,o),
(851,165,o),
(869,218,q),
(869,0,l),
(969,0,l),
(969,1064,l),
(869,1064,l),
(869,434,ls),
(869,367,o),
(812,233,o),
(714,127,o),
(588,61,o),
(520,61,qs),
(445,61,o),
(349,126,o),
(294,230,o),
(273,357,o),
(273,418,qs),
(273,1064,l),
(171,1064,l),
(171,435,ls),
(171,348,o),
(206,185,o),
(288,58,o),
(421,-19,o),
(521,-19,qs)
);
}
);
width = 1150;
}
);
leftKerningGroup = a;
unicode = 117;
},
{
glyphname = v;
layers = (
{
layerId = "3C56E2CD-C7AD-4ED1-8DD7-75F0C604B46D";
shapes = (
{
closed = 1;
nodes = (
(633,0,l),
(1063,1064,l),
(758,1064,l),
(520,361,l),
(283,1064,l),
(-23,1064,l),
(406,0,l)
);
}
);
width = 1039;
},
{
layerId = "9D1D4149-D6AF-44E4-BA66-2DBC1F9ACF8F";
shapes = (
{
closed = 1;
nodes = (
(639,0,l),
(1073,1064,l),
(792,1064,l),
(532,336,l),
(274,1064,l),
(-8,1064,l),
(425,0,l)
);
}
);
width = 1064;
},
{
layerId = "D814EF8B-E2E2-4B9A-99BD-8962E8BCF366";
shapes = (
{
closed = 1;
nodes = (
(590,0,l),
(997,1064,l),
(795,1064,l),
(509,243,l),
(225,1064,l),
(19,1064,l),
(428,0,l)
);
}
);
width = 1014;
},
{
layerId = "85042BCA-33BD-4676-BF6E-DA82D0F79E7B";
shapes = (
{
closed = 1;
nodes = (
(551,0,l),
(930,1064,l),
(815,1064,l),
(499,140,l),
(186,1064,l),
(66,1064,l),
(446,0,l)
);
}
);
width = 989;
}
);
leftKerningGroup = v;
unicode = 118;
},
{
glyphname = w;
layers = (
{
layerId = "3C56E2CD-C7AD-4ED1-8DD7-75F0C604B46D";
shapes = (
{
closed = 1;
nodes = (
(569,-5,l),
(757,662,l),
(947,0,l),
(1195,0,l),
(1521,1064,l),
(1223,1064,l),
(1056,440,l),
(877,1064,l),
(640,1064,l),
(459,438,l),
(296,1064,l),
(-2,1064,l),
(321,-5,l)
);
}
);
width = 1517;
},
{
layerId = "9D1D4149-D6AF-44E4-BA66-2DBC1F9ACF8F";
shapes = (
{
closed = 1;
nodes = (
(571,-4,l),
(780,697,l),
(990,0,l),
(1224,0,l),
(1552,1064,l),
(1276,1064,l),
(1093,399,l),
(893,1064,l),
(670,1064,l),
(469,397,l),
(288,1064,l),
(10,1064,l),
(338,-4,l)
);
}
);
width = 1560;
},
{
layerId = "D814EF8B-E2E2-4B9A-99BD-8962E8BCF366";
shapes = (
{
closed = 1;
nodes = (
(520,-2,l),
(760,804,l),
(997,0,l),
(1175,0,l),
(1483,1064,l),
(1282,1064,l),
(1075,278,l),
(844,1064,l),
(676,1064,l),
(443,276,l),
(235,1064,l),
(34,1064,l),
(342,-2,l)
);
}
);
width = 1515;
},
{
layerId = "85042BCA-33BD-4676-BF6E-DA82D0F79E7B";
shapes = (
{
closed = 1;
nodes = (
(478,-1,l),
(754,923,l),
(1021,0,l),
(1138,0,l),
(1423,1064,l),
(1305,1064,l),
(1071,143,l),
(805,1064,l),
(697,1064,l),
(430,141,l),
(193,1064,l),
(76,1064,l),
(362,-1,l)
);
}
);
width = 1493;
}
);
leftKerningGroup = v;
unicode = 119;
},
{
glyphname = x;
layers = (
{
layerId = "3C56E2CD-C7AD-4ED1-8DD7-75F0C604B46D";
shapes = (
{
closed = 1;
nodes = (
(746,0,l),
(1091,0,l),
(735,516,l),
(543,699,l),
(339,1064,l),
(-1,1064,l),
(350,516,l),
(543,331,l)
);
},
{
closed = 1;
nodes = (
(-1,0,l),
(339,0,l),
(559,357,l),
(367,541,l)
);
},
{
closed = 1;
nodes = (
(526,673,l),
(718,491,l),
(1091,1064,l),
(746,1064,l)
);
}
);
width = 1090;
},
{
layerId = "9D1D4149-D6AF-44E4-BA66-2DBC1F9ACF8F";
shapes = (
{
closed = 1;
nodes = (
(768,0,l),
(1086,0,l),
(720,537,l),
(548,714,l),
(327,1064,l),
(10,1064,l),
(375,537,l),
(548,357,l)
);
},
{
closed = 1;
nodes = (
(10,0,l),
(327,0,l),
(564,383,l),
(392,562,l)
);
},
{
closed = 1;
nodes = (
(531,688,l),
(702,511,l),
(1086,1064,l),
(768,1064,l)
);
}
);
width = 1096;
},
{
layerId = "D814EF8B-E2E2-4B9A-99BD-8962E8BCF366";
shapes = (
{
closed = 1;
nodes = (
(745,0,l),
(972,0,l),
(613,540,l),
(507,665,l),
(257,1064,l),
(26,1064,l),
(387,537,l),
(497,401,l)
);
},
{
closed = 1;
nodes = (
(26,0,l),
(257,0,l),
(518,420,l),
(404,562,l)
);
},
{
closed = 1;
nodes = (
(484,650,l),
(599,510,l),
(975,1064,l),
(745,1064,l)
);
}
);
width = 990;
},
{
layerId = "85042BCA-33BD-4676-BF6E-DA82D0F79E7B";
shapes = (
{
closed = 1;
nodes = (
(750,0,l),
(878,0,l),
(526,543,l),
(494,611,l),
(211,1064,l),
(76,1064,l),
(431,537,l),
(472,449,l)
);
},
{
closed = 1;
nodes = (
(76,0,l),
(211,0,l),
(497,461,l),
(448,562,l)
);
},
{
closed = 1;
nodes = (
(463,608,l),
(515,509,l),
(882,1064,l),
(751,1064,l)
);
}
);
width = 936;
}
);
unicode = 120;
},
{
glyphname = y;
layers = (
{
layerId = "3C56E2CD-C7AD-4ED1-8DD7-75F0C604B46D";
shapes = (
{
closed = 1;
nodes = (
(498,-440,l),
(1095,1064,l),
(786,1064,l),
(534,351,l),
(288,1064,l),
(-19,1064,l),
(383,35,l),
(190,-440,l)
);
}
);
width = 1075;
},
{
layerId = "9D1D4149-D6AF-44E4-BA66-2DBC1F9ACF8F";
shapes = (
{
closed = 1;
nodes = (
(498,-440,l),
(1106,1064,l),
(820,1064,l),
(548,334,l),
(279,1064,l),
(-6,1064,l),
(410,41,l),
(214,-440,l)
);
}
);
width = 1099;
},
{
layerId = "D814EF8B-E2E2-4B9A-99BD-8962E8BCF366";
shapes = (
{
closed = 1;
nodes = (
(447,-441,l),
(1029,1064,l),
(820,1064,l),
(526,243,l),
(228,1064,l),
(19,1064,l),
(431,24,l),
(245,-441,l)
);
}
);
width = 1044;
},
{
layerId = "85042BCA-33BD-4676-BF6E-DA82D0F79E7B";
shapes = (
{
closed = 1;
nodes = (
(407,-441,l),
(960,1064,l),
(837,1064,l),
(519,141,l),
(188,1064,l),
(63,1064,l),
(470,5,l),
(295,-441,l)
);
}
);
width = 1016;
}
);
leftKerningGroup = v;
unicode = 121;
},
{
glyphname = z;
layers = (
{
layerId = "3C56E2CD-C7AD-4ED1-8DD7-75F0C604B46D";
shapes = (
{
closed = 1;
nodes = (
(983,0,l),
(983,234,l),
(445,234,l),
(983,869,l),
(983,1064,l),
(80,1064,l),
(80,828,l),
(613,828,l),
(50,181,l),
(50,0,l)
);
}
);
width = 1052;
},
{
layerId = "9D1D4149-D6AF-44E4-BA66-2DBC1F9ACF8F";
shapes = (
{
closed = 1;
nodes = (
(994,0,l),
(994,210,l),
(418,210,l),
(994,886,l),
(994,1064,l),
(87,1064,l),
(87,855,l),
(658,855,l),
(56,166,l),
(56,0,l)
);
}
);
width = 1064;
},
{
layerId = "D814EF8B-E2E2-4B9A-99BD-8962E8BCF366";
shapes = (
{
closed = 1;
nodes = (
(926,0,l),
(926,154,l),
(305,154,l),
(926,920,l),
(926,1064,l),
(89,1064,l),
(89,911,l),
(696,911,l),
(59,133,l),
(59,0,l)
);
}
);
width = 994;
},
{
layerId = "85042BCA-33BD-4676-BF6E-DA82D0F79E7B";
shapes = (
{
closed = 1;
nodes = (
(872,0,l),
(872,93,l),
(202,93,l),
(872,958,l),
(872,1064,l),
(113,1064,l),
(113,974,l),
(759,974,l),
(83,96,l),
(83,0,l)
);
}
);
width = 958;
}
);
unicode = 122;
},
{
glyphname = braceleft;
layers = (
{
layerId = "3C56E2CD-C7AD-4ED1-8DD7-75F0C604B46D";
shapes = (
{
closed = 1;
nodes = (
(178,11,ls),
(178,-55,o),
(210,-156,o),
(273,-224,o),
(367,-259,o),
(430,-259,qs),
(591,-259,l),
(591,-63,l),
(492,-63,ls),
(445,-63,o),
(413,-1,o),
(413,62,qs),
(413,471,ls),
(413,511,o),
(394,578,o),
(359,633,o),
(311,676,o),
(281,691,q),
(311,709,o),
(359,753,o),
(394,806,o),
(413,871,o),
(413,911,qs),
(413,1375,ls),
(413,1389,o),
(428,1415,o),
(451,1434,o),
(479,1445,o),
(492,1445,qs),
(591,1445,l),
(591,1641,l),
(430,1641,ls),
(299,1641,o),
(178,1503,o),
(178,1364,qs),
(178,926,ls),
(178,901,o),
(163,859,o),
(130,825,o),
(79,798,o),
(44,786,q),
(44,596,l),
(115,570,o),
(178,507,o),
(178,456,qs)
);
}
);
width = 639;
},
{
layerId = "9D1D4149-D6AF-44E4-BA66-2DBC1F9ACF8F";
shapes = (
{
closed = 1;
nodes = (
(188,130,ls),
(188,61,o),
(226,-47,o),
(294,-121,o),
(389,-160,o),
(447,-160,qs),
(579,-160,l),
(579,2,l),
(489,2,ls),
(447,2,o),
(400,71,o),
(400,134,qs),
(400,504,ls),
(400,531,o),
(381,582,o),
(344,628,o),
(291,668,o),
(256,684,q),
(293,704,o),
(347,750,o),
(383,804,o),
(400,866,o),
(400,902,qs),
(400,1384,ls),
(400,1400,o),
(413,1426,o),
(437,1445,o),
(470,1455,o),
(489,1455,qs),
(579,1455,l),
(579,1617,l),
(447,1617,ls),
(327,1617,o),
(188,1484,o),
(188,1353,qs),
(188,916,ls),
(188,889,o),
(175,847,o),
(144,814,o),
(92,786,o),
(54,772,q),
(54,608,l),
(123,591,o),
(188,539,o),
(188,499,qs)
);
}
);
width = 633;
},
{
layerId = "D814EF8B-E2E2-4B9A-99BD-8962E8BCF366";
shapes = (
{
closed = 1;
nodes = (
(209,111,ls),
(209,50,o),
(241,-42,o),
(301,-105,o),
(388,-137,o),
(443,-137,qs),
(548,-137,l),
(548,-27,l),
(491,-27,ls),
(431,-27,o),
(370,48,o),
(370,121,qs),
(370,494,ls),
(370,524,o),
(352,574,o),
(314,617,o),
(256,654,o),
(216,670,q),
(257,685,o),
(315,728,o),
(353,781,o),
(370,843,o),
(370,877,qs),
(370,1367,ls),
(370,1389,o),
(384,1422,o),
(413,1445,o),
(454,1456,o),
(481,1456,qs),
(548,1456,l),
(548,1566,l),
(443,1566,ls),
(329,1566,o),
(209,1450,o),
(209,1332,qs),
(209,894,ls),
(209,864,o),
(194,816,o),
(161,778,o),
(111,750,o),
(75,740,q),
(75,609,l),
(142,588,o),
(209,526,o),
(209,485,qs)
);
}
);
width = 616;
},
{
layerId = "85042BCA-33BD-4676-BF6E-DA82D0F79E7B";
shapes = (
{
closed = 1;
nodes = (
(238,90,ls),
(238,40,o),
(262,-38,o),
(313,-87,o),
(391,-112,o),
(445,-112,qs),
(520,-112,l),
(520,-59,l),
(499,-59,ls),
(421,-59,o),
(342,23,o),
(342,108,qs),
(342,484,ls),
(342,517,o),
(325,565,o),
(286,605,o),
(223,638,o),
(177,654,q),
(223,664,o),
(285,703,o),
(325,754,o),
(342,816,o),
(342,849,qs),
(342,1348,ls),
(342,1376,o),
(357,1418,o),
(391,1444,o),
(441,1456,o),
(477,1456,qs),
(520,1456,l),
(520,1509,l),
(445,1509,ls),
(338,1509,o),
(238,1411,o),
(238,1308,qs),
(238,869,ls),
(238,834,o),
(220,780,o),
(187,738,o),
(135,711,o),
(104,704,q),
(104,609,l),
(169,585,o),
(238,511,o),
(238,469,qs)
);
}
);
width = 607;
}
);
unicode = 123;
},
{
glyphname = bar;
layers = (
{
layerId = "3C56E2CD-C7AD-4ED1-8DD7-75F0C604B46D";
shapes = (
{
closed = 1;
nodes = (
(422,-524,l),
(422,1571,l),
(215,1571,l),
(215,-524,l)
);
}
);
width = 638;
},
{
layerId = "9D1D4149-D6AF-44E4-BA66-2DBC1F9ACF8F";
shapes = (
{
closed = 1;
nodes = (
(411,-524,l),
(411,1571,l),
(226,1571,l),
(226,-524,l)
);
}
);
width = 638;
},
{
layerId = "D814EF8B-E2E2-4B9A-99BD-8962E8BCF366";
shapes = (
{
closed = 1;
nodes = (
(385,-525,l),
(385,1571,l),
(251,1571,l),
(251,-525,l)
);
}
);
width = 637;
},
{
layerId = "85042BCA-33BD-4676-BF6E-DA82D0F79E7B";
shapes = (
{
closed = 1;
nodes = (
(355,-525,l),
(355,1571,l),
(280,1571,l),
(280,-525,l)
);
}
);
width = 637;
}
);
unicode = 124;
},
{
glyphname = braceright;
layers = (
{
layerId = "3C56E2CD-C7AD-4ED1-8DD7-75F0C604B46D";
shapes = (
{
closed = 1;
nodes = (
(457,11,ls),
(457,-55,o),
(425,-156,o),
(362,-224,o),
(268,-259,o),
(205,-259,qs),
(44,-259,l),
(44,-63,l),
(143,-63,ls),
(190,-63,o),
(222,-1,o),
(222,62,qs),
(222,471,ls),
(222,511,o),
(241,578,o),
(276,633,o),
(324,676,o),
(354,691,q),
(324,709,o),
(276,753,o),
(241,806,o),
(222,871,o),
(222,911,qs),
(222,1375,ls),
(222,1389,o),
(207,1415,o),
(184,1434,o),
(156,1445,o),
(143,1445,qs),
(44,1445,l),
(44,1641,l),
(205,1641,ls),
(336,1641,o),
(457,1503,o),
(457,1364,qs),
(457,926,ls),
(457,901,o),
(472,859,o),
(505,825,o),
(556,798,o),
(591,786,q),
(591,596,l),
(520,570,o),
(457,507,o),
(457,456,qs)
);
}
);
width = 639;
},
{
layerId = "9D1D4149-D6AF-44E4-BA66-2DBC1F9ACF8F";
shapes = (
{
closed = 1;
nodes = (
(445,130,ls),
(445,61,o),
(407,-47,o),
(339,-121,o),
(244,-160,o),
(186,-160,qs),
(54,-160,l),
(54,2,l),
(144,2,ls),
(186,2,o),
(233,71,o),
(233,134,qs),
(233,504,ls),
(233,531,o),
(252,582,o),
(289,628,o),
(343,668,o),
(377,684,q),
(340,704,o),
(286,750,o),
(250,804,o),
(233,866,o),
(233,902,qs),
(233,1384,ls),
(233,1400,o),
(220,1426,o),
(196,1445,o),
(164,1455,o),
(144,1455,qs),
(54,1455,l),
(54,1617,l),
(186,1617,ls),
(306,1617,o),
(445,1484,o),
(445,1353,qs),
(445,916,ls),
(445,889,o),
(458,847,o),
(489,814,o),
(541,786,o),
(579,772,q),
(579,608,l),
(510,591,o),
(445,539,o),
(445,499,qs)
);
}
);
width = 633;
},
{
layerId = "D814EF8B-E2E2-4B9A-99BD-8962E8BCF366";
shapes = (
{
closed = 1;
nodes = (
(414,111,ls),
(414,50,o),
(383,-42,o),
(323,-105,o),
(236,-137,o),
(180,-137,qs),
(75,-137,l),
(75,-27,l),
(132,-27,ls),
(192,-27,o),
(253,48,o),
(253,121,qs),
(253,494,ls),
(253,524,o),
(271,574,o),
(309,617,o),
(367,654,o),
(407,670,q),
(366,685,o),
(308,728,o),
(270,781,o),
(253,843,o),
(253,877,qs),
(253,1367,ls),
(253,1389,o),
(239,1422,o),
(210,1445,o),
(169,1456,o),
(142,1456,qs),
(75,1456,l),
(75,1566,l),
(180,1566,ls),
(294,1566,o),
(414,1450,o),
(414,1332,qs),
(414,894,ls),
(414,864,o),
(429,816,o),
(462,778,o),
(512,750,o),
(548,740,q),
(548,609,l),
(481,588,o),
(414,526,o),
(414,485,qs)
);
}
);
width = 616;
},
{
layerId = "85042BCA-33BD-4676-BF6E-DA82D0F79E7B";
shapes = (
{
closed = 1;
nodes = (
(386,90,ls),
(386,40,o),
(361,-38,o),
(310,-87,o),
(232,-112,o),
(179,-112,qs),
(104,-112,l),
(104,-59,l),
(125,-59,ls),
(203,-59,o),
(282,23,o),
(282,108,qs),
(282,484,ls),
(282,517,o),
(298,565,o),
(338,605,o),
(400,638,o),
(446,654,q),
(401,664,o),
(338,703,o),
(299,754,o),
(282,816,o),
(282,849,qs),
(282,1348,ls),
(282,1376,o),
(266,1418,o),
(233,1444,o),
(183,1456,o),
(147,1456,qs),
(104,1456,l),
(104,1509,l),
(179,1509,ls),
(287,1509,o),
(386,1411,o),
(386,1308,qs),
(386,869,ls),
(386,834,o),
(404,780,o),
(437,738,o),
(488,711,o),
(520,704,q),
(520,609,l),
(454,585,o),
(386,511,o),
(386,469,qs)
);
}
);
width = 607;
}
);
unicode = 125;
},
{
glyphname = asciitilde;
layers = (
{
layerId = "3C56E2CD-C7AD-4ED1-8DD7-75F0C604B46D";
shapes = (
{
closed = 1;
nodes = (
(360,416,l),
(360,431,o),
(369,452,o),
(383,465,o),
(401,470,o),
(410,470,qs),
(428,470,o),
(466,458,o),
(511,440,o),
(564,418,o),
(629,400,o),
(706,388,o),
(752,388,qs),
(821,388,o),
(922,422,o),
(987,490,o),
(1019,592,o),
(1019,660,q),
(814,660,l),
(814,646,o),
(805,620,o),
(787,600,o),
(762,588,o),
(746,588,qs),
(736,588,o),
(692,600,o),
(634,617,o),
(566,638,o),
(498,655,o),
(434,667,o),
(408,667,qs),
(351,667,o),
(260,638,o),
(197,576,o),
(164,482,o),
(164,416,q)
);
}
);
width = 1184;
},
{
layerId = "9D1D4149-D6AF-44E4-BA66-2DBC1F9ACF8F";
shapes = (
{
closed = 1;
nodes = (
(350,416,l),
(350,431,o),
(357,461,o),
(373,484,o),
(401,498,o),
(422,498,qs),
(442,498,o),
(489,485,o),
(542,465,o),
(602,443,o),
(667,423,o),
(738,410,o),
(776,410,qs),
(839,410,o),
(927,442,o),
(983,505,o),
(1009,599,o),
(1009,660,q),
(835,660,l),
(835,645,o),
(828,615,o),
(812,593,o),
(784,579,o),
(763,579,qs),
(745,579,o),
(700,592,o),
(647,612,o),
(586,634,o),
(520,654,o),
(447,667,o),
(409,667,qs),
(346,667,o),
(257,635,o),
(202,571,o),
(176,478,o),
(176,416,q)
);
}
);
width = 1185;
},
{
layerId = "D814EF8B-E2E2-4B9A-99BD-8962E8BCF366";
shapes = (
{
closed = 1;
nodes = (
(327,417,l),
(327,440,o),
(335,485,o),
(355,523,o),
(392,546,o),
(420,546,qs),
(446,546,o),
(496,524,o),
(546,491,o),
(600,453,o),
(660,420,o),
(727,398,o),
(767,398,qs),
(828,398,o),
(912,438,o),
(964,508,o),
(987,603,o),
(987,659,q),
(860,659,l),
(860,636,o),
(853,587,o),
(832,546,o),
(795,520,o),
(765,520,qs),
(740,520,o),
(693,542,o),
(643,574,o),
(590,612,o),
(528,644,o),
(456,666,o),
(413,666,qs),
(356,666,o),
(277,627,o),
(228,560,o),
(205,469,o),
(205,417,q)
);
}
);
width = 1190;
},
{
layerId = "85042BCA-33BD-4676-BF6E-DA82D0F79E7B";
shapes = (
{
closed = 1;
nodes = (
(299,417,l),
(299,448,o),
(307,512,o),
(333,565,o),
(379,599,o),
(416,599,qs),
(448,599,o),
(501,568,o),
(549,520,o),
(596,464,o),
(650,416,o),
(714,385,o),
(754,385,qs),
(813,385,o),
(891,432,o),
(940,510,o),
(960,608,o),
(960,658,q),
(886,658,l),
(886,626,o),
(879,554,o),
(853,495,o),
(804,456,o),
(764,456,qs),
(731,456,o),
(681,487,o),
(636,534,o),
(590,587,o),
(534,634,o),
(462,665,o),
(415,665,qs),
(365,665,o),
(297,618,o),
(254,545,o),
(234,459,o),
(234,417,q)
);
}
);
width = 1192;
}
);
unicode = 126;
},
{
glyphname = exclamdown;
layers = (
{
layerId = "3C56E2CD-C7AD-4ED1-8DD7-75F0C604B46D";
shapes = (
{
closed = 1;
nodes = (
(474,730,l),
(474,1023,l),
(178,1023,l),
(178,730,l)
);
},
{
closed = 1;
nodes = (
(461,-444,l),
(432,569,l),
(220,569,l),
(191,-444,l)
);
}
);
width = 652;
},
{
layerId = "9D1D4149-D6AF-44E4-BA66-2DBC1F9ACF8F";
shapes = (
{
closed = 1;
nodes = (
(462,753,l),
(462,1023,l),
(188,1023,l),
(188,753,l)
);
},
{
closed = 1;
nodes = (
(449,-444,l),
(420,585,l),
(230,585,l),
(202,-444,l)
);
}
);
width = 650;
},
{
layerId = "D814EF8B-E2E2-4B9A-99BD-8962E8BCF366";
shapes = (
{
closed = 1;
nodes = (
(432,804,l),
(432,1022,l),
(210,1022,l),
(210,804,l)
);
},
{
closed = 1;
nodes = (
(419,-446,l),
(390,618,l),
(252,618,l),
(224,-446,l)
);
}
);
width = 645;
},
{
layerId = "85042BCA-33BD-4676-BF6E-DA82D0F79E7B";
shapes = (
{
closed = 1;
nodes = (
(402,861,l),
(402,1022,l),
(237,1022,l),
(237,861,l)
);
},
{
closed = 1;
nodes = (
(389,-448,l),
(360,654,l),
(279,654,l),
(251,-448,l)
);
}
);
width = 642;
}
);
unicode = 161;
},
{
glyphname = cent;
layers = (
{
layerId = "3C56E2CD-C7AD-4ED1-8DD7-75F0C604B46D";
shapes = (
{
closed = 1;
nodes = (
(742,-210,l),
(742,-22,l),
(867,1,o),
(1034,154,o),
(1087,292,q),
(858,382,l),
(841,329,o),
(802,257,o),
(751,212,o),
(685,193,o),
(641,193,qs),
(585,193,o),
(496,236,o),
(435,318,o),
(402,436,o),
(402,510,qs),
(402,582,o),
(436,699,o),
(498,781,o),
(586,825,o),
(641,825,qs),
(687,825,o),
(755,805,o),
(807,761,o),
(844,689,o),
(858,637,q),
(1102,730,l),
(1072,800,o),
(999,905,o),
(911,981,o),
(806,1029,o),
(742,1041,q),
(742,1229,l),
(535,1229,l),
(535,1041,l),
(450,1026,o),
(308,934,o),
(205,796,o),
(147,620,o),
(147,521,qs),
(147,413,o),
(202,227,o),
(304,85,o),
(447,-8,o),
(535,-23,q),
(535,-210,l)
);
}
);
width = 1229;
},
{
layerId = "9D1D4149-D6AF-44E4-BA66-2DBC1F9ACF8F";
shapes = (
{
closed = 1;
nodes = (
(733,-210,l),
(733,-20,l),
(858,1,o),
(1028,151,o),
(1075,283,q),
(867,365,l),
(853,316,o),
(812,245,o),
(758,198,o),
(687,176,o),
(643,176,qs),
(585,176,o),
(492,222,o),
(427,308,o),
(393,432,o),
(393,510,qs),
(393,587,o),
(428,710,o),
(493,797,o),
(585,843,o),
(643,843,qs),
(688,843,o),
(758,821,o),
(813,774,o),
(853,703,o),
(867,654,q),
(1090,740,l),
(1061,806,o),
(987,910,o),
(898,985,o),
(793,1031,o),
(733,1040,q),
(733,1229,l),
(549,1229,l),
(549,1040,l),
(459,1022,o),
(316,930,o),
(215,793,o),
(161,615,o),
(161,510,qs),
(161,404,o),
(214,225,o),
(314,89,o),
(458,-2,o),
(549,-20,q),
(549,-210,l)
);
}
);
width = 1229;
},
{
layerId = "D814EF8B-E2E2-4B9A-99BD-8962E8BCF366";
shapes = (
{
closed = 1;
nodes = (
(712,-211,l),
(712,-18,l),
(836,-2,o),
(1002,135,o),
(1049,260,q),
(890,325,l),
(876,280,o),
(830,210,o),
(769,162,o),
(692,137,o),
(648,137,qs),
(584,137,o),
(482,189,o),
(410,285,o),
(372,423,o),
(372,509,qs),
(372,594,o),
(411,731,o),
(483,828,o),
(585,881,o),
(648,881,qs),
(692,881,o),
(769,856,o),
(832,808,o),
(877,738,o),
(890,694,q),
(1062,762,l),
(1035,822,o),
(964,916,o),
(876,985,o),
(772,1028,o),
(712,1037,q),
(712,1228,l),
(579,1228,l),
(579,1037,l),
(490,1023,o),
(346,935,o),
(245,798,o),
(190,616,o),
(190,509,qs),
(190,401,o),
(245,219,o),
(346,81,o),
(490,-5,o),
(579,-17,q),
(579,-211,l)
);
}
);
width = 1229;
},
{
layerId = "85042BCA-33BD-4676-BF6E-DA82D0F79E7B";
shapes = (
{
closed = 1;
nodes = (
(690,-211,l),
(690,-17,l),
(811,-5,o),
(972,119,o),
(1019,235,q),
(916,280,l),
(903,240,o),
(850,171,o),
(780,123,o),
(698,95,o),
(654,95,qs),
(584,95,o),
(472,153,o),
(392,261,o),
(348,414,o),
(348,509,qs),
(348,602,o),
(392,755,o),
(473,864,o),
(585,923,o),
(654,923,qs),
(698,923,o),
(783,895,o),
(852,844,o),
(904,777,o),
(916,738,q),
(1031,788,l),
(1008,840,o),
(940,924,o),
(854,987,o),
(750,1027,o),
(690,1034,q),
(690,1228,l),
(612,1228,l),
(612,1034,l),
(525,1025,o),
(381,941,o),
(278,804,o),
(223,619,o),
(223,509,qs),
(223,398,o),
(280,212,o),
(382,74,o),
(526,-8,o),
(612,-14,q),
(612,-211,l)
);
}
);
width = 1229;
}
);
leftKerningGroup = a;
unicode = 162;
},
{
glyphname = sterling;
layers = (
{
layerId = "3C56E2CD-C7AD-4ED1-8DD7-75F0C604B46D";
shapes = (
{
closed = 1;
nodes = (
(139,0,l),
(1212,0,l),
(1212,232,l),
(504,232,l),
(531,261,o),
(574,324,o),
(604,388,o),
(621,449,o),
(621,475,qs),
(621,509,o),
(606,577,o),
(597,608,q),
(1046,608,l),
(1046,841,l),
(557,841,l),
(546,877,o),
(530,942,o),
(520,999,o),
(515,1045,o),
(515,1062,qs),
(515,1114,o),
(545,1186,o),
(602,1231,o),
(683,1251,o),
(734,1251,qs),
(770,1251,o),
(834,1228,o),
(888,1183,o),
(930,1120,o),
(944,1079,q),
(1160,1158,l),
(1136,1226,o),
(1057,1345,o),
(948,1434,o),
(813,1485,o),
(734,1485,qs),
(624,1485,o),
(455,1418,o),
(340,1305,o),
(281,1156,o),
(281,1075,qs),
(281,1047,o),
(286,987,o),
(295,927,o),
(308,868,o),
(316,841,q),
(143,841,l),
(143,608,l),
(372,608,l),
(381,577,o),
(392,513,o),
(392,481,qs),
(392,446,o),
(353,374,o),
(286,310,o),
(193,257,o),
(139,241,q)
);
}
);
width = 1229;
},
{
layerId = "9D1D4149-D6AF-44E4-BA66-2DBC1F9ACF8F";
shapes = (
{
closed = 1;
nodes = (
(140,0,l),
(1206,0,l),
(1206,210,l),
(472,210,l),
(501,227,o),
(547,284,o),
(580,358,o),
(598,444,o),
(598,490,qs),
(598,516,o),
(592,580,o),
(585,618,q),
(1025,618,l),
(1025,828,l),
(537,828,l),
(527,852,o),
(510,911,o),
(499,973,o),
(493,1033,o),
(493,1057,qs),
(493,1111,o),
(523,1191,o),
(582,1244,o),
(668,1271,o),
(724,1271,qs),
(761,1271,o),
(827,1247,o),
(883,1200,o),
(928,1133,o),
(944,1091,q),
(1139,1162,l),
(1116,1228,o),
(1038,1345,o),
(931,1431,o),
(800,1481,o),
(724,1481,qs),
(627,1481,o),
(465,1422,o),
(348,1313,o),
(283,1157,o),
(283,1061,qs),
(283,1034,o),
(288,973,o),
(297,912,o),
(311,853,o),
(321,828,q),
(144,828,l),
(144,618,l),
(371,618,l),
(382,576,o),
(392,511,o),
(392,486,qs),
(392,434,o),
(356,342,o),
(290,270,o),
(197,222,o),
(140,212,q)
);
}
);
width = 1229;
},
{
layerId = "D814EF8B-E2E2-4B9A-99BD-8962E8BCF366";
shapes = (
{
closed = 1;
nodes = (
(144,0,l),
(1192,0,l),
(1192,158,l),
(392,158,l),
(432,190,o),
(492,261,o),
(531,342,o),
(550,432,o),
(550,483,qs),
(550,520,o),
(541,600,o),
(531,642,q),
(978,642,l),
(978,799,l),
(492,799,l),
(482,822,o),
(464,887,o),
(451,956,o),
(444,1022,o),
(444,1046,qs),
(444,1106,o),
(477,1205,o),
(543,1276,o),
(639,1315,o),
(702,1315,qs),
(746,1315,o),
(821,1286,o),
(882,1233,o),
(929,1161,o),
(945,1118,q),
(1092,1172,l),
(1070,1235,o),
(994,1345,o),
(893,1425,o),
(770,1471,o),
(699,1471,qs),
(605,1471,o),
(452,1407,o),
(344,1293,o),
(286,1137,o),
(286,1046,qs),
(286,1022,o),
(293,955,o),
(305,885,o),
(323,820,o),
(333,799,q),
(147,799,l),
(147,642,l),
(370,642,l),
(381,597,o),
(395,516,o),
(395,477,qs),
(395,431,o),
(357,334,o),
(290,246,o),
(198,171,o),
(144,146,q)
);
}
);
width = 1229;
},
{
layerId = "85042BCA-33BD-4676-BF6E-DA82D0F79E7B";
shapes = (
{
closed = 1;
nodes = (
(149,0,l),
(1177,0,l),
(1177,100,l),
(304,100,l),
(356,147,o),
(429,236,o),
(476,324,o),
(498,419,o),
(498,474,qs),
(498,525,o),
(484,623,o),
(471,669,q),
(926,669,l),
(926,768,l),
(443,768,l),
(433,789,o),
(413,859,o),
(399,935,o),
(389,1009,o),
(389,1033,qs),
(389,1100,o),
(426,1220,o),
(500,1311,o),
(608,1363,o),
(678,1363,qs),
(728,1363,o),
(814,1328,o),
(881,1269,o),
(931,1191,o),
(947,1148,q),
(1040,1184,l),
(1018,1244,o),
(946,1345,o),
(851,1419,o),
(737,1461,o),
(672,1461,qs),
(581,1461,o),
(439,1389,o),
(341,1271,o),
(289,1115,o),
(289,1030,qs),
(289,1010,o),
(299,936,o),
(314,857,o),
(335,784,o),
(345,768,q),
(152,768,l),
(152,669,l),
(370,669,l),
(381,621,o),
(400,522,o),
(400,467,qs),
(400,427,o),
(360,327,o),
(292,219,o),
(201,116,o),
(149,73,q)
);
}
);
width = 1229;
}
);
unicode = 163;
},
